<svg width="1200" height="675" viewBox="0 0 1200 675" fill="none" xmlns="http://www.w3.org/2000/svg">
<g clip-path="url(#clip0_5458_6915)">
<path d="M40 95.4819H68.1252C93.2424 95.4819 98.7124 80.7869 98.7124 67.8875C98.7124 54.3285 91.9586 40.9528 68.1252 40.9528H40V95.4819ZM58.81 56.7105H65.2786C78.0046 56.7105 79.1768 64.113 79.1768 67.9975C79.1768 71.8819 78.0605 79.7242 65.2786 79.7242H58.81V56.7105Z" fill="white"/>
<path d="M122.436 55.0981H134.503C137.628 55.0981 138.745 56.8205 138.745 59.0925C138.745 61.3646 137.628 63.0869 134.503 63.0869H122.436V55.0981ZM122.436 77.4521H131.154C137.238 77.4521 139.359 80.8968 139.359 86.7602V95.4819C139.359 95.4819 155.574 95.4819 158.28 95.4819V81.3366C158.28 74.3006 154.931 69.5366 149.071 67.9975C152.531 66.8248 158.113 63.3801 158.113 55.1714C158.113 45.2037 151.694 40.9528 141.256 40.9528H103.626V95.4819H122.436V77.4521Z" fill="white"/>
<path d="M183.264 40.9528H164.51V95.4819H183.264V40.9528Z" fill="white"/>
<path d="M224.815 79.6509C240.387 79.6509 244.908 70.1229 244.908 60.082C244.908 49.8944 240.499 40.9528 224.815 40.9528H189.703V95.4819H208.513V79.6509H224.815ZM208.513 55.9043H221.075C224.368 55.9043 225.484 57.7366 225.484 60.1552C225.484 62.5006 224.368 64.4062 221.075 64.4062H208.513V55.9043Z" fill="white"/>
<path d="M276.311 96.508C299.084 96.508 306.647 86.6869 306.647 77.2322C306.647 66.0919 300.731 60.6683 284.711 60.082L276.785 59.8621C269.753 59.6422 268.301 58.2497 268.301 56.1242V56.0509C268.301 54.072 269.334 52.6062 275.809 52.6062C282.841 52.6062 283.762 55.6844 283.93 57.6633H305.14V57.1503C305.14 48.1354 297.103 40 275.558 40C255.854 40 247.259 47.2925 247.259 56.8938C247.259 65.4689 251.11 73.5676 267.799 74.154L276.06 74.4472C283.93 74.8136 284.711 76.5726 284.711 78.8447V78.9912C284.711 81.2633 283.26 83.3888 276.562 83.3888C269.25 83.3888 268.301 79.2844 268.134 76.7192H246.589V77.3788C246.589 84.4148 252.143 96.508 276.311 96.508Z" fill="white"/>
<path d="M709.234 -50.4372L629.853 -88.5657C608.723 -98.7146 583.472 -90.0242 573.473 -69.1008C563.475 -48.1774 572.542 -23.0036 593.672 -12.8547L673.054 25.2737C694.183 35.4226 719.434 26.7323 729.433 5.80887C739.432 -15.1146 730.364 -40.2883 709.234 -50.4372ZM586.261 2.65281C556.412 -11.684 543.67 -47.1998 557.746 -76.6549C571.822 -106.11 607.415 -118.41 637.263 -104.073L716.645 -65.9447C746.494 -51.6079 759.236 -16.0922 745.16 13.363C731.084 42.8181 695.491 55.118 665.643 40.7812L586.261 2.65281Z" fill="white" stroke="black" stroke-width="3.03256"/>
<path d="M689.055 108.823L609.348 144.49C588.104 153.996 578.841 178.895 588.641 200.097C598.441 221.298 623.603 230.793 644.847 221.287L724.554 185.62C745.799 176.114 755.062 151.215 745.261 130.013C735.461 108.812 710.3 99.3168 689.055 108.823ZM652.131 237.045C622.189 250.443 586.701 237.068 572.873 207.153C559.044 177.237 572.122 142.13 602.064 128.732L681.771 93.0649C711.713 79.6665 747.202 93.0418 761.03 122.957C774.858 152.873 761.78 187.98 731.838 201.378L652.131 237.045Z" fill="white" stroke="black" stroke-width="3.03256"/>
<path d="M1149.09 118.711L1214.13 60.86C1231.48 45.4329 1232.77 18.8366 1217.08 1.45811C1201.38 -15.9204 1174.6 -17.5403 1157.25 -2.11327L1092.21 55.7379C1074.86 71.165 1073.57 97.7613 1089.26 115.14C1104.96 132.518 1131.74 134.138 1149.09 118.711ZM1145.57 -15.0435C1170 -36.768 1207.77 -34.5221 1229.94 -9.98026C1252.1 14.5616 1250.24 52.0657 1225.81 73.7902L1160.77 131.641C1136.34 153.366 1098.57 151.12 1076.4 126.578C1054.23 102.036 1056.1 64.5322 1080.53 42.8077L1145.57 -15.0435Z" fill="white" stroke="black" stroke-width="3.03256"/>
<path d="M895.939 82.3835L825.519 29.5201C806.774 15.4488 780.238 18.9968 766.257 37.5008C752.276 56.0048 756.183 82.406 774.927 96.4773L845.347 149.341C864.092 163.412 890.628 159.864 904.609 141.36C918.59 122.856 914.683 96.4548 895.939 82.3835ZM764.564 110.192C738.086 90.3151 732.623 53.0775 752.305 27.0276C771.988 0.977585 809.403 -4.07191 835.882 15.8052L906.301 68.6686C932.78 88.5457 938.243 125.783 918.56 151.833C898.877 177.883 861.463 182.933 834.984 163.056L764.564 110.192Z" fill="white" stroke="black" stroke-width="3.03256"/>
<path d="M1081.44 167.505L1000.63 132.526C979.123 123.215 954.251 132.9 945.102 154.211C935.953 175.522 946.017 200.329 967.527 209.64L1048.34 244.619C1069.85 253.929 1094.72 244.244 1103.87 222.933C1113.02 201.622 1102.95 176.815 1081.44 167.505ZM960.746 225.435C930.361 212.282 916.213 177.282 929.092 147.281C941.972 117.28 977.029 103.578 1007.41 116.73L1088.22 151.709C1118.61 164.862 1132.76 199.862 1119.88 229.863C1107 259.865 1071.94 273.566 1041.56 260.414L960.746 225.435Z" fill="white" stroke="black" stroke-width="3.03256"/>
<g style="mix-blend-mode:multiply">
<path fill-rule="evenodd" clip-rule="evenodd" d="M726.157 8.86267C726.839 7.73609 727.472 6.56551 728.052 5.35232C730.773 -0.341848 732.029 -6.36533 731.97 -12.2983L750.707 2.44923C749.74 6.43437 748.349 10.3769 746.513 14.2194C745.275 16.8089 743.876 19.269 742.332 21.5936L726.157 8.86267Z" fill="#3131B7"/>
</g>
<g style="mix-blend-mode:multiply">
<path fill-rule="evenodd" clip-rule="evenodd" d="M782.306 26.1813C776.867 28.8655 771.967 32.8135 768.077 37.9617C767.638 38.5418 767.218 39.1301 766.816 39.7257L750.695 27.0374C751.022 26.5777 751.357 26.1211 751.7 25.6679C755.581 20.5314 760.133 16.1914 765.147 12.676L782.306 26.1813Z" fill="#3131B7"/>
</g>
<g style="mix-blend-mode:multiply">
<path fill-rule="evenodd" clip-rule="evenodd" d="M833.576 138.63L814.202 124.086L782.583 125.636L807.992 144.711L825.239 143.866C828.886 143.687 831.966 141.606 833.576 138.63Z" fill="#3131B7"/>
</g>
<g style="mix-blend-mode:multiply">
<path fill-rule="evenodd" clip-rule="evenodd" d="M747.593 145.774C747.23 141.095 746.038 136.39 743.944 131.86C742.952 129.713 741.796 127.691 740.499 125.801L762.991 124.699C765.864 131.253 767.494 138.034 767.979 144.775L747.593 145.774Z" fill="#3131B7"/>
</g>
<g style="mix-blend-mode:multiply">
<path fill-rule="evenodd" clip-rule="evenodd" d="M1042.51 152.427L1021.3 143.246L1039.11 128.92L1060.32 138.101L1042.51 152.427Z" fill="#3131B7"/>
</g>
<g style="mix-blend-mode:multiply">
<path fill-rule="evenodd" clip-rule="evenodd" d="M950.102 149.157C948.627 151.299 947.341 153.615 946.277 156.095C944.574 160.061 943.562 164.154 943.187 168.242L923.895 159.264C924.701 155.455 925.891 151.671 927.484 147.961C928.614 145.327 929.911 142.816 931.357 140.435L950.102 149.157Z" fill="#3131B7"/>
</g>
<g style="mix-blend-mode:multiply">
<path fill-rule="evenodd" clip-rule="evenodd" d="M897.358 147.091C899.182 145.435 900.878 143.587 902.416 141.552C905.137 137.95 907.156 134.036 908.495 129.971L927.147 138.651C925.164 143.969 922.387 149.088 918.793 153.846C918.186 154.649 917.563 155.432 916.924 156.196L897.358 147.091Z" fill="#3131B7"/>
</g>
<g style="mix-blend-mode:multiply">
<path fill-rule="evenodd" clip-rule="evenodd" d="M1064.92 111.77C1067.52 117.798 1071.15 123.521 1075.81 128.684C1075.91 128.793 1076.01 128.903 1076.11 129.012L1091.93 116.288C1091.59 115.943 1091.26 115.59 1090.94 115.23C1086.39 110.197 1083.33 104.365 1081.71 98.2658L1064.92 111.77Z" fill="#3131B7"/>
</g>
<path fill-rule="evenodd" clip-rule="evenodd" d="M1025.62 165.914C1022.04 161.545 1022.71 155.134 1027.11 151.595L1097.18 95.2331C1101.58 91.6941 1108.05 92.367 1111.62 96.7362V96.7362C1115.2 101.105 1114.53 107.516 1110.13 111.055L1040.06 167.417C1035.66 170.956 1029.2 170.283 1025.62 165.914V165.914Z" fill="#3131B7" stroke="black" stroke-width="3.03256"/>
<path fill-rule="evenodd" clip-rule="evenodd" d="M976.089 165.084C973.745 170.151 967.741 172.35 962.679 169.994L879.818 131.436C874.756 129.08 872.552 123.062 874.896 117.994V117.994C877.24 112.926 883.244 110.728 888.307 113.084L971.167 151.642C976.23 153.998 978.433 160.016 976.089 165.084V165.084Z" fill="#3131B7" stroke="black" stroke-width="3.03256"/>
<path fill-rule="evenodd" clip-rule="evenodd" d="M823.851 126.676C824.191 132.271 819.929 137.028 814.331 137.303L723.54 141.752C717.942 142.027 713.127 137.714 712.786 132.119V132.119C712.446 126.525 716.708 121.767 722.306 121.492L813.097 117.043C818.696 116.769 823.51 121.081 823.851 126.676V126.676Z" fill="#3131B7" stroke="black" stroke-width="3.03256"/>
<path fill-rule="evenodd" clip-rule="evenodd" d="M790.638 57.9073C787.168 62.283 780.797 63.0302 776.409 59.5762L704.609 3.06611C700.22 -0.387836 699.476 -6.73498 702.946 -11.1106V-11.1106C706.416 -15.4863 712.787 -16.2335 717.175 -12.7795L788.975 43.7306C793.364 47.1846 794.108 53.5317 790.638 57.9073V57.9073Z" fill="#3131B7" stroke="black" stroke-width="3.03256"/>
<path fill-rule="evenodd" clip-rule="evenodd" d="M1054.53 553C1054.53 565.887 1064.98 576.333 1077.86 576.333L1077.86 577.667C1064.98 577.667 1054.53 588.113 1054.53 601L1053.2 601C1053.2 588.113 1042.75 577.667 1029.86 577.667L1029.86 576.333C1042.75 576.333 1053.2 565.887 1053.2 553L1054.53 553Z" fill="white"/>
<path d="M1053.86 601V601C1053.86 587.745 1043.12 577 1029.86 577V577" stroke="black" stroke-width="2"/>
<path d="M1053.86 553V553C1053.86 566.255 1064.61 577 1077.86 577V577" stroke="black" stroke-width="2"/>
<path d="M1029.86 577V577C1043.12 577 1053.86 566.255 1053.86 553V553" stroke="black" stroke-width="2"/>
<path d="M1077.86 577V577C1064.61 577 1053.86 587.745 1053.86 601V601" stroke="black" stroke-width="2"/>
<path fill-rule="evenodd" clip-rule="evenodd" d="M1136.57 565.496C1136.57 584.826 1152.24 600.496 1171.57 600.496L1171.57 602.496C1152.24 602.496 1136.57 618.166 1136.57 637.496L1134.57 637.496C1134.57 618.166 1118.9 602.496 1099.57 602.496L1099.57 600.496C1118.9 600.496 1134.57 584.826 1134.57 565.496L1136.57 565.496Z" fill="white"/>
<path d="M1135.57 637.496V637.496C1135.57 617.614 1119.45 601.496 1099.57 601.496V601.496" stroke="black" stroke-width="2"/>
<path d="M1135.57 565.496V565.496C1135.57 585.378 1151.69 601.496 1171.57 601.496V601.496" stroke="black" stroke-width="2"/>
<path d="M1099.57 601.496V601.496C1119.45 601.496 1135.57 585.378 1135.57 565.496V565.496" stroke="black" stroke-width="2"/>
<path d="M1171.57 601.496V601.496C1151.69 601.496 1135.57 617.614 1135.57 637.496V637.496" stroke="black" stroke-width="2"/>
<path d="M1220.49 456.508C1184.35 483.581 1131.36 474.108 1102.17 435.138C1072.99 396.169 1078.8 342.657 1114.95 315.584L1123.98 308.822L1176.75 379.283L1229.52 449.745L1220.49 456.508Z" fill="#3131B7" stroke="black" stroke-width="2"/>
<path d="M1243.1 329.591C1272.28 368.561 1266.47 422.072 1230.32 449.146C1194.18 476.219 1141.19 466.746 1112 427.777C1082.82 388.807 1088.63 335.296 1124.78 308.222C1160.92 281.149 1213.91 290.622 1243.1 329.591Z" fill="white" stroke="black" stroke-width="2"/>
<path d="M1229.58 339.714C1252.67 370.538 1247.97 412.917 1219.28 434.402C1190.59 455.887 1148.6 448.478 1125.52 417.654C1102.43 386.83 1107.13 344.451 1135.82 322.966C1164.51 301.481 1206.5 308.89 1229.58 339.714Z" fill="white" stroke="black" stroke-width="2"/>
<line x1="1084.23" y1="374.445" x2="1094.06" y2="367.083" stroke="black" stroke-width="2"/>
<line x1="1088.2" y1="407.912" x2="1098.03" y2="400.55" stroke="black" stroke-width="2"/>
<line x1="1102" y1="434.017" x2="1111.83" y2="426.655" stroke="black" stroke-width="2"/>
<line x1="1123.17" y1="454.601" x2="1133" y2="447.239" stroke="black" stroke-width="2"/>
<line x1="1152.94" y1="468.743" x2="1162.77" y2="461.382" stroke="black" stroke-width="2"/>
<path d="M945.672 617.282C983.496 592.603 1035.76 605.483 1062.36 646.259C1088.97 687.036 1079.71 740.059 1041.88 764.737L1032.44 770.901L984.33 697.174L936.225 623.446L945.672 617.282Z" fill="#3131B7" stroke="black" stroke-width="2"/>
<path d="M914.907 742.47C888.302 701.694 897.564 648.671 935.387 623.992C973.211 599.314 1025.47 612.194 1052.08 652.97C1078.68 693.746 1069.42 746.769 1031.6 771.448C993.775 796.127 941.513 783.246 914.907 742.47Z" fill="white" stroke="black" stroke-width="2"/>
<path d="M929.049 733.243C908.005 700.991 915.437 659.004 945.453 639.42C975.469 619.835 1016.89 629.945 1037.94 662.197C1058.98 694.45 1051.55 736.436 1021.53 756.021C991.516 775.605 950.093 765.496 929.049 733.243Z" fill="white" stroke="black" stroke-width="2"/>
<line x1="1074.54" y1="674.332" x2="1064.26" y2="681.043" stroke="black" stroke-width="2"/>
<line x1="1062.46" y1="647.389" x2="1052.18" y2="654.1" stroke="black" stroke-width="2"/>
<line x1="1042.67" y1="625.479" x2="1032.38" y2="632.19" stroke="black" stroke-width="2"/>
<line x1="1013.87" y1="609.441" x2="1003.59" y2="616.151" stroke="black" stroke-width="2"/>
</g>
<defs>
<clipPath id="clip0_5458_6915">
<rect width="1200" height="675" fill="white"/>
</clipPath>
</defs>
</svg>
