<svg width="1200" height="600" viewBox="0 0 1200 600" fill="none" xmlns="http://www.w3.org/2000/svg">
<g clip-path="url(#clip0_5460_7071)">
<path d="M40 95.4819H68.1252C93.2424 95.4819 98.7124 80.7869 98.7124 67.8875C98.7124 54.3285 91.9586 40.9528 68.1252 40.9528H40V95.4819ZM58.81 56.7105H65.2786C78.0046 56.7105 79.1768 64.113 79.1768 67.9975C79.1768 71.8819 78.0605 79.7242 65.2786 79.7242H58.81V56.7105Z" fill="white"/>
<path d="M122.436 55.0981H134.503C137.628 55.0981 138.745 56.8205 138.745 59.0925C138.745 61.3646 137.628 63.0869 134.503 63.0869H122.436V55.0981ZM122.436 77.4521H131.154C137.238 77.4521 139.359 80.8968 139.359 86.7602V95.4819C139.359 95.4819 155.574 95.4819 158.28 95.4819V81.3366C158.28 74.3006 154.931 69.5366 149.071 67.9975C152.531 66.8248 158.113 63.3801 158.113 55.1714C158.113 45.2037 151.694 40.9528 141.256 40.9528H103.626V95.4819H122.436V77.4521Z" fill="white"/>
<path d="M183.264 40.9528H164.51V95.4819H183.264V40.9528Z" fill="white"/>
<path d="M224.815 79.6509C240.387 79.6509 244.908 70.1229 244.908 60.082C244.908 49.8944 240.499 40.9528 224.815 40.9528H189.703V95.4819H208.513V79.6509H224.815ZM208.513 55.9043H221.075C224.368 55.9043 225.484 57.7366 225.484 60.1552C225.484 62.5006 224.368 64.4062 221.075 64.4062H208.513V55.9043Z" fill="white"/>
<path d="M276.311 96.508C299.084 96.508 306.647 86.6869 306.647 77.2322C306.647 66.0919 300.731 60.6683 284.711 60.082L276.785 59.8621C269.753 59.6422 268.301 58.2497 268.301 56.1242V56.0509C268.301 54.072 269.334 52.6062 275.809 52.6062C282.841 52.6062 283.762 55.6844 283.93 57.6633H305.14V57.1503C305.14 48.1354 297.103 40 275.558 40C255.854 40 247.259 47.2925 247.259 56.8938C247.259 65.4689 251.11 73.5676 267.799 74.154L276.06 74.4472C283.93 74.8136 284.711 76.5726 284.711 78.8447V78.9912C284.711 81.2633 283.26 83.3888 276.562 83.3888C269.25 83.3888 268.301 79.2844 268.134 76.7192H246.589V77.3788C246.589 84.4148 252.143 96.508 276.311 96.508Z" fill="white"/>
<path fill-rule="evenodd" clip-rule="evenodd" d="M1054.53 478C1054.53 490.887 1064.98 501.333 1077.86 501.333L1077.86 502.667C1064.98 502.667 1054.53 513.113 1054.53 526L1053.2 526C1053.2 513.113 1042.75 502.667 1029.86 502.667L1029.86 501.333C1042.75 501.333 1053.2 490.887 1053.2 478L1054.53 478Z" fill="white"/>
<path d="M1053.86 526V526C1053.86 512.745 1043.12 502 1029.86 502V502" stroke="black" stroke-width="2"/>
<path d="M1053.86 478V478C1053.86 491.255 1064.61 502 1077.86 502V502" stroke="black" stroke-width="2"/>
<path d="M1029.86 502V502C1043.12 502 1053.86 491.255 1053.86 478V478" stroke="black" stroke-width="2"/>
<path d="M1077.86 502V502C1064.61 502 1053.86 512.745 1053.86 526V526" stroke="black" stroke-width="2"/>
<path fill-rule="evenodd" clip-rule="evenodd" d="M1136.57 490.496C1136.57 509.826 1152.24 525.496 1171.57 525.496L1171.57 527.496C1152.24 527.496 1136.57 543.166 1136.57 562.496L1134.57 562.496C1134.57 543.166 1118.9 527.496 1099.57 527.496L1099.57 525.496C1118.9 525.496 1134.57 509.826 1134.57 490.496L1136.57 490.496Z" fill="white"/>
<path d="M1135.57 562.496V562.496C1135.57 542.614 1119.45 526.496 1099.57 526.496V526.496" stroke="black" stroke-width="2"/>
<path d="M1135.57 490.496V490.496C1135.57 510.378 1151.69 526.496 1171.57 526.496V526.496" stroke="black" stroke-width="2"/>
<path d="M1099.57 526.496V526.496C1119.45 526.496 1135.57 510.378 1135.57 490.496V490.496" stroke="black" stroke-width="2"/>
<path d="M1171.57 526.496V526.496C1151.69 526.496 1135.57 542.614 1135.57 562.496V562.496" stroke="black" stroke-width="2"/>
<path d="M1220.49 381.508C1184.35 408.581 1131.36 399.108 1102.17 360.138C1072.99 321.169 1078.8 267.657 1114.95 240.584L1123.98 233.822L1176.75 304.283L1229.52 374.745L1220.49 381.508Z" fill="#3131B7" stroke="black" stroke-width="2"/>
<path d="M1243.1 254.591C1272.28 293.561 1266.47 347.072 1230.32 374.146C1194.18 401.219 1141.19 391.746 1112 352.777C1082.82 313.807 1088.63 260.296 1124.78 233.222C1160.92 206.149 1213.91 215.622 1243.1 254.591Z" fill="white" stroke="black" stroke-width="2"/>
<path d="M1229.58 264.714C1252.67 295.538 1247.97 337.917 1219.28 359.402C1190.59 380.887 1148.6 373.478 1125.52 342.654C1102.43 311.83 1107.13 269.451 1135.82 247.966C1164.51 226.481 1206.5 233.89 1229.58 264.714Z" fill="white" stroke="black" stroke-width="2"/>
<line x1="1084.23" y1="299.445" x2="1094.06" y2="292.083" stroke="black" stroke-width="2"/>
<line x1="1088.2" y1="332.912" x2="1098.03" y2="325.55" stroke="black" stroke-width="2"/>
<line x1="1102" y1="359.017" x2="1111.83" y2="351.655" stroke="black" stroke-width="2"/>
<line x1="1123.17" y1="379.601" x2="1133" y2="372.239" stroke="black" stroke-width="2"/>
<line x1="1152.94" y1="393.743" x2="1162.77" y2="386.382" stroke="black" stroke-width="2"/>
<path d="M945.672 542.282C983.496 517.603 1035.76 530.483 1062.36 571.259C1088.97 612.036 1079.71 665.059 1041.88 689.737L1032.44 695.901L984.33 622.174L936.225 548.446L945.672 542.282Z" fill="#3131B7" stroke="black" stroke-width="2"/>
<path d="M914.907 667.47C888.302 626.694 897.564 573.671 935.387 548.992C973.211 524.314 1025.47 537.194 1052.08 577.97C1078.68 618.746 1069.42 671.769 1031.6 696.448C993.775 721.127 941.513 708.246 914.907 667.47Z" fill="white" stroke="black" stroke-width="2"/>
<path d="M929.049 658.243C908.005 625.991 915.437 584.004 945.453 564.42C975.469 544.835 1016.89 554.945 1037.94 587.197C1058.98 619.45 1051.55 661.436 1021.53 681.021C991.516 700.605 950.093 690.496 929.049 658.243Z" fill="white" stroke="black" stroke-width="2"/>
<line x1="1074.54" y1="599.332" x2="1064.26" y2="606.043" stroke="black" stroke-width="2"/>
<line x1="1062.46" y1="572.389" x2="1052.18" y2="579.1" stroke="black" stroke-width="2"/>
<line x1="1042.67" y1="550.479" x2="1032.38" y2="557.19" stroke="black" stroke-width="2"/>
<line x1="1013.87" y1="534.441" x2="1003.59" y2="541.151" stroke="black" stroke-width="2"/>
<path d="M689.055 29.2446L609.348 64.9112C588.104 74.4176 578.841 99.3167 588.641 120.518C598.441 141.719 623.603 151.214 644.847 141.708L724.554 106.041C745.799 96.5349 755.062 71.6359 745.261 50.4345C735.461 29.2331 710.3 19.7382 689.055 29.2446ZM652.131 157.466C622.189 170.865 586.701 157.489 572.873 127.574C559.044 97.6586 572.122 62.5513 602.064 49.1529L681.771 13.4863C711.713 0.0878746 747.202 13.4632 761.03 43.3786C774.858 73.2939 761.78 108.401 731.838 121.8L652.131 157.466Z" fill="white" stroke="black" stroke-width="3.03256"/>
<path d="M1149.09 39.1326L1214.13 -18.7186C1231.48 -34.1457 1232.77 -60.742 1217.08 -78.1205C1201.38 -95.499 1174.6 -97.1189 1157.25 -81.6919L1092.21 -23.8407C1074.86 -8.41365 1073.57 18.1827 1089.26 35.5612C1104.96 52.9397 1131.74 54.5596 1149.09 39.1326ZM1145.57 -94.6221C1170 -116.347 1207.77 -114.101 1229.94 -89.5589C1252.1 -65.017 1250.24 -27.513 1225.81 -5.78844L1160.77 52.0628C1136.34 73.7873 1098.57 71.5414 1076.4 46.9995C1054.23 22.4577 1056.1 -15.0464 1080.53 -36.7709L1145.57 -94.6221Z" fill="white" stroke="black" stroke-width="3.03256"/>
<path d="M895.939 2.80487L825.519 -50.0585C806.774 -64.1298 780.238 -60.5818 766.257 -42.0779C752.276 -23.5739 756.183 2.82738 774.927 16.8987L845.347 69.7621C864.092 83.8334 890.628 80.2854 904.609 61.7814C918.59 43.2774 914.683 16.8762 895.939 2.80487ZM764.564 30.6136C738.086 10.7364 732.623 -26.5011 752.305 -52.5511C771.988 -78.601 809.403 -83.6505 835.882 -63.7734L906.301 -10.91C932.78 8.96711 938.243 46.2046 918.56 72.2546C898.877 98.3046 861.463 103.354 834.984 83.477L764.564 30.6136Z" fill="white" stroke="black" stroke-width="3.03256"/>
<path d="M1081.44 87.9263L1000.63 52.9472C979.123 43.6364 954.251 53.3217 945.102 74.6326C935.953 95.9435 946.017 120.75 967.527 130.061L1048.34 165.04C1069.85 174.351 1094.72 164.666 1103.87 143.355C1113.02 122.044 1102.95 97.2371 1081.44 87.9263ZM960.746 145.856C930.36 132.704 916.212 97.7039 929.092 67.7025C941.972 37.7011 977.029 23.9996 1007.41 37.152L1088.22 72.1311C1118.61 85.2836 1132.76 120.284 1119.88 150.285C1107 180.286 1071.94 193.988 1041.56 180.835L960.746 145.856Z" fill="white" stroke="black" stroke-width="3.03256"/>
<g style="mix-blend-mode:multiply">
<path fill-rule="evenodd" clip-rule="evenodd" d="M833.576 59.0517L814.201 44.5078L782.582 46.0574L807.992 65.1323L825.239 64.2871C828.886 64.1083 831.966 62.0273 833.576 59.0517Z" fill="#3131B7"/>
</g>
<g style="mix-blend-mode:multiply">
<path fill-rule="evenodd" clip-rule="evenodd" d="M747.593 66.1953C747.23 61.5162 746.038 56.8117 743.944 52.2817C742.952 50.1347 741.796 48.1124 740.499 46.2227L762.991 45.1204C765.864 51.6747 767.494 58.4554 767.979 65.1962L747.593 66.1953Z" fill="#3131B7"/>
</g>
<g style="mix-blend-mode:multiply">
<path fill-rule="evenodd" clip-rule="evenodd" d="M1042.51 72.848L1021.3 63.6671L1039.11 49.3415L1060.32 58.5223L1042.51 72.848Z" fill="#3131B7"/>
</g>
<g style="mix-blend-mode:multiply">
<path fill-rule="evenodd" clip-rule="evenodd" d="M950.102 69.579C948.627 71.7201 947.341 74.037 946.277 76.5169C944.574 80.483 943.562 84.576 943.187 88.6635L923.895 79.686C924.701 75.8762 925.891 72.0922 927.484 68.3822C928.614 65.7487 929.911 63.2379 931.357 60.8563L950.102 69.579Z" fill="#3131B7"/>
</g>
<g style="mix-blend-mode:multiply">
<path fill-rule="evenodd" clip-rule="evenodd" d="M897.358 67.5125C899.182 65.8563 900.878 64.0086 902.416 61.9734C905.138 58.3713 907.156 54.4574 908.495 50.3927L927.147 59.0724C925.164 64.39 922.387 69.5099 918.793 74.2672C918.186 75.0701 917.563 75.8536 916.924 76.6176L897.358 67.5125Z" fill="#3131B7"/>
</g>
<g style="mix-blend-mode:multiply">
<path fill-rule="evenodd" clip-rule="evenodd" d="M1064.92 32.191C1067.52 38.2196 1071.15 43.9426 1075.81 49.1049C1075.91 49.2147 1076.01 49.3241 1076.11 49.433L1091.93 36.7098C1091.59 36.364 1091.26 36.0111 1090.94 35.6511C1086.39 30.6186 1083.33 24.7868 1081.71 18.6872L1064.92 32.191Z" fill="#3131B7"/>
</g>
<path fill-rule="evenodd" clip-rule="evenodd" d="M1025.62 86.3358C1022.04 81.9666 1022.71 75.5557 1027.11 72.0167L1097.18 15.6548C1101.58 12.1157 1108.05 12.7886 1111.62 17.1578V17.1578C1115.2 21.5269 1114.53 27.9378 1110.13 31.4769L1040.06 87.8388C1035.66 91.3779 1029.2 90.7049 1025.62 86.3358V86.3358Z" fill="#3131B7" stroke="black" stroke-width="3.03256"/>
<path fill-rule="evenodd" clip-rule="evenodd" d="M976.089 85.5052C973.745 90.573 967.741 92.7716 962.679 90.4158L879.818 51.8574C874.756 49.5017 872.552 43.4837 874.896 38.4158V38.4158C877.24 33.348 883.244 31.1495 888.307 33.5052L971.167 72.0636C976.23 74.4194 978.433 80.4374 976.089 85.5052V85.5052Z" fill="#3131B7" stroke="black" stroke-width="3.03256"/>
<path fill-rule="evenodd" clip-rule="evenodd" d="M823.851 47.0972C824.191 52.6918 819.929 57.4495 814.331 57.7239L723.54 62.1734C717.942 62.4478 713.127 58.1349 712.787 52.5403V52.5403C712.446 46.9457 716.708 42.188 722.306 41.9136L813.097 37.4641C818.696 37.1897 823.51 41.5026 823.851 47.0972V47.0972Z" fill="#3131B7" stroke="black" stroke-width="3.03256"/>
</g>
<defs>
<clipPath id="clip0_5460_7071">
<rect width="1200" height="600" fill="white"/>
</clipPath>
</defs>
</svg>
