<svg xmlns="http://www.w3.org/2000/svg" viewBox="0 0 64 64" fill="none" shape-rendering="auto"><metadata xmlns:rdf="http://www.w3.org/1999/02/22-rdf-syntax-ns#" xmlns:xsi="http://www.w3.org/2001/XMLSchema-instance" xmlns:dc="http://purl.org/dc/elements/1.1/" xmlns:dcterms="http://purl.org/dc/terms/"><rdf:RDF><rdf:Description><dc:title>Personas by Draftbit</dc:title><dc:creator>Draftbit - draftbit.com</dc:creator><dc:source xsi:type="dcterms:URI">https://personas.draftbit.com/</dc:source><dcterms:license xsi:type="dcterms:URI">https://creativecommons.org/licenses/by/4.0/</dcterms:license><dc:rights>Remix of „Personas by Draftbit” (https://personas.draftbit.com/) by „Draftbit - draftbit.com”, licensed under „CC BY 4.0” (https://creativecommons.org/licenses/by/4.0/)</dc:rights></rdf:Description></rdf:RDF></metadata><mask id="viewboxMask"><rect width="64" height="64" rx="0" ry="0" x="0" y="0" fill="#fff" /></mask><g mask="url(#viewboxMask)"><rect fill="url(#backgroundLinear)" width="64" height="64" x="0" y="0" /><defs><linearGradient id="backgroundLinear" gradientTransform="rotate(57 0.5 0.5)"><stop stop-color="#ffd5dc"/><stop offset="1" stop-color="#ffe0b2"/></linearGradient></defs><path d="M37 46.08V52a5 5 0 0 1-10 0v-5.92A14.04 14.04 0 0 1 18.58 37h-.08a4.5 4.5 0 0 1-.5-8.97V27a14 14 0 1 1 28 0v1.03a4.5 4.5 0 0 1-.58 8.97A14.04 14.04 0 0 1 37 46.08Z" fill="#b16a5b"/><mask id="personas-a" style="mask-type:luminance" maskUnits="userSpaceOnUse" x="14" y="13" width="36" height="44"><path d="M37 46.08V52a5 5 0 0 1-10 0v-5.92A14.04 14.04 0 0 1 18.58 37h-.08a4.5 4.5 0 0 1-.5-8.97V27a14 14 0 1 1 28 0v1.03a4.5 4.5 0 0 1-.58 8.97A14.04 14.04 0 0 1 37 46.08Z" fill="#fff"/></mask><g mask="url(#personas-a)"><path d="M32 13a14 14 0 0 1 14 14v6a14 14 0 1 1-28 0v-6a14 14 0 0 1 14-14Z" fill="#fff" style="mix-blend-mode:overlay" opacity=".36"/></g><g transform="translate(20 24)"><path fill-rule="evenodd" clip-rule="evenodd" d="M4 4.5a1.5 1.5 0 1 0 3 0 1.5 1.5 0 0 0-3 0Zm13 0a1.5 1.5 0 1 0 3 0 1.5 1.5 0 0 0-3 0Z" fill="#1B0640"/></g><g transform="translate(2 2)"><path d="m44 26-.02-.02-.3.02a2 2 0 0 1-1.8-2.88 2 2 0 0 1-2.73-2.1 2 2 0 0 1-3.3.56h-.02a1.99 1.99 0 0 1-2 2.05 2 2 0 0 1-1.75-1.04 2 2 0 0 1-3.92.33 2 2 0 0 1-3.87-.6c-.04 0-.09 0-.13-.02a2 2 0 0 1-3.67-.98c-.3-.1-.57-.2-.85-.32.02.09.02.17.02.26a2 2 0 0 1-2.74 1.86A2 2 0 0 1 16 25.8v.23a4.5 4.5 0 0 0 .58 8.97A14.04 14.04 0 0 0 25 44.08v3.06c-.25-.2-.47-.42-.65-.68-.49-.13-.96-.29-1.43-.46a3.46 3.46 0 0 1-4.54-2.3 20.9 20.9 0 0 1-.98-.7 3.46 3.46 0 0 1-3.83-3.8c-.17-.21-.34-.43-.5-.66a3.46 3.46 0 0 1-2.66-5.07l-.14-.39a3.47 3.47 0 0 1-1.08-5.96v-.01a3.47 3.47 0 0 1 .47-6.2 3.47 3.47 0 0 1 2.28-5.79 3.47 3.47 0 0 1 3.87-4.86 3.47 3.47 0 0 1 5.15-3.5 3.47 3.47 0 0 1 5.94-1.83 3.47 3.47 0 0 1 6.22 0 3.47 3.47 0 0 1 5.94 1.83 3.47 3.47 0 0 1 5.14 3.5 3.47 3.47 0 0 1 3.87 4.86 3.47 3.47 0 0 1 2.28 5.8 3.47 3.47 0 0 1 .47 6.19 3.47 3.47 0 0 1-1.08 5.97l-.14.4a3.47 3.47 0 0 1-2.66 5.06c-.16.23-.33.45-.5.66A3.46 3.46 0 0 1 42.6 43l-.98.7a3.46 3.46 0 0 1-4.54 2.3c-.47.17-.94.33-1.43.46-.18.26-.4.49-.65.68v-3.06A14.04 14.04 0 0 0 43.42 35h.08a4.5 4.5 0 0 0 .5-8.97V26Z" fill="#f27d65"/><mask id="hairCurly-a" style="mask-type:luminance" maskUnits="userSpaceOnUse" x="7" y="3" width="46" height="45"><path d="m44 26-.02-.02-.3.02a2 2 0 0 1-1.8-2.88 2 2 0 0 1-2.73-2.1 2 2 0 0 1-3.3.56h-.02a1.99 1.99 0 0 1-2 2.05 2 2 0 0 1-1.75-1.04 2 2 0 0 1-3.92.33 2 2 0 0 1-3.87-.6c-.04 0-.09 0-.13-.02a2 2 0 0 1-3.67-.98c-.3-.1-.57-.2-.85-.32.02.09.02.17.02.26a2 2 0 0 1-2.74 1.86A2 2 0 0 1 16 25.8v.23a4.5 4.5 0 0 0 .58 8.97A14.04 14.04 0 0 0 25 44.08v3.06c-.25-.2-.47-.42-.65-.68-.49-.13-.96-.29-1.43-.46a3.46 3.46 0 0 1-4.54-2.3 20.9 20.9 0 0 1-.98-.7 3.46 3.46 0 0 1-3.83-3.8c-.17-.21-.34-.43-.5-.66a3.46 3.46 0 0 1-2.66-5.07l-.14-.39a3.47 3.47 0 0 1-1.08-5.96v-.01a3.47 3.47 0 0 1 .47-6.2 3.47 3.47 0 0 1 2.28-5.79 3.47 3.47 0 0 1 3.87-4.86 3.47 3.47 0 0 1 5.15-3.5 3.47 3.47 0 0 1 5.94-1.83 3.47 3.47 0 0 1 6.22 0 3.47 3.47 0 0 1 5.94 1.83 3.47 3.47 0 0 1 5.14 3.5 3.47 3.47 0 0 1 3.87 4.86 3.47 3.47 0 0 1 2.28 5.8 3.47 3.47 0 0 1 .47 6.19 3.47 3.47 0 0 1-1.08 5.97l-.14.4a3.47 3.47 0 0 1-2.66 5.06c-.16.23-.33.45-.5.66A3.46 3.46 0 0 1 42.6 43l-.98.7a3.46 3.46 0 0 1-4.54 2.3c-.47.17-.94.33-1.43.46-.18.26-.4.49-.65.68v-3.06A14.04 14.04 0 0 0 43.42 35h.08a4.5 4.5 0 0 0 .5-8.97V26Z" fill="#fff"/></mask><g mask="url(#hairCurly-a)"><path fill="#fff" d="M7 3h46v44H7z" style="mix-blend-mode:overlay" opacity=".26"/></g></g><g transform="translate(11 44)"><path d="M16 5v3a5 5 0 0 0 10 0V5l6.65 2.05a9 9 0 0 1 6.35 8.6V20H3v-4.35a9 9 0 0 1 6.35-8.6L16 5Z" fill="#e24553"/><path d="m11 6.54-1.65.5A9 9 0 0 0 7 8.17V20h4V6.54ZM15 20h4v-5.29a7.02 7.02 0 0 1-4-3.1V20ZM23 20h4v-8.4a7.02 7.02 0 0 1-4 3.11v5.3ZM31 20h4V8.16a9 9 0 0 0-2.35-1.12L31 6.55V20Z" style="mix-blend-mode:overlay" opacity=".4" fill="#000"/><path d="M3.4 13a9.01 9.01 0 0 1 2.53-4h8.14a6.98 6.98 0 0 0 2.03 4H3.4ZM39 17v3H3v-3h36ZM36.07 9a9.01 9.01 0 0 1 2.53 4H25.9a6.98 6.98 0 0 0 2.03-4h8.14Z" style="mix-blend-mode:lighten" opacity=".17" fill="#fff"/></g><g transform="translate(23 36)"><path d="M5 5h8s-1 2.5-4 2.5S5 5 5 5Z" fill="#DC5C7A"/><path d="M5.39 4.22A2.1 2.1 0 0 1 9 4a2.1 2.1 0 0 1 3.61.22l.4.78H4.99l.39-.78Z" fill="#F57B98"/></g><g transform="translate(24 28)"><path d="M5.29 6.24a.75.75 0 1 1 1.42-.48c.23.7.62 1 1.3 1 .66 0 1.05-.3 1.28-1a.75.75 0 1 1 1.42.48c-.42 1.3-1.37 2.01-2.7 2.01S5.72 7.54 5.3 6.24Z" fill="#000" style="mix-blend-mode:overlay" opacity=".36"/></g><g transform="translate(14 26)"><path opacity=".2" d="M32 3v4A14 14 0 1 1 4 7V2.7c2.05 2.94 4.53 6.97 8 8.3 2-1 4-1.5 6-1.5s4 .5 6 1.5c3.47-1.33 5.95-5.36 8-8.3V3Z" fill="#f27d65"/></g></g></svg>