<svg xmlns="http://www.w3.org/2000/svg" viewBox="0 0 64 64" fill="none" shape-rendering="auto"><metadata xmlns:rdf="http://www.w3.org/1999/02/22-rdf-syntax-ns#" xmlns:xsi="http://www.w3.org/2001/XMLSchema-instance" xmlns:dc="http://purl.org/dc/elements/1.1/" xmlns:dcterms="http://purl.org/dc/terms/"><rdf:RDF><rdf:Description><dc:title>Personas by Draftbit</dc:title><dc:creator>Draftbit - draftbit.com</dc:creator><dc:source xsi:type="dcterms:URI">https://personas.draftbit.com/</dc:source><dcterms:license xsi:type="dcterms:URI">https://creativecommons.org/licenses/by/4.0/</dcterms:license><dc:rights>Remix of „Personas by Draftbit” (https://personas.draftbit.com/) by „Draftbit - draftbit.com”, licensed under „CC BY 4.0” (https://creativecommons.org/licenses/by/4.0/)</dc:rights></rdf:Description></rdf:RDF></metadata><mask id="viewboxMask"><rect width="64" height="64" rx="0" ry="0" x="0" y="0" fill="#fff" /></mask><g mask="url(#viewboxMask)"><rect fill="url(#backgroundLinear)" width="64" height="64" x="0" y="0" /><defs><linearGradient id="backgroundLinear" gradientTransform="rotate(69 0.5 0.5)"><stop stop-color="#c8e6c9"/><stop offset="1" stop-color="#b3e5fc"/></linearGradient></defs><path d="M37 46.08V52a5 5 0 0 1-10 0v-5.92A14.04 14.04 0 0 1 18.58 37h-.08a4.5 4.5 0 0 1-.5-8.97V27a14 14 0 1 1 28 0v1.03a4.5 4.5 0 0 1-.58 8.97A14.04 14.04 0 0 1 37 46.08Z" fill="#b16a5b"/><mask id="personas-a" style="mask-type:luminance" maskUnits="userSpaceOnUse" x="14" y="13" width="36" height="44"><path d="M37 46.08V52a5 5 0 0 1-10 0v-5.92A14.04 14.04 0 0 1 18.58 37h-.08a4.5 4.5 0 0 1-.5-8.97V27a14 14 0 1 1 28 0v1.03a4.5 4.5 0 0 1-.58 8.97A14.04 14.04 0 0 1 37 46.08Z" fill="#fff"/></mask><g mask="url(#personas-a)"><path d="M32 13a14 14 0 0 1 14 14v6a14 14 0 1 1-28 0v-6a14 14 0 0 1 14-14Z" fill="#fff" style="mix-blend-mode:overlay" opacity=".36"/></g><g transform="translate(20 24)"><path d="M3.76 6.21c.4.13.82-.08.95-.47.23-.7.62-1 1.3-1 .66 0 1.05.3 1.28 1a.75.75 0 1 0 1.42-.48c-.43-1.3-1.38-2.01-2.7-2.01-1.34 0-2.29.71-2.72 2.01-.13.4.08.82.47.95ZM15.76 6.21c.4.13.82-.08.95-.47.23-.7.62-1 1.29-1s1.06.3 1.29 1a.75.75 0 1 0 1.42-.48c-.43-1.3-1.38-2.01-2.71-2.01s-2.28.71-2.71 2.01c-.13.4.08.82.47.95Z" fill="#1B0640"/></g><g transform="translate(2 2)"><path d="M31.8 7a2 2 0 0 1 3.8 0h.57a2 2 0 0 1 3.83.67l.22.1a2 2 0 0 1 3.13 2.3l.15.17a2 2 0 0 1 1.77 3.41c.05.16.09.31.12.47a2 2 0 0 1 .02 3.75l-.05.32a2 2 0 0 1-.02 3.63 2 2 0 0 1 .16.85 1.8 1.8 0 0 1-1.22 2.92L44 27.5c-.44-.66-.84-1.48-1.2-2.46a1.8 1.8 0 0 1-.45-.8 2 2 0 0 1-.56-2.68l-.02-.1a2 2 0 0 1-.96-2.94 2 2 0 0 1-2.44-.32 2 2 0 0 1-3.72.06l-.31.03a2 2 0 0 1-3.58.2h-.23a2 2 0 0 1-3.52-.1l-.4-.03a2 2 0 0 1-3.68-.17 2 2 0 0 1-3.04-.22l-.03.16a2 2 0 0 1-.7 3.35 2 2 0 0 1-1.4 3.1c-.5.97-1.09 1.94-1.76 2.9l-.19-1.92a1.8 1.8 0 0 1-.34-3.47V22a2 2 0 0 1-.39-3.9l-.01-.14a2 2 0 0 1 .07-3.92c0-.06.02-.12.04-.17a2 2 0 0 1 1.46-3.63A2 2 0 0 1 19.7 7.9v-.1a2 2 0 0 1 3.84-.8h.05a2 2 0 0 1 3.82 0h.18a2 2 0 0 1 3.82 0h.38Z" fill="#f27d65"/><mask id="hairCurlyHighTop-a" style="mask-type:luminance" maskUnits="userSpaceOnUse" x="13" y="5" width="34" height="23"><path d="M31.8 7a2 2 0 0 1 3.8 0h.57a2 2 0 0 1 3.83.67l.22.1a2 2 0 0 1 3.13 2.3l.15.17a2 2 0 0 1 1.77 3.41c.05.16.09.31.12.47a2 2 0 0 1 .02 3.75l-.05.32a2 2 0 0 1-.02 3.63 2 2 0 0 1 .16.85 1.8 1.8 0 0 1-1.22 2.92L44 27.5c-.44-.66-.84-1.48-1.2-2.46a1.8 1.8 0 0 1-.45-.8 2 2 0 0 1-.56-2.68l-.02-.1a2 2 0 0 1-.96-2.94 2 2 0 0 1-2.44-.32 2 2 0 0 1-3.72.06l-.31.03a2 2 0 0 1-3.58.2h-.23a2 2 0 0 1-3.52-.1l-.4-.03a2 2 0 0 1-3.68-.17 2 2 0 0 1-3.04-.22l-.03.16a2 2 0 0 1-.7 3.35 2 2 0 0 1-1.4 3.1c-.5.97-1.09 1.94-1.76 2.9l-.19-1.92a1.8 1.8 0 0 1-.34-3.47V22a2 2 0 0 1-.39-3.9l-.01-.14a2 2 0 0 1 .07-3.92c0-.06.02-.12.04-.17a2 2 0 0 1 1.46-3.63A2 2 0 0 1 19.7 7.9v-.1a2 2 0 0 1 3.84-.8h.05a2 2 0 0 1 3.82 0h.18a2 2 0 0 1 3.82 0h.38Z" fill="#fff"/></mask><g mask="url(#hairCurlyHighTop-a)"><path fill="#fff" d="M13 5h34v23H13z" style="mix-blend-mode:overlay" opacity=".26"/></g></g><g transform="translate(11 44)"><path d="M16 5v3a5 5 0 0 0 10 0V5l6.65 2.05a9 9 0 0 1 6.35 8.6V20H3v-4.35a9 9 0 0 1 6.35-8.6L16 5Z" fill="#54d7c7"/></g><g transform="translate(23 36)"><path d="M7.32 5.73a.75.75 0 0 1 .36-1.46c2.44.61 4.17.32 5.29-.8a.75.75 0 1 1 1.06 1.06c-1.54 1.54-3.81 1.92-6.71 1.2Z" fill="#1B0640"/></g><g transform="translate(24 28)"><path d="M4.25 5a.75.75 0 0 1 1.5 0c0 .84.91 1.75 2.25 1.75 1.34 0 2.25-.91 2.25-1.75a.75.75 0 0 1 1.5 0c0 1.66-1.59 3.25-3.75 3.25S4.25 6.66 4.25 5Z" fill="#000" style="mix-blend-mode:overlay" opacity=".36"/></g><g transform="translate(14 26)"><path d="m12.47 9.46 2.43-.83A2.5 2.5 0 0 1 18 10a2.5 2.5 0 0 1 3.1-1.37l2.43.83A18.65 18.65 0 0 0 32 2.7V9A14 14 0 1 1 4 9V2.7c2.05 2.94 5 5.43 8.47 6.76Z" fill="#f27d65"/><mask id="facialHairBeardMustache-a" style="mask-type:luminance" maskUnits="userSpaceOnUse" x="4" y="2" width="28" height="21"><path d="m12.47 9.46 2.43-.83A2.5 2.5 0 0 1 18 10a2.5 2.5 0 0 1 3.1-1.37l2.43.83A18.65 18.65 0 0 0 32 2.7V9A14 14 0 1 1 4 9V2.7c2.05 2.94 5 5.43 8.47 6.76Z" fill="#fff"/></mask><g mask="url(#facialHairBeardMustache-a)"><path d="M32 9V2.7c-2.05 2.94-5 5.43-8.47 6.76l2.8.96a1 1 0 0 1-.07 1.91l-5.08 1.3A2.71 2.71 0 0 1 18 12.05a2.72 2.72 0 0 1-3.18 1.58l-5.08-1.3a1 1 0 0 1-.08-1.91l2.81-.96A18.65 18.65 0 0 1 4 2.7V9a14 14 0 1 0 28 0Z" fill="#fff" style="mix-blend-mode:overlay" opacity=".26"/><path d="M22 13.42v.08a3 3 0 0 1-3 3h-2a3 3 0 0 1-3-3.08l.82.21A2.71 2.71 0 0 0 18 12.05a2.72 2.72 0 0 0 3.18 1.58l.82-.2Z" fill="#FFFEFD"/></g></g></g></svg>