<svg xmlns="http://www.w3.org/2000/svg" viewBox="0 0 64 64" fill="none" shape-rendering="auto"><metadata xmlns:rdf="http://www.w3.org/1999/02/22-rdf-syntax-ns#" xmlns:xsi="http://www.w3.org/2001/XMLSchema-instance" xmlns:dc="http://purl.org/dc/elements/1.1/" xmlns:dcterms="http://purl.org/dc/terms/"><rdf:RDF><rdf:Description><dc:title>Personas by Draftbit</dc:title><dc:creator>Draftbit - draftbit.com</dc:creator><dc:source xsi:type="dcterms:URI">https://personas.draftbit.com/</dc:source><dcterms:license xsi:type="dcterms:URI">https://creativecommons.org/licenses/by/4.0/</dcterms:license><dc:rights>Remix of „Personas by Draftbit” (https://personas.draftbit.com/) by „Draftbit - draftbit.com”, licensed under „CC BY 4.0” (https://creativecommons.org/licenses/by/4.0/)</dc:rights></rdf:Description></rdf:RDF></metadata><mask id="viewboxMask"><rect width="64" height="64" rx="0" ry="0" x="0" y="0" fill="#fff" /></mask><g mask="url(#viewboxMask)"><rect fill="url(#backgroundLinear)" width="64" height="64" x="0" y="0" /><defs><linearGradient id="backgroundLinear" gradientTransform="rotate(138 0.5 0.5)"><stop stop-color="#ffd5dc"/><stop offset="1" stop-color="#ffe0b2"/></linearGradient></defs><path d="M37 46.08V52a5 5 0 0 1-10 0v-5.92A14.04 14.04 0 0 1 18.58 37h-.08a4.5 4.5 0 0 1-.5-8.97V27a14 14 0 1 1 28 0v1.03a4.5 4.5 0 0 1-.58 8.97A14.04 14.04 0 0 1 37 46.08Z" fill="#623d36"/><mask id="personas-a" style="mask-type:luminance" maskUnits="userSpaceOnUse" x="14" y="13" width="36" height="44"><path d="M37 46.08V52a5 5 0 0 1-10 0v-5.92A14.04 14.04 0 0 1 18.58 37h-.08a4.5 4.5 0 0 1-.5-8.97V27a14 14 0 1 1 28 0v1.03a4.5 4.5 0 0 1-.58 8.97A14.04 14.04 0 0 1 37 46.08Z" fill="#fff"/></mask><g mask="url(#personas-a)"><path d="M32 13a14 14 0 0 1 14 14v6a14 14 0 1 1-28 0v-6a14 14 0 0 1 14-14Z" fill="#fff" style="mix-blend-mode:overlay" opacity=".36"/></g><g transform="translate(20 24)"><path d="M3.76 6.21c.4.13.82-.08.95-.47.23-.7.62-1 1.3-1 .66 0 1.05.3 1.28 1a.75.75 0 1 0 1.42-.48c-.43-1.3-1.38-2.01-2.7-2.01-1.34 0-2.29.71-2.72 2.01-.13.4.08.82.47.95ZM15.76 6.21c.4.13.82-.08.95-.47.23-.7.62-1 1.29-1s1.06.3 1.29 1a.75.75 0 1 0 1.42-.48c-.43-1.3-1.38-2.01-2.71-2.01s-2.28.71-2.71 2.01c-.13.4.08.82.47.95Z" fill="#1B0640"/></g><g transform="translate(2 2)"><path d="m15.79 25.56-.71-6.6A9 9 0 0 1 24.03 9H41c0 1.28-.26 2.51-.74 3.63a7.93 7.93 0 0 1 4.6 8.35L44 27v4.22a14 14 0 0 1-.48 3.42l-2.52.54A1 1 0 0 1 39.8 34l1.9-9.12c-1.57-2.09-2.68-5.24-3.31-9.44a9.24 9.24 0 0 1-5.7 2.77c-1.82.2-3.39.29-4.7.29-3 0-5.67-.5-8-1.5 0 2.6-.67 5.1-2 7.52L19.98 34a1 1 0 0 1-1.2 1.18l-2.51-.54a14 14 0 0 1-.48-3.42v-5.66Z" fill="#e16381"/><path fill-rule="evenodd" clip-rule="evenodd" d="M19.98 34 18 24.52c1.33-2.42 2-4.93 2-7.52 2.33 1 5 1.5 8 1.5 1.31 0 2.88-.1 4.7-.29A9.24 9.24 0 0 0 41 9H24.03a9 9 0 0 0-8.95 9.97l.7 6.59v5.66a14 14 0 0 0 .49 3.42l2.52.54A1 1 0 0 0 19.98 34ZM44 31.22V27l.86-6.02.02-.14a7.91 7.91 0 0 0-2.42-6.73 9.29 9.29 0 0 1-3.45 4.5 17.22 17.22 0 0 0 2.7 6.27L39.8 34A1 1 0 0 0 41 35.18l2.52-.54a14 14 0 0 0 .48-3.42Z" fill="#fff" style="mix-blend-mode:overlay" opacity=".26"/></g><g transform="translate(11 44)"><path d="M16 5v3a5 5 0 0 0 10 0V5l6.65 2.05a9 9 0 0 1 6.35 8.6V20H3v-4.35a9 9 0 0 1 6.35-8.6L16 5Z" fill="#456dff"/></g><g transform="translate(23 36)"><path d="M5 5.87a1 1 0 1 1 1-1.74A6 6 0 0 0 9 5a6 6 0 0 0 3-.87 1 1 0 1 1 1 1.74A8 8 0 0 1 9 7a8 8 0 0 1-4-1.13Z" fill="#1B0640"/></g><g transform="translate(24 28)"><path d="M5.29 6.24a.75.75 0 1 1 1.42-.48c.23.7.62 1 1.3 1 .66 0 1.05-.3 1.28-1a.75.75 0 1 1 1.42.48c-.42 1.3-1.37 2.01-2.7 2.01S5.72 7.54 5.3 6.24Z" fill="#000" style="mix-blend-mode:overlay" opacity=".36"/></g><g transform="translate(14 26)"></g></g></svg>