<svg xmlns="http://www.w3.org/2000/svg" viewBox="0 0 64 64" fill="none" shape-rendering="auto"><metadata xmlns:rdf="http://www.w3.org/1999/02/22-rdf-syntax-ns#" xmlns:xsi="http://www.w3.org/2001/XMLSchema-instance" xmlns:dc="http://purl.org/dc/elements/1.1/" xmlns:dcterms="http://purl.org/dc/terms/"><rdf:RDF><rdf:Description><dc:title>Personas by Draftbit</dc:title><dc:creator>Draftbit - draftbit.com</dc:creator><dc:source xsi:type="dcterms:URI">https://personas.draftbit.com/</dc:source><dcterms:license xsi:type="dcterms:URI">https://creativecommons.org/licenses/by/4.0/</dcterms:license><dc:rights>Remix of „Personas by Draftbit” (https://personas.draftbit.com/) by „Draftbit - draftbit.com”, licensed under „CC BY 4.0” (https://creativecommons.org/licenses/by/4.0/)</dc:rights></rdf:Description></rdf:RDF></metadata><mask id="viewboxMask"><rect width="64" height="64" rx="0" ry="0" x="0" y="0" fill="#fff" /></mask><g mask="url(#viewboxMask)"><rect fill="url(#backgroundLinear)" width="64" height="64" x="0" y="0" /><defs><linearGradient id="backgroundLinear" gradientTransform="rotate(144 0.5 0.5)"><stop stop-color="#c8e6c9"/><stop offset="1" stop-color="#ffdfbf"/></linearGradient></defs><path d="M37 46.08V52a5 5 0 0 1-10 0v-5.92A14.04 14.04 0 0 1 18.58 37h-.08a4.5 4.5 0 0 1-.5-8.97V27a14 14 0 1 1 28 0v1.03a4.5 4.5 0 0 1-.58 8.97A14.04 14.04 0 0 1 37 46.08Z" fill="#b16a5b"/><mask id="personas-a" style="mask-type:luminance" maskUnits="userSpaceOnUse" x="14" y="13" width="36" height="44"><path d="M37 46.08V52a5 5 0 0 1-10 0v-5.92A14.04 14.04 0 0 1 18.58 37h-.08a4.5 4.5 0 0 1-.5-8.97V27a14 14 0 1 1 28 0v1.03a4.5 4.5 0 0 1-.58 8.97A14.04 14.04 0 0 1 37 46.08Z" fill="#fff"/></mask><g mask="url(#personas-a)"><path d="M32 13a14 14 0 0 1 14 14v6a14 14 0 1 1-28 0v-6a14 14 0 0 1 14-14Z" fill="#fff" style="mix-blend-mode:overlay" opacity=".36"/></g><g transform="translate(20 24)"><path d="M3.63 4A1 1 0 0 0 4 5.37 4.5 4.5 0 0 0 6.25 6a4.5 4.5 0 0 0 2.25-.63 1 1 0 0 0-1-1.74c-.43.25-.85.37-1.25.37S5.43 3.88 5 3.63A1 1 0 0 0 3.63 4ZM15.63 4A1 1 0 0 0 16 5.37a4.5 4.5 0 0 0 2.25.63 4.5 4.5 0 0 0 2.25-.63 1 1 0 0 0-1-1.74 2.5 2.5 0 0 1-1.25.37c-.4 0-.82-.12-1.25-.37a1 1 0 0 0-1.37.37Z" fill="#1B0640"/></g><g transform="translate(2 2)"><mask id="hairFade-b" style="mask-type:alpha" maskUnits="userSpaceOnUse" x="16" y="12" width="28" height="15"><path fill-rule="evenodd" clip-rule="evenodd" d="M16 27v-2a14 14 0 0 1 7.5-12.4v.14c.09 1.68.16 3.3-.4 4.53-.7 1.57-1.78 2.45-2.72 3.21l-.62.52c-.7.61-2.44 2.49-3.76 6Zm28 0v-2a14 14 0 0 0-7.5-12.4v.14c-.09 1.68-.16 3.3.4 4.53.7 1.57 1.78 2.45 2.72 3.21l.62.52c.7.61 2.44 2.49 3.76 6Z" fill="url(#hairFade-a)"/></mask><g mask="url(#hairFade-b)"><path fill-rule="evenodd" clip-rule="evenodd" d="m16 27-.2-14.4h7.7l.06 14.4H16Zm20.72 0H44l-.07-14.4H36.5l.22 14.4Z" fill="#f29c65"/></g><path d="M22.3 17.95c0-3.6 2.72-6.63 6.3-7L38 10a6.84 6.84 0 0 1-6.49 9h-8.15c-.58 0-1.05-.47-1.05-1.05Z" fill="#f29c65"/><defs><linearGradient id="hairFade-a" x1="16" y1="12.6" x2="16" y2="27" gradientUnits="userSpaceOnUse"><stop/><stop offset="1" stop-opacity=".01"/></linearGradient></defs></g><g transform="translate(11 44)"><path d="M16 5v3a5 5 0 0 0 10 0V5l6.65 2.05a9 9 0 0 1 6.35 8.6V20H3v-4.35a9 9 0 0 1 6.35-8.6L16 5Z" fill="#f55d81"/></g><g transform="translate(23 36)"><path d="M6 3h6v1a3 3 0 0 1-6 0V3Z" fill="#fff"/></g><g transform="translate(24 28)"><path opacity=".12" fill-rule="evenodd" clip-rule="evenodd" d="M11.72 5.3c.21.73.27 1.38.2 1.95a20.24 20.24 0 0 1 2.12 4.41.5.5 0 1 0 .94-.32 21.23 21.23 0 0 0-3.4-6.3c.07.07.11.16.14.25Zm-7.44 0a.75.75 0 0 1 .11-.24 28.75 28.75 0 0 0-2.07 3.22c-.48.89-.9 1.9-1.3 3.06a.5.5 0 0 0 .94.32 20.24 20.24 0 0 1 2.12-4.4 4.77 4.77 0 0 1 .19-1.97Z" fill="#000"/><path d="M5.2 4.78a.75.75 0 0 0-.92.51c-.21.75-.27 1.4-.2 1.97.23 1.6 1.6 2.49 3.92 2.49 2.33 0 3.7-.89 3.92-2.5.07-.57.01-1.22-.2-1.96a.75.75 0 1 0-1.44.42c.52 1.83-.09 2.54-2.28 2.54-2.2 0-2.8-.71-2.28-2.54a.75.75 0 0 0-.51-.93Z" fill="#000" style="mix-blend-mode:overlay" opacity=".36"/></g><g transform="translate(14 26)"></g></g></svg>