<svg xmlns="http://www.w3.org/2000/svg" viewBox="0 0 64 64" fill="none" shape-rendering="auto"><metadata xmlns:rdf="http://www.w3.org/1999/02/22-rdf-syntax-ns#" xmlns:xsi="http://www.w3.org/2001/XMLSchema-instance" xmlns:dc="http://purl.org/dc/elements/1.1/" xmlns:dcterms="http://purl.org/dc/terms/"><rdf:RDF><rdf:Description><dc:title>Personas by Draftbit</dc:title><dc:creator>Draftbit - draftbit.com</dc:creator><dc:source xsi:type="dcterms:URI">https://personas.draftbit.com/</dc:source><dcterms:license xsi:type="dcterms:URI">https://creativecommons.org/licenses/by/4.0/</dcterms:license><dc:rights>Remix of „Personas by Draftbit” (https://personas.draftbit.com/) by „Draftbit - draftbit.com”, licensed under „CC BY 4.0” (https://creativecommons.org/licenses/by/4.0/)</dc:rights></rdf:Description></rdf:RDF></metadata><mask id="viewboxMask"><rect width="64" height="64" rx="0" ry="0" x="0" y="0" fill="#fff" /></mask><g mask="url(#viewboxMask)"><rect fill="url(#backgroundLinear)" width="64" height="64" x="0" y="0" /><defs><linearGradient id="backgroundLinear" gradientTransform="rotate(286 0.5 0.5)"><stop stop-color="#ffd5dc"/><stop offset="1" stop-color="#ffdfbf"/></linearGradient></defs><path d="M37 46.08V52a5 5 0 0 1-10 0v-5.92A14.04 14.04 0 0 1 18.58 37h-.08a4.5 4.5 0 0 1-.5-8.97V27a14 14 0 1 1 28 0v1.03a4.5 4.5 0 0 1-.58 8.97A14.04 14.04 0 0 1 37 46.08Z" fill="#92594b"/><mask id="personas-a" style="mask-type:luminance" maskUnits="userSpaceOnUse" x="14" y="13" width="36" height="44"><path d="M37 46.08V52a5 5 0 0 1-10 0v-5.92A14.04 14.04 0 0 1 18.58 37h-.08a4.5 4.5 0 0 1-.5-8.97V27a14 14 0 1 1 28 0v1.03a4.5 4.5 0 0 1-.58 8.97A14.04 14.04 0 0 1 37 46.08Z" fill="#fff"/></mask><g mask="url(#personas-a)"><path d="M32 13a14 14 0 0 1 14 14v6a14 14 0 1 1-28 0v-6a14 14 0 0 1 14-14Z" fill="#fff" style="mix-blend-mode:overlay" opacity=".36"/></g><g transform="translate(20 24)"><path d="M4 4.5a1.5 1.5 0 1 0 3 0 1.5 1.5 0 0 0-3 0ZM21.24 3.9a.75.75 0 0 0-.83-.64l-4 .5a.75.75 0 0 0 .18 1.48l4-.5c.41-.05.7-.42.65-.83Z" fill="#1B0640"/></g><g transform="translate(2 2)"><path d="M40.26 12.63a7.93 7.93 0 0 1 4.6 8.35L44 27c-2.83-1.7-4.7-5.55-5.6-11.56a9.24 9.24 0 0 1-5.7 2.77c-1.82.2-3.39.29-4.7.29-3 0-5.67-.5-8-1.5 0 3.67-1.33 7.17-4 10.5l-.92-8.53A9 9 0 0 1 24.03 9H41c0 1.28-.26 2.51-.74 3.63Z" fill="#362c47"/><path d="M40.26 12.63c.48-1.12.74-2.35.74-3.63H24.03a9 9 0 0 0-8.95 9.97L16 27.5c2.67-3.33 4-6.83 4-10.5 2.33 1 5 1.5 8 1.5 1.31 0 2.88-.1 4.7-.29a9.24 9.24 0 0 0 7.56-5.58ZM44.88 20.84a7.91 7.91 0 0 0-2.42-6.73 9.29 9.29 0 0 1-3.45 4.5c1.04 4.22 2.7 7.01 5 8.39l.85-6.02.02-.14Z" style="mix-blend-mode:overlay" opacity=".26" fill="#fff"/></g><g transform="translate(11 44)"><path d="M16 5v3a5 5 0 0 0 10 0V5l6.65 2.05a9 9 0 0 1 6.35 8.6V20H3v-4.35a9 9 0 0 1 6.35-8.6L16 5Z" fill="#f3b63a"/><path d="m11 6.54-1.65.5A9 9 0 0 0 7 8.17V20h4V6.54ZM15 20h4v-5.29a7.02 7.02 0 0 1-4-3.1V20ZM23 20h4v-8.4a7.02 7.02 0 0 1-4 3.11v5.3ZM31 20h4V8.16a9 9 0 0 0-2.35-1.12L31 6.55V20Z" style="mix-blend-mode:overlay" opacity=".4" fill="#000"/><path d="M3.4 13a9.01 9.01 0 0 1 2.53-4h8.14a6.98 6.98 0 0 0 2.03 4H3.4ZM39 17v3H3v-3h36ZM36.07 9a9.01 9.01 0 0 1 2.53 4H25.9a6.98 6.98 0 0 0 2.03-4h8.14Z" style="mix-blend-mode:lighten" opacity=".17" fill="#fff"/></g><g transform="translate(23 36)"><path d="M7.32 5.73a.75.75 0 0 1 .36-1.46c2.44.61 4.17.32 5.29-.8a.75.75 0 1 1 1.06 1.06c-1.54 1.54-3.81 1.92-6.71 1.2Z" fill="#1B0640"/></g><g transform="translate(24 28)"><path opacity=".12" fill-rule="evenodd" clip-rule="evenodd" d="M11.72 5.3c.21.73.27 1.38.2 1.95a20.24 20.24 0 0 1 2.12 4.41.5.5 0 1 0 .94-.32 21.23 21.23 0 0 0-3.4-6.3c.07.07.11.16.14.25Zm-7.44 0a.75.75 0 0 1 .11-.24 28.75 28.75 0 0 0-2.07 3.22c-.48.89-.9 1.9-1.3 3.06a.5.5 0 0 0 .94.32 20.24 20.24 0 0 1 2.12-4.4 4.77 4.77 0 0 1 .19-1.97Z" fill="#000"/><path d="M5.2 4.78a.75.75 0 0 0-.92.51c-.21.75-.27 1.4-.2 1.97.23 1.6 1.6 2.49 3.92 2.49 2.33 0 3.7-.89 3.92-2.5.07-.57.01-1.22-.2-1.96a.75.75 0 1 0-1.44.42c.52 1.83-.09 2.54-2.28 2.54-2.2 0-2.8-.71-2.28-2.54a.75.75 0 0 0-.51-.93Z" fill="#000" style="mix-blend-mode:overlay" opacity=".36"/></g><g transform="translate(14 26)"></g></g></svg>