<svg xmlns="http://www.w3.org/2000/svg" viewBox="0 0 64 64" fill="none" shape-rendering="auto"><metadata xmlns:rdf="http://www.w3.org/1999/02/22-rdf-syntax-ns#" xmlns:xsi="http://www.w3.org/2001/XMLSchema-instance" xmlns:dc="http://purl.org/dc/elements/1.1/" xmlns:dcterms="http://purl.org/dc/terms/"><rdf:RDF><rdf:Description><dc:title>Personas by Draftbit</dc:title><dc:creator>Draftbit - draftbit.com</dc:creator><dc:source xsi:type="dcterms:URI">https://personas.draftbit.com/</dc:source><dcterms:license xsi:type="dcterms:URI">https://creativecommons.org/licenses/by/4.0/</dcterms:license><dc:rights>Remix of „Personas by Draftbit” (https://personas.draftbit.com/) by „Draftbit - draftbit.com”, licensed under „CC BY 4.0” (https://creativecommons.org/licenses/by/4.0/)</dc:rights></rdf:Description></rdf:RDF></metadata><mask id="viewboxMask"><rect width="64" height="64" rx="0" ry="0" x="0" y="0" fill="#fff" /></mask><g mask="url(#viewboxMask)"><rect fill="url(#backgroundLinear)" width="64" height="64" x="0" y="0" /><defs><linearGradient id="backgroundLinear" gradientTransform="rotate(92 0.5 0.5)"><stop stop-color="#c8e6c9"/><stop offset="1" stop-color="#d1d4f9"/></linearGradient></defs><path d="M37 46.08V52a5 5 0 0 1-10 0v-5.92A14.04 14.04 0 0 1 18.58 37h-.08a4.5 4.5 0 0 1-.5-8.97V27a14 14 0 1 1 28 0v1.03a4.5 4.5 0 0 1-.58 8.97A14.04 14.04 0 0 1 37 46.08Z" fill="#eeb4a4"/><mask id="personas-a" style="mask-type:luminance" maskUnits="userSpaceOnUse" x="14" y="13" width="36" height="44"><path d="M37 46.08V52a5 5 0 0 1-10 0v-5.92A14.04 14.04 0 0 1 18.58 37h-.08a4.5 4.5 0 0 1-.5-8.97V27a14 14 0 1 1 28 0v1.03a4.5 4.5 0 0 1-.58 8.97A14.04 14.04 0 0 1 37 46.08Z" fill="#fff"/></mask><g mask="url(#personas-a)"><path d="M32 13a14 14 0 0 1 14 14v6a14 14 0 1 1-28 0v-6a14 14 0 0 1 14-14Z" fill="#fff" style="mix-blend-mode:overlay" opacity=".36"/></g><g transform="translate(20 24)"><path d="M4 4.5a1.5 1.5 0 1 0 3 0 1.5 1.5 0 0 0-3 0ZM21.24 3.9a.75.75 0 0 0-.83-.64l-4 .5a.75.75 0 0 0 .18 1.48l4-.5c.41-.05.7-.42.65-.83Z" fill="#1B0640"/></g><g transform="translate(2 2)"><path fill-rule="evenodd" clip-rule="evenodd" d="M44 26a17.63 17.63 0 0 1-3.35-5.6A32.92 32.92 0 0 1 30 22.04c-4.85 0-9.14-.83-12.9-2.5A13.95 13.95 0 0 0 16 25v1.03c-.73.08-1.42.34-2 .73v-1.38C14 16.33 21.16 9 30 9s16 7.33 16 16.38v1.38a4.47 4.47 0 0 0-2-.73V26Zm-9 20.06v-1.98A14.04 14.04 0 0 0 43.42 35h.08c.93 0 1.78-.28 2.5-.76v6.38c0 .47-.02.95-.06 1.41A34.63 34.63 0 0 1 35 46.06Zm-20.94-4.03A34.63 34.63 0 0 0 25 46.06v-1.98A14.04 14.04 0 0 1 16.58 35h-.08c-.93 0-1.79-.28-2.5-.76v6.38c0 .47.02.95.06 1.41Z" fill="#f29c65"/><path d="M30 9c-8.84 0-16 7.33-16 16.38v1.38c.58-.4 1.27-.65 2-.73V25c0-1.94.4-3.8 1.1-5.47a31.35 31.35 0 0 0 12.9 2.5c3.9 0 7.46-.54 10.65-1.62A17.63 17.63 0 0 0 44 26v.03c.73.08 1.42.34 2 .73v-1.38C46 16.33 38.84 9 30 9Z" fill="#fff" style="mix-blend-mode:overlay" opacity=".26"/></g><g transform="translate(11 44)"><path d="M32 20H10v-8a11 11 0 0 1 6-9.8V4a5 5 0 0 0 10 0V2.2a11 11 0 0 1 6 9.8v8Z" fill="#f55d81"/><mask id="bodySmall-a" style="mask-type:luminance" maskUnits="userSpaceOnUse" x="10" y="2" width="22" height="18"><path d="M32 20H10v-8a11 11 0 0 1 6-9.8V4a5 5 0 0 0 10 0V2.2a11 11 0 0 1 6 9.8v8Z" fill="#fff"/></mask><g mask="url(#bodySmall-a)"><path opacity=".14" d="M20.62 8.25 22 8l1.2.5L10 15l10.62-6.75Z" fill="#000"/><path d="M21 1h11v47H10V15l13.34-6.58L21 1Z" fill="#fff" style="mix-blend-mode:overlay" opacity=".26"/></g></g><g transform="translate(23 36)"><path d="M5 5h8s-1 2.5-4 2.5S5 5 5 5Z" fill="#DC5C7A"/><path d="M5.39 4.22A2.1 2.1 0 0 1 9 4a2.1 2.1 0 0 1 3.61.22l.4.78H4.99l.39-.78Z" fill="#F57B98"/></g><g transform="translate(24 28)"><path d="M4.25 5a.75.75 0 0 1 1.5 0c0 .84.91 1.75 2.25 1.75 1.34 0 2.25-.91 2.25-1.75a.75.75 0 0 1 1.5 0c0 1.66-1.59 3.25-3.75 3.25S4.25 6.66 4.25 5Z" fill="#000" style="mix-blend-mode:overlay" opacity=".36"/></g><g transform="translate(14 26)"></g></g></svg>