<svg xmlns="http://www.w3.org/2000/svg" viewBox="0 0 64 64" fill="none" shape-rendering="auto"><metadata xmlns:rdf="http://www.w3.org/1999/02/22-rdf-syntax-ns#" xmlns:xsi="http://www.w3.org/2001/XMLSchema-instance" xmlns:dc="http://purl.org/dc/elements/1.1/" xmlns:dcterms="http://purl.org/dc/terms/"><rdf:RDF><rdf:Description><dc:title>Personas by Draftbit</dc:title><dc:creator>Draftbit - draftbit.com</dc:creator><dc:source xsi:type="dcterms:URI">https://personas.draftbit.com/</dc:source><dcterms:license xsi:type="dcterms:URI">https://creativecommons.org/licenses/by/4.0/</dcterms:license><dc:rights>Remix of „Personas by Draftbit” (https://personas.draftbit.com/) by „Draftbit - draftbit.com”, licensed under „CC BY 4.0” (https://creativecommons.org/licenses/by/4.0/)</dc:rights></rdf:Description></rdf:RDF></metadata><mask id="viewboxMask"><rect width="64" height="64" rx="0" ry="0" x="0" y="0" fill="#fff" /></mask><g mask="url(#viewboxMask)"><rect fill="url(#backgroundLinear)" width="64" height="64" x="0" y="0" /><defs><linearGradient id="backgroundLinear" gradientTransform="rotate(128 0.5 0.5)"><stop stop-color="#ffdfbf"/><stop offset="1" stop-color="#c0aede"/></linearGradient></defs><path d="M37 46.08V52a5 5 0 0 1-10 0v-5.92A14.04 14.04 0 0 1 18.58 37h-.08a4.5 4.5 0 0 1-.5-8.97V27a14 14 0 1 1 28 0v1.03a4.5 4.5 0 0 1-.58 8.97A14.04 14.04 0 0 1 37 46.08Z" fill="#b16a5b"/><mask id="personas-a" style="mask-type:luminance" maskUnits="userSpaceOnUse" x="14" y="13" width="36" height="44"><path d="M37 46.08V52a5 5 0 0 1-10 0v-5.92A14.04 14.04 0 0 1 18.58 37h-.08a4.5 4.5 0 0 1-.5-8.97V27a14 14 0 1 1 28 0v1.03a4.5 4.5 0 0 1-.58 8.97A14.04 14.04 0 0 1 37 46.08Z" fill="#fff"/></mask><g mask="url(#personas-a)"><path d="M32 13a14 14 0 0 1 14 14v6a14 14 0 1 1-28 0v-6a14 14 0 0 1 14-14Z" fill="#fff" style="mix-blend-mode:overlay" opacity=".36"/></g><g transform="translate(20 24)"><path d="M3.76 6.21c.4.13.82-.08.95-.47.23-.7.62-1 1.3-1 .66 0 1.05.3 1.28 1a.75.75 0 1 0 1.42-.48c-.43-1.3-1.38-2.01-2.7-2.01-1.34 0-2.29.71-2.72 2.01-.13.4.08.82.47.95ZM15.76 6.21c.4.13.82-.08.95-.47.23-.7.62-1 1.29-1s1.06.3 1.29 1a.75.75 0 1 0 1.42-.48c-.43-1.3-1.38-2.01-2.71-2.01s-2.28.71-2.71 2.01c-.13.4.08.82.47.95Z" fill="#1B0640"/></g><g transform="translate(2 2)"><path d="M26.75 15a.75.75 0 1 0 0-1.5.75.75 0 0 0 0 1.5ZM19.38 21.77c.37.19.82.04 1-.33a15.05 15.05 0 0 1 2-3.06c.76-.88 1.63-1.62 2.63-2.2a.75.75 0 0 0-.75-1.3 11.86 11.86 0 0 0-3 2.52c-.85.99-1.58 2.11-2.2 3.37a.75.75 0 0 0 .33 1Z" style="mix-blend-mode:overlay" opacity=".2" fill="#fff"/></g><g transform="translate(11 44)"><path d="M16 7v.47a5 5 0 1 0 10 0V7c7.06 1.52 12.93 6.74 16 13H0C3.07 13.74 8.94 8.52 16 7Z" fill="#54d7c7"/></g><g transform="translate(23 36)"><path d="M5 4.13a1 1 0 1 0 1 1.74A6 6 0 0 1 9 5a6 6 0 0 1 3 .87 1 1 0 1 0 1-1.74A8 8 0 0 0 9 3a8 8 0 0 0-4 1.13Z" fill="#1B0640"/></g><g transform="translate(24 28)"><path d="M4.25 5a.75.75 0 0 1 1.5 0c0 .84.91 1.75 2.25 1.75 1.34 0 2.25-.91 2.25-1.75a.75.75 0 0 1 1.5 0c0 1.66-1.59 3.25-3.75 3.25S4.25 6.66 4.25 5Z" fill="#000" style="mix-blend-mode:overlay" opacity=".36"/></g><g transform="translate(14 26)"></g></g></svg>