<svg xmlns="http://www.w3.org/2000/svg" viewBox="0 0 64 64" fill="none" shape-rendering="auto"><metadata xmlns:rdf="http://www.w3.org/1999/02/22-rdf-syntax-ns#" xmlns:xsi="http://www.w3.org/2001/XMLSchema-instance" xmlns:dc="http://purl.org/dc/elements/1.1/" xmlns:dcterms="http://purl.org/dc/terms/"><rdf:RDF><rdf:Description><dc:title>Personas by Draftbit</dc:title><dc:creator>Draftbit - draftbit.com</dc:creator><dc:source xsi:type="dcterms:URI">https://personas.draftbit.com/</dc:source><dcterms:license xsi:type="dcterms:URI">https://creativecommons.org/licenses/by/4.0/</dcterms:license><dc:rights>Remix of „Personas by Draftbit” (https://personas.draftbit.com/) by „Draftbit - draftbit.com”, licensed under „CC BY 4.0” (https://creativecommons.org/licenses/by/4.0/)</dc:rights></rdf:Description></rdf:RDF></metadata><mask id="viewboxMask"><rect width="64" height="64" rx="0" ry="0" x="0" y="0" fill="#fff" /></mask><g mask="url(#viewboxMask)"><rect fill="url(#backgroundLinear)" width="64" height="64" x="0" y="0" /><defs><linearGradient id="backgroundLinear" gradientTransform="rotate(145 0.5 0.5)"><stop stop-color="#c8e6c9"/><stop offset="1" stop-color="#d1d4f9"/></linearGradient></defs><path d="M37 46.08V52a5 5 0 0 1-10 0v-5.92A14.04 14.04 0 0 1 18.58 37h-.08a4.5 4.5 0 0 1-.5-8.97V27a14 14 0 1 1 28 0v1.03a4.5 4.5 0 0 1-.58 8.97A14.04 14.04 0 0 1 37 46.08Z" fill="#eeb4a4"/><mask id="personas-a" style="mask-type:luminance" maskUnits="userSpaceOnUse" x="14" y="13" width="36" height="44"><path d="M37 46.08V52a5 5 0 0 1-10 0v-5.92A14.04 14.04 0 0 1 18.58 37h-.08a4.5 4.5 0 0 1-.5-8.97V27a14 14 0 1 1 28 0v1.03a4.5 4.5 0 0 1-.58 8.97A14.04 14.04 0 0 1 37 46.08Z" fill="#fff"/></mask><g mask="url(#personas-a)"><path d="M32 13a14 14 0 0 1 14 14v6a14 14 0 1 1-28 0v-6a14 14 0 0 1 14-14Z" fill="#fff" style="mix-blend-mode:overlay" opacity=".36"/></g><g transform="translate(20 24)"><g fill="#1B0640"><path d="M6 6a1.5 1.5 0 1 0 0-3 1.5 1.5 0 0 0 0 3ZM18 6a1.5 1.5 0 1 0 0-3 1.5 1.5 0 0 0 0 3Z"/><path d="M9 2H3v6h6V2ZM21 2h-6v6h6V2Z" opacity=".8"/><path fill-rule="evenodd" clip-rule="evenodd" d="M13 1.05c.65 0 1.21-.2 1.84-.42C15.66.33 16.6 0 18 0c1.67 0 3.33.35 5 1.05l1 .53v1.58l-1 .52v3.16A3.08 3.08 0 0 1 20 10h-4c-1.66 0-3-1.41-3-3.16V3.16h-2v3.68A3.08 3.08 0 0 1 8 10H4c-1.66 0-3-1.41-3-3.16V3.68l-1-.52V1.58l1-.53A12.8 12.8 0 0 1 6 0c1.4 0 2.34.33 3.16.63.63.22 1.19.42 1.84.42h2ZM8.24 2.52A6.1 6.1 0 0 0 6 2.11c-1 0-2 .14-3 .44v4.3c0 .57.45 1.04 1 1.04h4c.55 0 1-.47 1-1.05V2.8l-.76-.27ZM15 2.8l.76-.27A6.1 6.1 0 0 1 18 2.11c1 0 2 .14 3 .44v4.3c0 .57-.45 1.04-1 1.04h-4c-.55 0-1-.47-1-1.05V2.8Z"/></g></g><g transform="translate(2 2)"><path fill-rule="evenodd" clip-rule="evenodd" d="M44 26c-1.8-2-3.13-4.5-3.97-7.47-1.87 2.28-4.55 3.6-8.03 3.97-5.83.61-10.82-.33-14.95-2.82A13.96 13.96 0 0 0 16 25v1.03c-.73.08-1.42.34-2 .73V25.5C14 16.39 21.16 9 30 9s16 7.39 16 16.5v1.26a4.47 4.47 0 0 0-2-.73V26Zm2 8.24v22.28H35V44.08A14.04 14.04 0 0 0 43.42 35h.08c.93 0 1.78-.28 2.5-.76ZM14 56.57h11.13L25 49.55v-5.47A14.04 14.04 0 0 1 16.58 35h-.08c-.93 0-1.79-.28-2.5-.76v22.33Z" fill="#362c47"/><path d="M40.03 18.53A18.47 18.47 0 0 0 44 26v.03c.73.08 1.42.34 2 .73V25.5C46 16.39 38.84 9 30 9s-16 7.39-16 16.5v1.26c.58-.4 1.27-.65 2-.73V25c0-1.88.37-3.68 1.05-5.32 4.13 2.5 9.12 3.43 14.95 2.82 3.48-.37 6.16-1.7 8.03-3.97Z" fill="#fff" style="mix-blend-mode:overlay" opacity=".26"/></g><g transform="translate(11 44)"><path d="M16 5v3a5 5 0 0 0 10 0V5l6.65 2.05a9 9 0 0 1 6.35 8.6V20H3v-4.35a9 9 0 0 1 6.35-8.6L16 5Z" fill="#6dbb58"/><path d="m11 6.54-1.65.5A9 9 0 0 0 7 8.17V20h4V6.54ZM15 20h4v-5.29a7.02 7.02 0 0 1-4-3.1V20ZM23 20h4v-8.4a7.02 7.02 0 0 1-4 3.11v5.3ZM31 20h4V8.16a9 9 0 0 0-2.35-1.12L31 6.55V20Z" style="mix-blend-mode:overlay" opacity=".4" fill="#000"/><path d="M3.4 13a9.01 9.01 0 0 1 2.53-4h8.14a6.98 6.98 0 0 0 2.03 4H3.4ZM39 17v3H3v-3h36ZM36.07 9a9.01 9.01 0 0 1 2.53 4H25.9a6.98 6.98 0 0 0 2.03-4h8.14Z" style="mix-blend-mode:lighten" opacity=".17" fill="#fff"/></g><g transform="translate(23 36)"><ellipse cx="9" cy="5" rx="2" ry="2.5" fill="#1B0640"/></g><g transform="translate(24 28)"><path d="M5.29 6.24a.75.75 0 1 1 1.42-.48c.23.7.62 1 1.3 1 .66 0 1.05-.3 1.28-1a.75.75 0 1 1 1.42.48c-.42 1.3-1.37 2.01-2.7 2.01S5.72 7.54 5.3 6.24Z" fill="#000" style="mix-blend-mode:overlay" opacity=".36"/></g><g transform="translate(14 26)"></g></g></svg>