<svg xmlns="http://www.w3.org/2000/svg" viewBox="0 0 64 64" fill="none" shape-rendering="auto"><metadata xmlns:rdf="http://www.w3.org/1999/02/22-rdf-syntax-ns#" xmlns:xsi="http://www.w3.org/2001/XMLSchema-instance" xmlns:dc="http://purl.org/dc/elements/1.1/" xmlns:dcterms="http://purl.org/dc/terms/"><rdf:RDF><rdf:Description><dc:title>Personas by Draftbit</dc:title><dc:creator>Draftbit - draftbit.com</dc:creator><dc:source xsi:type="dcterms:URI">https://personas.draftbit.com/</dc:source><dcterms:license xsi:type="dcterms:URI">https://creativecommons.org/licenses/by/4.0/</dcterms:license><dc:rights>Remix of „Personas by Draftbit” (https://personas.draftbit.com/) by „Draftbit - draftbit.com”, licensed under „CC BY 4.0” (https://creativecommons.org/licenses/by/4.0/)</dc:rights></rdf:Description></rdf:RDF></metadata><mask id="viewboxMask"><rect width="64" height="64" rx="0" ry="0" x="0" y="0" fill="#fff" /></mask><g mask="url(#viewboxMask)"><rect fill="url(#backgroundLinear)" width="64" height="64" x="0" y="0" /><defs><linearGradient id="backgroundLinear" gradientTransform="rotate(63 0.5 0.5)"><stop stop-color="#c0aede"/><stop offset="1" stop-color="#ffe0b2"/></linearGradient></defs><path d="M37 46.08V52a5 5 0 0 1-10 0v-5.92A14.04 14.04 0 0 1 18.58 37h-.08a4.5 4.5 0 0 1-.5-8.97V27a14 14 0 1 1 28 0v1.03a4.5 4.5 0 0 1-.58 8.97A14.04 14.04 0 0 1 37 46.08Z" fill="#623d36"/><mask id="personas-a" style="mask-type:luminance" maskUnits="userSpaceOnUse" x="14" y="13" width="36" height="44"><path d="M37 46.08V52a5 5 0 0 1-10 0v-5.92A14.04 14.04 0 0 1 18.58 37h-.08a4.5 4.5 0 0 1-.5-8.97V27a14 14 0 1 1 28 0v1.03a4.5 4.5 0 0 1-.58 8.97A14.04 14.04 0 0 1 37 46.08Z" fill="#fff"/></mask><g mask="url(#personas-a)"><path d="M32 13a14 14 0 0 1 14 14v6a14 14 0 1 1-28 0v-6a14 14 0 0 1 14-14Z" fill="#fff" style="mix-blend-mode:overlay" opacity=".36"/></g><g transform="translate(20 24)"><path d="M4 4.5a1.5 1.5 0 1 0 3 0 1.5 1.5 0 0 0-3 0ZM21.24 3.9a.75.75 0 0 0-.83-.64l-4 .5a.75.75 0 0 0 .18 1.48l4-.5c.41-.05.7-.42.65-.83Z" fill="#1B0640"/></g><g transform="translate(2 2)"><path opacity=".2" d="M30 17c3.88 0 7.55-.37 11 4.22l-1.9 6.5c-.61 1.22-1.64 1.55-2.46.79-2.1-1.92-4.3-2.88-6.64-2.88-2.33 0-4.55.96-6.64 2.89-.82.76-1.85.43-2.46-.8L19 21.22c3.45-4.6 7.12-4.22 11-4.22Z" fill="#000"/><path d="M27.3 11.2a3 3 0 0 1 5.4 0c6.1.96 10.82 5.24 11.3 12.72a27.7 27.7 0 0 0-3.96-1.3l-.94.6a2 2 0 0 1-2.46.46 13.86 13.86 0 0 0-13.28 0 2 2 0 0 1-2.46-.46l-.94-.6c-1.4.35-2.72.78-3.96 1.3.48-7.48 5.2-11.76 11.3-12.71Z" fill="#F29C65"/><path d="M19.96 22.62c-1.4.35-2.72.78-3.96 1.3C16.55 15.37 22.63 11 30 11s13.45 4.37 14 12.92a27.7 27.7 0 0 0-3.96-1.3L41 22c-3.45-2.67-7.12-4-11-4s-7.55 1.33-11 4l.96.62Z" fill="#000" style="mix-blend-mode:overlay" opacity=".28"/><path d="m39.45 23-.35.22a2 2 0 0 1-2.46.46 13.86 13.86 0 0 0-13.28 0 2 2 0 0 1-2.46-.46l-.35-.23c.87.07 2.19-.47 2.81-.81a13.86 13.86 0 0 1 13.28 0c.62.34 1.94.88 2.8.81Z" fill="#fff" style="mix-blend-mode:lighten" opacity=".2"/></g><g transform="translate(11 44)"><path d="M16 5v3a5 5 0 0 0 10 0V5l6.65 2.05a9 9 0 0 1 6.35 8.6V20H3v-4.35a9 9 0 0 1 6.35-8.6L16 5Z" fill="#f3b63a"/><path d="m11 6.54-1.65.5A9 9 0 0 0 7 8.17V20h4V6.54ZM15 20h4v-5.29a7.02 7.02 0 0 1-4-3.1V20ZM23 20h4v-8.4a7.02 7.02 0 0 1-4 3.11v5.3ZM31 20h4V8.16a9 9 0 0 0-2.35-1.12L31 6.55V20Z" style="mix-blend-mode:overlay" opacity=".4" fill="#000"/><path d="M3.4 13a9.01 9.01 0 0 1 2.53-4h8.14a6.98 6.98 0 0 0 2.03 4H3.4ZM39 17v3H3v-3h36ZM36.07 9a9.01 9.01 0 0 1 2.53 4H25.9a6.98 6.98 0 0 0 2.03-4h8.14Z" style="mix-blend-mode:lighten" opacity=".17" fill="#fff"/></g><g transform="translate(23 36)"><path d="M5 5.87a1 1 0 1 1 1-1.74A6 6 0 0 0 9 5a6 6 0 0 0 3-.87 1 1 0 1 1 1 1.74A8 8 0 0 1 9 7a8 8 0 0 1-4-1.13Z" fill="#1B0640"/></g><g transform="translate(24 28)"><path opacity=".12" fill-rule="evenodd" clip-rule="evenodd" d="M11.72 5.3c.21.73.27 1.38.2 1.95a20.24 20.24 0 0 1 2.12 4.41.5.5 0 1 0 .94-.32 21.23 21.23 0 0 0-3.4-6.3c.07.07.11.16.14.25Zm-7.44 0a.75.75 0 0 1 .11-.24 28.75 28.75 0 0 0-2.07 3.22c-.48.89-.9 1.9-1.3 3.06a.5.5 0 0 0 .94.32 20.24 20.24 0 0 1 2.12-4.4 4.77 4.77 0 0 1 .19-1.97Z" fill="#000"/><path d="M5.2 4.78a.75.75 0 0 0-.92.51c-.21.75-.27 1.4-.2 1.97.23 1.6 1.6 2.49 3.92 2.49 2.33 0 3.7-.89 3.92-2.5.07-.57.01-1.22-.2-1.96a.75.75 0 1 0-1.44.42c.52 1.83-.09 2.54-2.28 2.54-2.2 0-2.8-.71-2.28-2.54a.75.75 0 0 0-.51-.93Z" fill="#000" style="mix-blend-mode:overlay" opacity=".36"/></g><g transform="translate(14 26)"></g></g></svg>