<svg xmlns="http://www.w3.org/2000/svg" viewBox="0 0 64 64" fill="none" shape-rendering="auto"><metadata xmlns:rdf="http://www.w3.org/1999/02/22-rdf-syntax-ns#" xmlns:xsi="http://www.w3.org/2001/XMLSchema-instance" xmlns:dc="http://purl.org/dc/elements/1.1/" xmlns:dcterms="http://purl.org/dc/terms/"><rdf:RDF><rdf:Description><dc:title>Personas by Draftbit</dc:title><dc:creator>Draftbit - draftbit.com</dc:creator><dc:source xsi:type="dcterms:URI">https://personas.draftbit.com/</dc:source><dcterms:license xsi:type="dcterms:URI">https://creativecommons.org/licenses/by/4.0/</dcterms:license><dc:rights>Remix of „Personas by Draftbit” (https://personas.draftbit.com/) by „Draftbit - draftbit.com”, licensed under „CC BY 4.0” (https://creativecommons.org/licenses/by/4.0/)</dc:rights></rdf:Description></rdf:RDF></metadata><mask id="viewboxMask"><rect width="64" height="64" rx="0" ry="0" x="0" y="0" fill="#fff" /></mask><g mask="url(#viewboxMask)"><rect fill="url(#backgroundLinear)" width="64" height="64" x="0" y="0" /><defs><linearGradient id="backgroundLinear" gradientTransform="rotate(61 0.5 0.5)"><stop stop-color="#ffdfbf"/><stop offset="1" stop-color="#ffd5dc"/></linearGradient></defs><path d="M37 46.08V52a5 5 0 0 1-10 0v-5.92A14.04 14.04 0 0 1 18.58 37h-.08a4.5 4.5 0 0 1-.5-8.97V27a14 14 0 1 1 28 0v1.03a4.5 4.5 0 0 1-.58 8.97A14.04 14.04 0 0 1 37 46.08Z" fill="#e7a391"/><mask id="personas-a" style="mask-type:luminance" maskUnits="userSpaceOnUse" x="14" y="13" width="36" height="44"><path d="M37 46.08V52a5 5 0 0 1-10 0v-5.92A14.04 14.04 0 0 1 18.58 37h-.08a4.5 4.5 0 0 1-.5-8.97V27a14 14 0 1 1 28 0v1.03a4.5 4.5 0 0 1-.58 8.97A14.04 14.04 0 0 1 37 46.08Z" fill="#fff"/></mask><g mask="url(#personas-a)"><path d="M32 13a14 14 0 0 1 14 14v6a14 14 0 1 1-28 0v-6a14 14 0 0 1 14-14Z" fill="#fff" style="mix-blend-mode:overlay" opacity=".36"/></g><g transform="translate(20 24)"><path d="M3.76 6.21c.4.13.82-.08.95-.47.23-.7.62-1 1.3-1 .66 0 1.05.3 1.28 1a.75.75 0 1 0 1.42-.48c-.43-1.3-1.38-2.01-2.7-2.01-1.34 0-2.29.71-2.72 2.01-.13.4.08.82.47.95ZM15.76 6.21c.4.13.82-.08.95-.47.23-.7.62-1 1.29-1s1.06.3 1.29 1a.75.75 0 1 0 1.42-.48c-.43-1.3-1.38-2.01-2.71-2.01s-2.28.71-2.71 2.01c-.13.4.08.82.47.95Z" fill="#1B0640"/></g><g transform="translate(2 2)"><path d="M20.2 15a10 10 0 1 1 19.6 0c-2.53-2.47-5.98-4-9.8-4-3.82 0-7.27 1.53-9.8 4Z" fill="#362c47"/><path d="M43.93 23.63A14 14 0 0 0 31 15h-2a14 14 0 0 0-12.93 8.63 14 14 0 0 1 27.86 0Z" fill="#F55D81"/></g><g transform="translate(11 44)"><path d="M16 5v3a5 5 0 0 0 10 0V5l6.65 2.05a9 9 0 0 1 6.35 8.6V20H3v-4.35a9 9 0 0 1 6.35-8.6L16 5Z" fill="#6dbb58"/></g><g transform="translate(23 36)"><path fill-rule="evenodd" clip-rule="evenodd" d="M9 2c-.76 0-1.51-.14-2.27-.41A2.03 2.03 0 0 0 4 3.5c0 1.4.82 2.6 2 3.17a3 3 0 0 0 6 0 3.5 3.5 0 0 0 2-3.17 2.03 2.03 0 0 0-2.73-1.91C10.51 1.86 9.76 2 9 2ZM7.59 7h2.82A1.5 1.5 0 0 1 7.6 7Z" fill="#456DFF"/><path fill-rule="evenodd" clip-rule="evenodd" d="M12 6.5v.17a3.5 3.5 0 0 0 2-3.17 2.03 2.03 0 0 0-2.73-1.91 6.61 6.61 0 0 1-4.54 0A2.03 2.03 0 0 0 4 3.5c0 1.4.82 2.6 2 3.17V6.5a3 3 0 1 1 6 0ZM7.59 7h2.82A1.5 1.5 0 1 0 7.6 7Z" fill="#fff" fill-opacity=".3" style="mix-blend-mode:lighten"/><circle cx="9" cy="4.5" r="1.5" fill="#fff"/></g><g transform="translate(24 28)"><path opacity=".12" fill-rule="evenodd" clip-rule="evenodd" d="M11.72 5.3c.21.73.27 1.38.2 1.95a20.24 20.24 0 0 1 2.12 4.41.5.5 0 1 0 .94-.32 21.23 21.23 0 0 0-3.4-6.3c.07.07.11.16.14.25Zm-7.44 0a.75.75 0 0 1 .11-.24 28.75 28.75 0 0 0-2.07 3.22c-.48.89-.9 1.9-1.3 3.06a.5.5 0 0 0 .94.32 20.24 20.24 0 0 1 2.12-4.4 4.77 4.77 0 0 1 .19-1.97Z" fill="#000"/><path d="M5.2 4.78a.75.75 0 0 0-.92.51c-.21.75-.27 1.4-.2 1.97.23 1.6 1.6 2.49 3.92 2.49 2.33 0 3.7-.89 3.92-2.5.07-.57.01-1.22-.2-1.96a.75.75 0 1 0-1.44.42c.52 1.83-.09 2.54-2.28 2.54-2.2 0-2.8-.71-2.28-2.54a.75.75 0 0 0-.51-.93Z" fill="#000" style="mix-blend-mode:overlay" opacity=".36"/></g><g transform="translate(14 26)"><path d="m12.47 9.46 2.43-.83A2.5 2.5 0 0 1 18 10a2.5 2.5 0 0 1 3.1-1.37l2.43.83A18.65 18.65 0 0 0 32 2.7V9A14 14 0 1 1 4 9V2.7c2.05 2.94 5 5.43 8.47 6.76Z" fill="#362c47"/><mask id="facialHairBeardMustache-a" style="mask-type:luminance" maskUnits="userSpaceOnUse" x="4" y="2" width="28" height="21"><path d="m12.47 9.46 2.43-.83A2.5 2.5 0 0 1 18 10a2.5 2.5 0 0 1 3.1-1.37l2.43.83A18.65 18.65 0 0 0 32 2.7V9A14 14 0 1 1 4 9V2.7c2.05 2.94 5 5.43 8.47 6.76Z" fill="#fff"/></mask><g mask="url(#facialHairBeardMustache-a)"><path d="M32 9V2.7c-2.05 2.94-5 5.43-8.47 6.76l2.8.96a1 1 0 0 1-.07 1.91l-5.08 1.3A2.71 2.71 0 0 1 18 12.05a2.72 2.72 0 0 1-3.18 1.58l-5.08-1.3a1 1 0 0 1-.08-1.91l2.81-.96A18.65 18.65 0 0 1 4 2.7V9a14 14 0 1 0 28 0Z" fill="#fff" style="mix-blend-mode:overlay" opacity=".26"/><path d="M22 13.42v.08a3 3 0 0 1-3 3h-2a3 3 0 0 1-3-3.08l.82.21A2.71 2.71 0 0 0 18 12.05a2.72 2.72 0 0 0 3.18 1.58l.82-.2Z" fill="#FFFEFD"/></g></g></g></svg>