<svg width="44" height="44" viewBox="0 0 44 44" fill="none" xmlns="http://www.w3.org/2000/svg">
<g clip-path="url(#clip0_11659_22589)">
<mask id="mask0_11659_22589" style="mask-type:luminance" maskUnits="userSpaceOnUse" x="0" y="0" width="44" height="44">
<path fill-rule="evenodd" clip-rule="evenodd" d="M0 0H44V44H0V0Z" fill="white"/>
</mask>
<g mask="url(#mask0_11659_22589)">
<path fill-rule="evenodd" clip-rule="evenodd" d="M22 44.0001C9.9 44.0001 0 34.1001 0 21.8901C0.11 9.79005 9.9 -0.109947 22.11 5.3401e-05C34.21 0.110053 44 9.90005 44 22.2201C43.89 34.2101 34.1 44.0001 22 44.0001Z" fill="#0090FF"/>
</g>
<path fill-rule="evenodd" clip-rule="evenodd" d="M24.09 19.36L23.43 22.88L29.7 23.76L29.26 25.41L23.1 24.53C22.66 25.96 22.44 27.5 21.89 28.82C21.34 30.36 20.79 31.9 20.13 33.33C19.25 35.2 17.71 36.52 15.62 36.85C14.41 37.07 13.09 36.96 12.1 36.19C11.77 35.97 11.44 35.53 11.44 35.2C11.44 34.76 11.66 34.21 11.99 33.99C12.21 33.88 12.76 33.99 13.09 34.1C13.42 34.43 13.75 34.87 13.97 35.31C14.63 36.19 15.51 36.3 16.39 35.64C17.38 34.76 17.93 33.55 18.26 32.34C18.92 29.7 19.58 27.17 20.13 24.53V24.09L14.3 23.21L14.52 21.56L20.57 22.44L21.34 19.03L15.07 18.04L15.29 16.28L21.78 17.16C22 16.5 22.11 15.95 22.33 15.4C22.88 13.42 23.43 11.44 24.75 9.68004C26.07 7.92004 27.61 6.82004 29.92 6.93004C30.91 6.93004 31.9 7.26004 32.56 8.03004C32.67 8.14004 32.89 8.36004 32.89 8.58004C32.89 9.02004 32.89 9.57004 32.56 9.90004C32.12 10.23 31.57 10.12 31.13 9.68004C30.8 9.35004 30.58 9.02004 30.25 8.69004C29.59 7.81004 28.6 7.70004 27.83 8.47004C27.28 9.02004 26.73 9.79004 26.4 10.56C25.63 12.87 25.08 15.29 24.31 17.71L30.36 18.59L29.92 20.24L24.09 19.36Z" fill="white"/>
</g>
<defs>
<clipPath id="clip0_11659_22589">
<rect width="44" height="44" fill="white"/>
</clipPath>
</defs>
</svg>
