<svg width="120" height="28" viewBox="0 0 120 28" fill="none" xmlns="http://www.w3.org/2000/svg">
<path fill-rule="evenodd" clip-rule="evenodd" d="M104.854 0.447527C104.588 0.508891 104.341 0.754233 104.301 0.995399L104.283 1.10557L104.205 0.939367C104.122 0.760919 103.969 0.609922 103.8 0.53922C103.666 0.483076 103.349 0.483076 103.215 0.53922C102.979 0.638107 102.756 0.92574 102.75 1.13991C102.748 1.22093 102.746 1.2191 102.69 1.09759C102.378 0.41195 101.326 0.545286 101.222 1.28362L101.204 1.41343L101.169 1.33311C101.115 1.20813 100.987 1.07558 100.839 0.991223C100.722 0.924668 100.672 0.914201 100.472 0.914201C100.27 0.914201 100.221 0.924612 100.103 0.991759C99.8637 1.12848 99.7016 1.39052 99.7016 1.64094V1.72265L99.6059 1.60085C99.324 1.24181 98.7481 1.21916 98.4358 1.55484C98.2941 1.70722 98.2407 1.83948 98.2373 2.04704L98.2344 2.22064L98.1021 2.1004C97.6209 1.66332 96.8373 1.99533 96.8276 2.64042C96.8264 2.72089 96.8381 2.81927 96.8537 2.85908C96.8858 2.94101 96.8525 2.95492 96.7926 2.88452C96.6664 2.73607 96.2187 2.67355 96.0115 2.77545C95.7215 2.9181 95.5843 3.10298 95.5578 3.38661C95.5421 3.55597 95.5575 3.63322 95.6491 3.84417C95.6711 3.89492 95.669 3.89495 95.5731 3.84456C95.4349 3.77194 95.0499 3.77211 94.9079 3.84482C94.7397 3.93098 94.592 4.08948 94.53 4.25032C94.4318 4.50526 94.4591 4.72103 94.6184 4.94868L94.6974 5.06154H94.4613C94.2861 5.06154 94.1959 5.07564 94.1118 5.11619C93.9754 5.18187 93.8228 5.32519 93.7565 5.44969C93.6939 5.56714 93.6704 5.88446 93.7146 6.01458C93.7609 6.15085 93.9029 6.3359 94.0093 6.39873L94.0967 6.45036L93.8992 6.46407C93.6748 6.47967 93.5584 6.52907 93.4126 6.67062C93.2429 6.83547 93.2088 6.92279 93.2086 7.19383C93.2084 7.41384 93.2163 7.44851 93.296 7.57471C93.3495 7.65946 93.4429 7.75155 93.5357 7.81099L93.6877 7.90841L93.5497 7.94377C93.4738 7.9632 93.4037 7.97968 93.394 7.98036C93.3843 7.98104 93.3137 8.03506 93.2373 8.10043C92.9175 8.37373 92.8708 8.80289 93.1253 9.12705C93.2158 9.24225 93.464 9.39071 93.5715 9.3939C93.6287 9.39559 93.6194 9.40363 93.5279 9.43173C93.27 9.51092 93.0878 9.66088 92.9992 9.86675L92.9572 9.96448L92.8912 9.82626C92.7957 9.62595 92.6429 9.50446 92.3664 9.40893C92.3168 9.39181 92.3249 9.38204 92.4245 9.3386C92.5873 9.26753 92.7171 9.15383 92.8094 9.00136C92.8781 8.88789 92.8887 8.84001 92.8884 8.64441C92.888 8.44952 92.8771 8.40042 92.8085 8.28675C92.7018 8.10986 92.5514 7.9952 92.349 7.93632L92.1812 7.88754L92.3315 7.80039C92.6221 7.6317 92.7565 7.28217 92.6576 6.95182C92.5713 6.66368 92.2542 6.42988 91.9498 6.42988H91.8492L91.9882 6.31104C92.4064 5.95352 92.3415 5.34536 91.858 5.09209C91.7252 5.02255 91.6679 5.00982 91.4878 5.00982H91.2747L91.3464 4.93692C91.5172 4.76338 91.583 4.45295 91.5036 4.19559C91.4602 4.05483 91.2754 3.84992 91.1202 3.77053C90.9633 3.69024 90.6135 3.68282 90.4656 3.75668C90.4112 3.78382 90.3627 3.80605 90.3577 3.80605C90.3527 3.80605 90.3776 3.75843 90.413 3.70025C90.5004 3.55665 90.5048 3.19665 90.4211 3.03293C90.3019 2.79974 90.0727 2.649 89.8032 2.6268C89.5885 2.60908 89.4697 2.63763 89.302 2.74724L89.1553 2.84308L89.1768 2.76735C89.22 2.61467 89.1938 2.40036 89.1123 2.23847C88.9749 1.96579 88.6761 1.80723 88.3595 1.83894C88.1618 1.85878 88.0034 1.93744 87.8679 2.08307L87.7609 2.19807L87.7606 2.04987C87.7601 1.76421 87.5385 1.45499 87.2708 1.36643C86.911 1.24737 86.4959 1.38962 86.3396 1.68552L86.286 1.78703L86.2516 1.62596C86.1349 1.08035 85.5323 0.839831 85.0527 1.14744C84.937 1.22164 84.7701 1.44867 84.766 1.53737C84.7647 1.56703 84.7474 1.52784 84.7277 1.45025C84.6783 1.25629 84.6175 1.15286 84.4843 1.03597C84.318 0.890079 84.1413 0.83275 83.9126 0.850581C83.6003 0.874928 83.393 1.02364 83.2735 1.30907L83.2059 1.47073L83.1856 1.35399C83.1569 1.18956 83.007 0.987358 82.8393 0.887145C82.7223 0.817204 82.6587 0.800135 82.483 0.79153C82.2989 0.782502 82.2478 0.791164 82.1161 0.853712C81.917 0.948311 81.8179 1.05197 81.7316 1.25595C81.6929 1.3473 81.6609 1.39933 81.6606 1.37154C81.6595 1.29866 81.5499 1.09666 81.4605 1.00327C81.2474 0.78033 80.8556 0.718035 80.5615 0.860314C80.3824 0.946985 80.2571 1.08534 80.1876 1.27307L80.137 1.40971L80.0999 1.28636C80.0796 1.21851 80.0107 1.10537 79.9468 1.03493C79.7895 0.861414 79.6194 0.787242 79.3786 0.787242C79.049 0.787242 78.8365 0.915838 78.6907 1.20353C78.608 1.36668 78.5952 1.37997 78.5787 1.32005C78.5256 1.12749 78.3275 0.907571 78.1381 0.830944C77.9988 0.774574 77.68 0.774574 77.5407 0.830944C77.3368 0.913439 77.1016 1.19221 77.0966 1.35743C77.0947 1.4215 77.0944 1.42145 77.0626 1.35151C77.045 1.31271 77.0122 1.2406 76.9896 1.19128C76.9319 1.06489 76.7612 0.902352 76.6216 0.840762C76.4553 0.767465 76.1497 0.769214 75.9848 0.84443C75.8059 0.926107 75.6476 1.0953 75.5867 1.27003L75.5349 1.41862L75.5033 1.3045C75.3871 0.885396 74.8368 0.654584 74.432 0.855151C74.2204 0.960019 74.0692 1.14276 74.0311 1.33974L74.01 1.44909L73.9598 1.29956C73.8522 0.97912 73.5815 0.787242 73.2369 0.787242C72.8969 0.787242 72.6524 0.947436 72.5218 1.25595C72.4832 1.3473 72.4512 1.39933 72.4508 1.37154C72.4498 1.29866 72.3401 1.09666 72.2508 1.00327C72.0377 0.78033 71.6458 0.718035 71.3518 0.860314C71.1728 0.946929 71.0474 1.08531 70.978 1.27268L70.9275 1.40892L70.8853 1.28038C70.8307 1.11435 70.656 0.922834 70.49 0.847054C70.3182 0.768621 70.0167 0.766195 69.845 0.841863C69.6886 0.910872 69.4995 1.10089 69.4556 1.23335C69.4018 1.39521 69.3948 1.39631 69.3382 1.25157C69.2743 1.08814 69.108 0.912565 68.9493 0.840932C68.7927 0.770258 68.4685 0.769806 68.3101 0.840029C68.2038 0.887173 67.9476 1.12292 67.9465 1.17455C67.945 1.25121 67.8967 1.26715 67.7932 1.22519C67.735 1.20155 67.6052 1.18251 67.5048 1.18285C67.1244 1.18414 66.8475 1.40071 66.7574 1.76765C66.6721 2.11462 66.9096 2.51883 67.2584 2.62031L67.3801 2.65572L67.2641 2.69905C66.8854 2.84048 66.6706 3.20621 66.7578 3.56099C66.8229 3.82572 66.9761 3.99739 67.2471 4.10914L67.3741 4.16151L67.2566 4.1957C67.1919 4.21452 67.0739 4.2868 66.9942 4.35632C66.6887 4.6231 66.6533 5.0375 66.9086 5.36026C66.9937 5.46786 67.1681 5.58041 67.3223 5.62724C67.3687 5.64132 67.3506 5.65582 67.2324 5.69915C66.8712 5.83162 66.658 6.23543 66.7668 6.58073C66.7905 6.65595 66.8462 6.76826 66.8904 6.83028C66.9715 6.94395 67.2208 7.10623 67.3151 7.10674C67.4021 7.10719 67.3708 7.15622 67.2715 7.17507C66.9982 7.22698 66.7422 7.56241 66.7423 7.86838C66.7423 8.18852 66.9496 8.47542 67.2527 8.57506L67.406 8.62545L67.2887 8.65609C66.8342 8.77495 66.6042 9.30982 66.8275 9.72898C66.8895 9.84542 67.1114 10.0251 67.247 10.0685L67.3643 10.1061L67.2126 10.1742C66.958 10.2886 66.8218 10.4493 66.7574 10.7112C66.6729 11.0547 66.8871 11.427 67.2481 11.5641L67.3672 11.6093L67.2576 11.6468C66.8933 11.7715 66.6713 12.1525 66.7578 12.5046C66.8229 12.7693 66.9761 12.941 67.2471 13.0527L67.3741 13.1051L67.258 13.1389C67.1256 13.1774 66.8907 13.3662 66.8275 13.485C66.6968 13.7303 66.7139 14.0123 66.8741 14.2577C66.9652 14.3971 67.1909 14.5553 67.299 14.5553C67.405 14.5553 67.377 14.5996 67.2469 14.6374C67.1814 14.6564 67.0682 14.7251 66.9954 14.79C66.6973 15.0555 66.6557 15.445 66.8904 15.7739C66.9715 15.8875 67.2208 16.0498 67.3151 16.0503C67.343 16.0505 67.3659 16.0633 67.3659 16.0788C67.3659 16.0943 67.3396 16.107 67.3074 16.107C67.2752 16.107 67.2197 16.1229 67.1839 16.1423C66.8058 16.3475 66.6494 16.7313 66.794 17.0989C66.8586 17.263 67.0832 17.4725 67.2451 17.5197C67.3763 17.5578 67.3802 17.5868 67.2576 17.6107C67.1419 17.6332 66.9423 17.7821 66.8624 17.9054C66.5958 18.317 66.7826 18.84 67.2598 19.018L67.3715 19.0596L67.2368 19.1096C66.8815 19.2414 66.6729 19.6074 66.7574 19.951C66.8216 20.2124 66.9581 20.3737 67.2112 20.4874L67.3614 20.5549L67.2547 20.5914C67.0082 20.6757 66.8082 20.8981 66.755 21.1469C66.6756 21.5183 66.9185 21.9093 67.2887 22.0062L67.406 22.0368L67.2527 22.0872C67.0624 22.1497 66.8621 22.334 66.7928 22.5101C66.634 22.9136 66.8647 23.3715 67.2919 23.5007L67.4095 23.5363L67.3175 23.5558C66.9373 23.6367 66.6648 24.0614 66.756 24.4308C66.806 24.6331 66.9413 24.8137 67.1155 24.9108C67.1973 24.9563 67.2871 24.9937 67.3151 24.9939C67.4058 24.9943 67.3689 25.0359 67.2443 25.0737C66.8525 25.1924 66.6397 25.6503 66.794 26.0425C66.9075 26.3309 67.2803 26.547 67.595 26.5067L67.7291 26.4896L67.781 26.6121C67.8978 26.8882 68.1988 27.0681 68.5116 27.0487C68.8468 27.028 69.0896 26.8484 69.1993 26.5401C69.2285 26.4579 69.2532 26.4161 69.254 26.4471C69.2569 26.55 69.364 26.7372 69.4853 26.8516C69.8708 27.2149 70.5431 27.0635 70.7249 26.5726C70.7782 26.4286 70.7784 26.4284 70.8008 26.512C70.8395 26.6571 71.0056 26.8648 71.1538 26.9534C71.3493 27.0703 71.6184 27.0872 71.8358 26.9963C72.0093 26.9239 72.2323 26.7024 72.2614 26.5737C72.2895 26.4493 72.3208 26.4499 72.3634 26.5753C72.4172 26.7337 72.5699 26.8953 72.7464 26.9807C73.0265 27.1162 73.3767 27.0621 73.6075 26.8475C73.7096 26.7527 73.8156 26.578 73.8156 26.5047C73.8156 26.4208 73.8649 26.4624 73.8999 26.5758C73.9193 26.6389 73.9835 26.7424 74.0425 26.806C74.3819 27.1715 74.9771 27.1262 75.2585 26.7133C75.2998 26.6527 75.3431 26.5617 75.3549 26.511C75.3734 26.4316 75.3793 26.4267 75.3976 26.4753C75.4094 26.5064 75.4337 26.5698 75.4518 26.6162C75.5029 26.748 75.6754 26.9151 75.8348 26.9873C76.206 27.1555 76.6479 27.0026 76.8375 26.6402C76.8977 26.5253 76.9091 26.4632 76.9094 26.2496C76.9097 26.038 76.8984 25.9746 76.8418 25.8687C76.7427 25.6838 76.6408 25.5886 76.45 25.5033L76.2807 25.4275L76.4018 25.3923C76.4772 25.3704 76.5811 25.302 76.6775 25.2109C76.882 25.0175 76.9512 24.813 76.8976 24.5604C76.8782 24.4693 76.8304 24.3455 76.7912 24.2852C76.712 24.1634 76.5173 24.0143 76.4031 23.9879C76.2711 23.9573 76.2739 23.9427 76.4223 23.889C76.8465 23.7353 77.0312 23.2608 76.8219 22.862C76.729 22.6851 76.5304 22.5237 76.366 22.4918C76.2578 22.4708 76.2637 22.4371 76.3795 22.4151C76.5417 22.3843 76.7348 22.2226 76.8266 22.0407C77.0281 21.6416 76.8424 21.1731 76.4223 21.0209C76.2739 20.9672 76.2711 20.9526 76.4031 20.922C76.5922 20.8783 76.834 20.6298 76.8784 20.4337C76.8968 20.3523 76.9083 20.3455 77.0543 20.3309C77.3768 20.2986 77.665 20.0946 77.741 19.845C77.7861 19.6964 77.8109 19.6857 77.8353 19.8042C77.8627 19.937 78.0167 20.1325 78.1567 20.2122C78.4692 20.39 78.8114 20.3607 79.0641 20.1345C79.2031 20.01 79.2755 19.8982 79.3061 19.7606L79.3249 19.676L79.3635 19.7888C79.4594 20.0689 79.676 20.2544 79.9788 20.3158C80.3149 20.3839 80.7035 20.16 80.817 19.8329L80.8702 19.6794L80.9018 19.7932C80.9392 19.9281 81.0698 20.1115 81.1852 20.1908C81.2875 20.2614 81.5188 20.339 81.6265 20.339C81.671 20.339 81.7771 20.3189 81.8622 20.2943C82.0725 20.2337 82.3112 20.0059 82.3594 19.82L82.3931 19.69L82.4723 19.8522C82.5728 20.0583 82.7445 20.2099 82.9417 20.2669C83.1331 20.322 83.2085 20.3219 83.402 20.2661C83.6215 20.2028 83.8444 19.9842 83.8985 19.7792L83.9377 19.6308L83.9931 19.738C84.2907 20.3136 85.072 20.3356 85.3713 19.7768C85.4233 19.6798 85.4663 19.5603 85.467 19.5113L85.4683 19.422L85.5232 19.5228C85.5923 19.6499 85.7799 19.8158 85.9227 19.8763C86.0756 19.9411 86.3529 19.9367 86.5157 19.8668C86.7704 19.7574 86.9472 19.5157 86.9709 19.2445L86.9839 19.0951L87.05 19.1895C87.1926 19.3933 87.4648 19.5075 87.754 19.485C88.0111 19.465 88.2314 19.3215 88.349 19.0976C88.4193 18.9636 88.4293 18.9149 88.4225 18.741L88.4146 18.5396L88.5094 18.6206C88.6547 18.7446 88.7732 18.7934 88.9653 18.8082C89.3066 18.8345 89.5687 18.6976 89.7173 18.4154C89.8141 18.2316 89.8295 17.9918 89.7554 17.8197C89.7307 17.7622 89.7146 17.7151 89.7198 17.7151C89.725 17.7151 89.7864 17.7454 89.8563 17.7825C90.1079 17.9158 90.3604 17.9087 90.6146 17.7612C90.7934 17.6574 90.9432 17.4412 90.9739 17.2423C91.0001 17.0727 90.9433 16.8417 90.842 16.7059L90.7595 16.5953L90.8654 16.632C91.1829 16.7422 91.577 16.6111 91.7511 16.3375C91.8248 16.2217 91.8864 16.0373 91.8864 15.9325C91.8864 15.7722 91.7937 15.5627 91.6624 15.4264L91.5298 15.2888L91.7299 15.2886C91.8984 15.2883 91.9538 15.275 92.0807 15.2043C92.3357 15.0623 92.464 14.846 92.4659 14.5553C92.4676 14.2968 92.2923 14.0175 92.0533 13.8979C91.9735 13.858 91.9739 13.8578 92.1346 13.8417C92.4014 13.815 92.6375 13.646 92.7488 13.4022C92.819 13.2481 92.8131 12.9328 92.7373 12.7919C92.6571 12.643 92.4819 12.4762 92.3611 12.4338C92.2527 12.3957 92.233 12.3546 92.3231 12.3546C92.5002 12.3546 92.7724 12.1496 92.874 11.9397C92.9197 11.8453 92.9374 11.7552 92.9374 11.6175C92.9374 11.2914 92.7432 11.029 92.4248 10.9248C92.2811 10.8778 92.2801 10.8767 92.3658 10.8589C92.602 10.8099 92.8013 10.6502 92.9038 10.4279L92.9548 10.3173L92.9914 10.4251C93.069 10.6532 93.3875 10.8845 93.6296 10.8884C93.6872 10.8894 93.6708 10.9044 93.5503 10.961C93.0712 11.1861 92.964 11.793 93.3391 12.1571C93.4733 12.2875 93.6236 12.3552 93.8235 12.3752C93.9517 12.3881 93.9734 12.397 93.9305 12.4191C93.5228 12.6287 93.4482 13.2351 93.7882 13.5749C93.9443 13.7311 94.0755 13.7794 94.3434 13.7794H94.5779L94.4972 13.9028C94.3879 14.0701 94.3447 14.2822 94.3846 14.4551C94.426 14.6343 94.4747 14.7187 94.6077 14.8413C94.7774 14.9978 94.8935 15.0436 95.1258 15.0458C95.2941 15.0473 95.353 15.0347 95.4672 14.9727C95.5431 14.9315 95.6052 14.9037 95.6052 14.9108C95.6052 14.918 95.5856 14.9694 95.5616 15.0251C95.4969 15.1755 95.5053 15.4607 95.5789 15.6128C95.6492 15.7578 95.8259 15.9235 95.9788 15.9875C96.1149 16.0444 96.4309 16.0448 96.566 15.9882C96.6231 15.9643 96.7148 15.9064 96.7698 15.8595L96.8697 15.7743L96.8709 15.99C96.8722 16.2359 96.9297 16.3734 97.0916 16.5181C97.2862 16.6919 97.3434 16.7135 97.6098 16.7135C97.9095 16.7136 98.0182 16.67 98.1956 16.4785L98.3216 16.3425L98.3271 16.4905C98.3331 16.653 98.4137 16.8357 98.5354 16.9631C98.7489 17.1863 99.1404 17.2483 99.4352 17.1057C99.585 17.0332 99.6834 16.9351 99.7721 16.7698C99.8094 16.7004 99.8175 16.6958 99.8176 16.7437C99.8183 16.9684 99.9828 17.2321 100.209 17.3705C100.35 17.4574 100.675 17.4889 100.85 17.4327C101.001 17.3845 101.208 17.1934 101.286 17.0306L101.35 16.8961L101.368 17.0306C101.379 17.106 101.423 17.218 101.469 17.2857C101.807 17.7805 102.541 17.735 102.807 17.2028C102.874 17.0682 102.896 17.0414 102.897 17.0945C102.903 17.3751 103.309 17.7151 103.638 17.7151C103.933 17.7151 104.221 17.5285 104.353 17.2506C104.403 17.1467 104.435 17.1037 104.436 17.1404C104.438 17.2364 104.517 17.3943 104.619 17.507C104.802 17.7096 105.133 17.7943 105.43 17.7143C105.578 17.6742 105.815 17.46 105.88 17.306C105.909 17.2363 105.94 17.1793 105.949 17.1792C105.957 17.1791 105.983 17.2391 106.005 17.3124C106.084 17.5723 106.417 17.7998 106.718 17.7998C107.01 17.7998 107.344 17.5765 107.428 17.3248L107.47 17.2025L107.503 17.3107C107.555 17.4793 107.621 17.5863 107.734 17.6822C107.911 17.8334 108.005 17.8676 108.243 17.8674C108.477 17.8674 108.618 17.817 108.77 17.6802L108.846 17.6112L108.865 17.763C108.889 17.9616 108.979 18.1445 109.109 18.2546C109.224 18.3529 109.417 18.447 109.507 18.4482C109.553 18.4489 109.536 18.4728 109.431 18.5605C109.257 18.7058 109.161 18.9107 109.162 19.1399C109.162 19.2881 109.188 19.3766 109.283 19.5561C109.289 19.5677 109.21 19.5772 109.108 19.5772C108.707 19.5772 108.38 19.8691 108.353 20.2509C108.346 20.3471 108.339 20.3614 108.316 20.322C107.986 19.7648 107.136 19.8217 106.919 20.4155L106.868 20.5524L106.778 20.3835C106.623 20.0926 106.362 19.9513 106.033 19.98C105.753 20.0044 105.517 20.1678 105.403 20.4154L105.348 20.5341L105.312 20.3952C105.229 20.0832 104.922 19.8515 104.587 19.8492C104.363 19.8476 104.218 19.9014 104.06 20.0451L103.926 20.1665L103.938 20.072C103.975 19.7646 103.706 19.4046 103.372 19.314C103.254 19.282 103.152 19.2718 103.073 19.2841L102.952 19.3028L103.019 19.179C103.062 19.0977 103.089 18.9915 103.096 18.8693C103.105 18.713 103.094 18.658 103.03 18.525C102.895 18.2477 102.665 18.1118 102.33 18.1107C102.109 18.1101 101.968 18.1625 101.812 18.3034C101.722 18.3857 101.59 18.6155 101.589 18.6946C101.589 18.7223 101.557 18.6702 101.518 18.5788C101.432 18.3753 101.333 18.2712 101.135 18.1774C100.722 17.9809 100.23 18.1866 100.079 18.619L100.029 18.7636L100.008 18.6589C99.9621 18.4198 99.7178 18.1773 99.4699 18.1244C99.0573 18.0364 98.6381 18.2623 98.5369 18.6274L98.5052 18.7415L98.4534 18.5929C98.3489 18.293 98.074 18.1066 97.7362 18.1066C97.3876 18.1066 97.1006 18.3103 96.9978 18.6307L96.9612 18.7449L96.9417 18.6603C96.9133 18.5367 96.8434 18.4193 96.7335 18.3103C96.4548 18.0341 95.9529 18.0338 95.6682 18.3096C95.5648 18.4098 95.4599 18.5867 95.4599 18.6608C95.4599 18.7322 95.4082 18.6823 95.3876 18.591C95.3564 18.4535 95.1851 18.2638 95.0195 18.1837C94.8988 18.1253 94.8252 18.1101 94.6621 18.1101C94.3686 18.1101 94.1751 18.2159 94.0083 18.4674L93.9305 18.585L93.811 18.4503C93.6498 18.2686 93.4813 18.1946 93.2304 18.1954C92.9036 18.1964 92.6724 18.3348 92.5386 18.6096C92.4733 18.7435 92.4632 18.7967 92.4731 18.9539C92.4795 19.0562 92.5079 19.1862 92.5362 19.2429C92.6501 19.4713 92.9331 19.6619 93.1583 19.6619H93.2633L93.1324 19.7425C92.8722 19.9027 92.7503 20.1196 92.754 20.4158C92.7587 20.7983 93.0618 21.0964 93.4736 21.1234L93.6518 21.1351L93.5369 21.2359C93.2477 21.4896 93.2023 21.8801 93.4247 22.2027C93.4722 22.2716 93.5574 22.3582 93.614 22.3952C93.759 22.4898 94.0179 22.5441 94.1658 22.5109C94.2304 22.4964 94.2921 22.4842 94.3029 22.4838C94.3137 22.4835 94.2784 22.5545 94.2243 22.6417C94.1053 22.8336 94.0748 23.0022 94.1219 23.2067C94.1655 23.396 94.2981 23.5692 94.4854 23.6816C94.6127 23.7581 94.6516 23.7669 94.8621 23.7669C95.0506 23.7669 95.1177 23.7548 95.2032 23.7058L95.3097 23.6446L95.2398 23.7904C95.0678 24.1492 95.221 24.5782 95.5863 24.7603C95.8434 24.8885 96.2213 24.8506 96.411 24.6775C96.4855 24.6095 96.4911 24.6317 96.4445 24.8113C96.3894 25.0238 96.4947 25.3234 96.6843 25.4935C96.9663 25.7466 97.4771 25.7328 97.7372 25.465L97.8277 25.3719L97.829 25.571C97.8301 25.7364 97.8446 25.7956 97.9154 25.9215C98.1582 26.3536 98.7551 26.4483 99.1042 26.1101C99.1691 26.0472 99.2358 25.9717 99.2525 25.9423C99.2767 25.8996 99.2835 25.9198 99.2865 26.0436C99.2913 26.2444 99.356 26.3903 99.5059 26.5391C99.6403 26.6723 99.8708 26.7716 100.046 26.7716C100.3 26.7716 100.634 26.5742 100.72 26.3734L100.758 26.2835L100.795 26.4587C100.843 26.6881 100.975 26.8658 101.182 26.9789C101.316 27.0525 101.371 27.0658 101.545 27.0667C101.856 27.0683 102.091 26.9266 102.241 26.646C102.27 26.5905 102.289 26.5766 102.297 26.6039C102.304 26.6263 102.324 26.6967 102.342 26.7605C102.381 26.9008 102.574 27.121 102.722 27.1944C103.094 27.3784 103.58 27.2156 103.755 26.8487L103.821 26.7111L103.868 26.8498C104.036 27.3398 104.592 27.5291 105.032 27.2461C105.17 27.1572 105.337 26.9217 105.338 26.8153C105.338 26.7362 105.38 26.7939 105.419 26.9267C105.465 27.0817 105.593 27.2232 105.778 27.3227C105.922 27.4 105.956 27.4063 106.224 27.4057C106.466 27.4052 106.534 27.3949 106.635 27.3434C106.851 27.2319 107.05 26.9846 107.053 26.8221C107.054 26.7784 107.081 26.8127 107.136 26.9278C107.378 27.4346 108.001 27.5436 108.394 27.1478C108.513 27.0286 108.591 26.8723 108.593 26.7513C108.594 26.6861 108.608 26.7015 108.675 26.8421C108.823 27.1506 109.073 27.2944 109.429 27.2749C109.589 27.2661 109.658 27.2468 109.769 27.18C109.95 27.0712 110.095 26.866 110.12 26.6863L110.139 26.5486L110.21 26.6883C110.337 26.9359 110.625 27.1101 110.906 27.1101C111.069 27.1101 111.301 27.0069 111.429 26.8777C111.573 26.7327 111.603 26.678 111.645 26.491L111.676 26.3472L111.757 26.4642C112.028 26.856 112.608 26.9076 112.941 26.5695C113.067 26.4418 113.152 26.2488 113.152 26.0892L113.153 25.9571L113.309 26.1081C113.466 26.2608 113.663 26.3484 113.85 26.3484C114.01 26.3484 114.233 26.26 114.36 26.1467C114.541 25.985 114.606 25.8389 114.606 25.5946V25.3947L114.7 25.4809C114.977 25.7338 115.386 25.7551 115.697 25.5328C115.935 25.3624 116.056 24.9978 115.963 24.7319L115.919 24.6048L116.066 24.6937C116.201 24.7754 116.233 24.7825 116.462 24.7823C116.74 24.782 116.832 24.7487 116.997 24.5889C117.153 24.4367 117.206 24.3043 117.206 24.0631C117.205 23.8675 117.188 23.8041 117.082 23.6052C117.076 23.5938 117.117 23.6033 117.174 23.6263C117.333 23.6912 117.615 23.6797 117.788 23.6013C118.234 23.3998 118.352 22.8143 118.023 22.4363L117.946 22.3471H118.145C118.388 22.3471 118.567 22.2733 118.719 22.1106C118.861 21.9574 118.913 21.8258 118.913 21.6138C118.913 21.3839 118.801 21.1584 118.62 21.0244C118.508 20.9414 118.502 20.9314 118.564 20.9314C118.703 20.9314 118.925 20.8457 119.046 20.7455C119.228 20.5945 119.312 20.4133 119.312 20.1777C119.311 19.87 119.187 19.6707 118.905 19.5217C118.776 19.4531 118.759 19.437 118.818 19.436C118.92 19.4345 119.137 19.3346 119.235 19.244C119.335 19.1518 119.442 18.9523 119.47 18.8066C119.534 18.4653 119.268 18.0736 118.914 17.9856L118.775 17.9512L118.916 17.9166C119.115 17.8679 119.348 17.6401 119.411 17.4321C119.468 17.2457 119.469 17.1706 119.415 16.9925C119.332 16.7234 119.019 16.4751 118.76 16.4738L118.659 16.4732L118.809 16.3893C119.069 16.2448 119.196 16.0279 119.196 15.7302C119.196 15.5869 119.179 15.5178 119.115 15.3983C118.977 15.1423 118.74 15.0076 118.426 15.0065L118.281 15.0061L118.375 14.9338C118.523 14.8205 118.62 14.636 118.636 14.4342C118.663 14.1009 118.526 13.8479 118.237 13.7007C118.093 13.6274 118.056 13.6207 117.86 13.6313C117.74 13.6378 117.617 13.6535 117.588 13.6661C117.542 13.6856 117.545 13.6722 117.608 13.5791C117.865 13.1994 117.703 12.6756 117.272 12.4958C117.062 12.4078 116.752 12.4249 116.583 12.5337C116.519 12.5749 116.461 12.6086 116.456 12.6086C116.45 12.6086 116.463 12.5383 116.486 12.4524C116.572 12.1229 116.413 11.7916 116.089 11.6282C115.794 11.4787 115.491 11.5166 115.236 11.7354L115.107 11.8454V11.6687C115.107 11.3749 114.919 11.0976 114.645 10.9862C114.587 10.9628 114.453 10.944 114.344 10.944C114.097 10.944 113.883 11.0433 113.742 11.2224C113.657 11.3306 113.647 11.3362 113.647 11.2757C113.647 11.2386 113.626 11.1392 113.601 11.0549C113.515 10.7707 113.167 10.5208 112.858 10.5208C112.737 10.5208 112.484 10.6214 112.365 10.7171C112.307 10.7636 112.232 10.8545 112.199 10.9192L112.139 11.0367L112.122 10.9551C112.054 10.6419 111.914 10.4554 111.666 10.3521C111.541 10.2999 111.477 10.2907 111.309 10.3013C111.197 10.3084 111.063 10.3355 111.011 10.3615C110.876 10.4296 110.727 10.5832 110.666 10.7171L110.614 10.8327L110.579 10.7201C110.522 10.5319 110.401 10.3622 110.26 10.2714C109.942 10.0665 109.571 10.1026 109.301 10.3651C109.218 10.4447 109.136 10.5568 109.116 10.6164L109.079 10.7241L109.011 10.5589C108.924 10.3481 108.732 10.1716 108.526 10.1121C108.328 10.0549 108.218 10.0582 108.028 10.1274C107.839 10.196 107.637 10.3959 107.576 10.5738L107.537 10.6895L107.489 10.5522C107.424 10.3665 107.362 10.2813 107.221 10.1816C106.886 9.94628 106.384 10.0161 106.149 10.3305C106.102 10.3945 106.055 10.4793 106.045 10.5191C106.014 10.6459 106 10.6424 105.948 10.4941C105.773 9.99046 105.148 9.82524 104.731 10.1721C104.664 10.2276 104.581 10.3255 104.547 10.3898L104.485 10.5067L104.461 10.4004C104.402 10.1319 104.19 9.90345 103.932 9.82891C103.743 9.77441 103.654 9.77635 103.47 9.83904L103.319 9.89087V9.66271C103.319 9.46651 103.308 9.4168 103.242 9.30762C103.144 9.14669 103.052 9.06374 102.886 8.98604L102.754 8.92434L102.886 8.88662C103.231 8.78757 103.487 8.3137 103.364 7.99983L103.336 7.92974L103.472 7.98778C103.644 8.06181 103.95 8.0652 104.092 7.99463C104.341 7.87103 104.457 7.73677 104.533 7.48443C104.57 7.36128 104.576 7.35397 104.596 7.41446C104.628 7.5136 104.838 7.72348 104.973 7.79206C105.139 7.87586 105.479 7.87591 105.643 7.79215C105.801 7.71104 105.932 7.57189 106.009 7.40396L106.073 7.26363L106.108 7.39793C106.195 7.73149 106.532 7.95017 106.909 7.91733C107.111 7.89967 107.272 7.82141 107.41 7.67323L107.517 7.55823L107.517 7.70644C107.519 8.16603 107.988 8.51458 108.447 8.39788L108.607 8.35712L108.534 8.50081C108.246 9.06733 108.835 9.72653 109.449 9.52337C109.608 9.47097 109.624 9.47591 109.646 9.5821C109.67 9.69507 109.823 9.88833 109.952 9.96755C110.074 10.0423 110.249 10.0972 110.366 10.0974C110.65 10.098 110.984 9.8727 111.084 9.61413L111.137 9.4754L111.204 9.63128C111.287 9.82688 111.479 9.99706 111.681 10.0554C111.866 10.1088 111.942 10.1084 112.138 10.0526C112.331 9.99763 112.563 9.78191 112.631 9.59316L112.676 9.46973L112.718 9.59322C112.743 9.66725 112.818 9.77505 112.906 9.8624C113.021 9.97796 113.087 10.018 113.223 10.0561C113.615 10.1658 113.995 9.98304 114.151 9.61037L114.217 9.45323L114.253 9.58363C114.307 9.77835 114.538 9.99221 114.763 10.0557C115.19 10.1762 115.564 9.96792 115.726 9.51922C115.744 9.46984 115.749 9.47382 115.771 9.55124C115.785 9.59991 115.839 9.70119 115.891 9.77632C116.097 10.0739 116.537 10.1733 116.87 9.99735C117.044 9.90503 117.208 9.71411 117.237 9.56859C117.261 9.45004 117.296 9.4517 117.32 9.57248C117.347 9.71473 117.511 9.90427 117.689 9.99791C117.888 10.1034 118.152 10.1133 118.355 10.023C118.644 9.89516 118.839 9.5788 118.809 9.2868C118.794 9.14071 118.795 9.13848 118.894 9.09269C119.102 8.99668 119.283 8.6968 119.283 8.44712C119.283 8.05983 118.922 7.69947 118.535 7.69947H118.436L118.562 7.60656C118.743 7.47179 118.859 7.24013 118.856 7.01377C118.854 6.80545 118.802 6.67223 118.664 6.52377C118.508 6.35635 118.328 6.28074 118.088 6.28221L117.889 6.28342L117.991 6.16744C118.151 5.98588 118.214 5.72093 118.15 5.49785C118.027 5.06673 117.525 4.83027 117.101 5.0033C117.065 5.01795 117.073 4.98412 117.137 4.86173C117.335 4.48054 117.183 4.0286 116.796 3.84837C116.57 3.74311 116.245 3.7641 116.051 3.89653C115.958 3.95976 115.953 3.94912 116.019 3.8258C116.087 3.70031 116.085 3.37281 116.016 3.24179C115.925 3.0672 115.836 2.97407 115.687 2.89533C115.407 2.74749 115.093 2.76862 114.846 2.9519C114.773 3.00601 114.721 3.03151 114.73 3.00858C114.823 2.77356 114.756 2.46116 114.573 2.26767C114.265 1.94359 113.779 1.93041 113.463 2.23757L113.356 2.34086L113.356 2.16356C113.354 1.79406 113.131 1.52527 112.754 1.43767C112.452 1.36781 112.088 1.52445 111.938 1.78881C111.909 1.83866 111.905 1.8335 111.905 1.74457C111.9 1.22768 111.376 0.859355 110.885 1.02762C110.714 1.08622 110.577 1.19329 110.477 1.34662C110.393 1.47468 110.393 1.47494 110.393 1.39027C110.393 1.24252 110.305 1.0474 110.185 0.926587C109.811 0.553044 109.177 0.648066 108.944 1.11237L108.887 1.22455L108.868 1.13991C108.831 0.984649 108.824 0.967327 108.738 0.836079C108.633 0.674728 108.409 0.543424 108.195 0.517439C107.881 0.479352 107.558 0.652524 107.421 0.932568L107.351 1.07671L107.304 0.944615C107.24 0.760552 107.112 0.615226 106.931 0.518822C106.8 0.449446 106.744 0.436891 106.573 0.438245C106.343 0.440051 106.19 0.50006 106.037 0.648349C105.937 0.746023 105.832 0.925599 105.83 1.00477C105.83 1.03256 105.793 0.97864 105.748 0.884972C105.583 0.538571 105.222 0.362267 104.854 0.447527ZM1.54694 0.840029C1.28064 0.958157 1.06824 1.31429 1.10508 1.58093C1.11972 1.6869 1.11737 1.6902 1.00493 1.72293C0.851274 1.76765 0.651653 1.94274 0.571845 2.10285C0.481927 2.28319 0.482275 2.55917 0.5726 2.73401C0.687853 2.95709 0.822977 3.0663 1.0821 3.14589C1.16214 3.17049 1.17768 3.18217 1.13201 3.18347C0.942907 3.18886 0.660078 3.4004 0.563681 3.60856C0.523007 3.69636 0.505227 3.7935 0.506012 3.92353C0.507958 4.24855 0.712983 4.51618 1.04375 4.62559C1.16606 4.66604 1.1814 4.6771 1.11725 4.67868C0.923238 4.68342 0.61862 4.9324 0.542415 5.14855C0.476087 5.33662 0.496337 5.58385 0.592066 5.75476C0.680154 5.91199 0.878322 6.07625 1.01641 6.10647C1.12719 6.1307 1.13983 6.16617 1.0443 6.1847C1.00005 6.19331 0.900025 6.24246 0.822047 6.29394C0.336983 6.61419 0.421933 7.35961 0.968386 7.57781C1.03878 7.60594 1.09645 7.63644 1.09651 7.64564C1.09657 7.65481 1.04761 7.67667 0.987677 7.69419C0.721554 7.77209 0.51066 8.06288 0.506128 8.35825C0.504646 8.45366 0.520974 8.58147 0.542415 8.64224C0.615947 8.85079 0.92472 9.109 1.10273 9.1108C1.14427 9.11123 1.10505 9.1371 0.998223 9.17976C0.794563 9.26107 0.678817 9.36122 0.589596 9.53332C0.502409 9.70156 0.479399 9.86508 0.518185 10.0407C0.574285 10.2948 0.837968 10.5544 1.0821 10.5961L1.19831 10.6158L1.0821 10.646C0.841338 10.7084 0.643692 10.8712 0.551624 11.083C0.483873 11.2388 0.493984 11.5254 0.5726 11.6776C0.687853 11.9007 0.822977 12.0099 1.0821 12.0895C1.1742 12.1178 1.18323 12.1257 1.12568 12.1277C0.922657 12.1347 0.619346 12.3787 0.542415 12.5968C0.520974 12.6576 0.504646 12.7854 0.506128 12.8808C0.51098 13.1959 0.711995 13.4549 1.03744 13.5652C1.1644 13.6083 1.18123 13.6203 1.11725 13.622C0.922773 13.6273 0.618562 13.8761 0.542415 14.0921C0.476262 14.2797 0.496366 14.5275 0.591485 14.6972C0.681374 14.8576 0.875359 15.0204 1.01109 15.0493C1.12286 15.0732 1.1192 15.1003 0.998455 15.1427C0.830327 15.2017 0.678759 15.3294 0.591223 15.4857C0.356187 15.9056 0.609585 16.4591 1.0821 16.5578C1.16783 16.5758 1.16685 16.5769 1.02306 16.6239C0.714407 16.7248 0.510892 16.9918 0.506128 17.3018C0.504646 17.3972 0.520974 17.525 0.542415 17.5858C0.619346 17.804 0.922657 18.048 1.12568 18.055C1.18323 18.0569 1.1742 18.0649 1.0821 18.0932C0.708945 18.2078 0.506651 18.462 0.507406 18.8154C0.50819 19.1759 0.720624 19.4426 1.0821 19.5368L1.19831 19.5671L1.08558 19.5882C0.871146 19.6284 0.643663 19.8158 0.550869 20.0286C0.480242 20.1906 0.494245 20.4696 0.581258 20.6352C0.678381 20.82 0.790932 20.9203 0.988606 20.9983L1.15005 21.062L1.02629 21.0942C0.854615 21.1388 0.621322 21.348 0.55421 21.5177C0.475332 21.7169 0.488899 21.9624 0.588608 22.1404C0.690002 22.3213 0.761937 22.386 0.971494 22.4852C1.06429 22.5291 1.11682 22.5656 1.0882 22.5664C1.00668 22.5686 0.830153 22.6666 0.721699 22.7699C0.490062 22.9904 0.433903 23.3596 0.589741 23.6377C0.658277 23.7599 0.847875 23.9503 0.901158 23.9503C0.908886 23.9503 0.965393 23.9706 1.02675 23.9955L1.13832 24.0408L1.02893 24.0773C0.536575 24.2417 0.348459 24.7815 0.636429 25.2037C0.72934 25.3399 0.9201 25.4685 1.07722 25.5007L1.16926 25.5196L1.02306 25.5675C0.707347 25.6707 0.507929 25.9382 0.506012 26.261C0.504588 26.4967 0.577481 26.6607 0.753192 26.8172C0.911413 26.9581 1.05493 27.0096 1.28547 27.0079C1.56487 27.0059 1.82286 26.8497 1.94215 26.6104L2.00778 26.4787L2.03883 26.563C2.21879 27.0512 2.82137 27.2114 3.24688 26.8842C3.36053 26.7967 3.50725 26.5529 3.50896 26.4486C3.50948 26.4168 3.5338 26.4579 3.56303 26.5401C3.67023 26.8415 3.91369 27.0257 4.23461 27.0483C4.60596 27.0744 4.88225 26.8887 5.02374 26.518C5.05762 26.4293 5.07301 26.4102 5.07458 26.4551C5.07583 26.4905 5.10889 26.5809 5.14806 26.656C5.44602 27.227 6.30627 27.1684 6.5452 26.5608L6.5982 26.4261L6.6355 26.5503C6.72059 26.8338 7.03587 27.0539 7.35592 27.0534C7.67428 27.0529 7.99093 26.8391 8.07448 26.5683C8.1076 26.461 8.15644 26.4231 8.15644 26.5047C8.15644 26.6506 8.37959 26.9017 8.59223 26.995C8.98345 27.1668 9.49435 26.9476 9.61308 26.5571L9.65123 26.4316L9.71881 26.5804C9.93359 27.0536 10.4943 27.2024 10.9081 26.8959C11.0198 26.8132 11.1759 26.564 11.1805 26.4612C11.1829 26.408 11.1936 26.4213 11.224 26.5157C11.3925 27.0371 12.0155 27.2234 12.4566 26.8842C12.5702 26.7967 12.717 26.5529 12.7187 26.4486C12.7192 26.4168 12.7435 26.4579 12.7727 26.5401C12.8424 26.7359 12.9674 26.882 13.1382 26.9674C13.3023 27.0494 13.5637 27.0752 13.7242 27.0251C13.9623 26.9509 14.1955 26.7116 14.2431 26.4927L14.2638 26.3973L14.3151 26.5443C14.4156 26.8326 14.7088 27.0338 15.0305 27.0352C15.3711 27.0368 15.6787 26.8138 15.7694 26.4995L15.8031 26.3826L15.8946 26.5534C16.0892 26.9165 16.5521 27.0602 16.9246 26.8732C17.0687 26.8009 17.2413 26.5915 17.2961 26.4227L17.3474 26.2646L17.4171 26.384C17.5182 26.5576 17.5949 26.6296 17.7584 26.7045C18.0312 26.8294 18.3716 26.784 18.6067 26.5912C18.7231 26.4958 18.8476 26.2449 18.8487 26.1033L18.8496 25.9957L18.9173 26.1025C19.0829 26.3641 19.3003 26.4891 19.5887 26.4885C19.9964 26.4877 20.3143 26.2034 20.3514 25.8064L20.3668 25.6413L20.4174 25.722C20.532 25.905 20.8311 26.0662 21.0559 26.0662C21.2453 26.0662 21.4461 25.9782 21.595 25.8299C21.759 25.6667 21.8278 25.4961 21.821 25.2693L21.817 25.1353L21.9491 25.2483C22.0801 25.3602 22.2969 25.4456 22.4504 25.4456C22.6033 25.4456 22.8207 25.3602 22.9505 25.2492C23.1336 25.0927 23.2136 24.9032 23.1993 24.6594C23.1932 24.5564 23.1774 24.449 23.164 24.4207C23.1462 24.3828 23.1739 24.3926 23.2691 24.4578C23.6536 24.721 24.1976 24.589 24.3985 24.1838C24.4912 23.9969 24.4924 23.7032 24.4011 23.5327L24.3362 23.4114L24.4317 23.4594C24.4842 23.4858 24.6156 23.5135 24.7236 23.521C25.1304 23.5493 25.4325 23.3318 25.5284 22.9416C25.5834 22.718 25.5175 22.486 25.343 22.2882C25.2842 22.2216 25.2842 22.2207 25.3411 22.2445C25.3731 22.2578 25.4861 22.2735 25.5923 22.2794C25.9225 22.2977 26.1842 22.1383 26.3237 21.8343C26.445 21.5697 26.3642 21.202 26.1418 21.0068L26.0342 20.9125L26.1711 20.9253C26.4463 20.9509 26.7666 20.7764 26.9032 20.5264C26.9934 20.3614 26.9942 20.0071 26.9047 19.8452C26.8416 19.7309 26.693 19.5793 26.5946 19.5288C26.5516 19.5067 26.573 19.4978 26.6998 19.4851C27.3681 19.4181 27.6334 18.6074 27.1253 18.1851C27.0557 18.1272 26.9657 18.0718 26.9253 18.0619C26.8638 18.0469 26.8787 18.0381 27.0182 18.0074C27.3125 17.9425 27.5135 17.7758 27.6067 17.5192C27.7479 17.1303 27.5252 16.7004 27.1133 16.5673L27.0262 16.5391L27.1604 16.5194C27.5494 16.4621 27.8517 16.0365 27.7663 15.6663C27.7002 15.3802 27.5571 15.2134 27.2844 15.1045C27.1781 15.0621 27.1384 15.036 27.1796 15.0356C27.3631 15.0337 27.6291 14.8413 27.7461 14.6258C27.8353 14.4613 27.8361 14.0258 27.7475 13.864C27.6556 13.6966 27.4866 13.5473 27.3195 13.486C27.199 13.4418 27.1822 13.4282 27.2296 13.4125C27.4079 13.3534 27.4586 13.3249 27.5664 13.2234C27.7295 13.0697 27.7948 12.9181 27.7948 12.6932C27.7948 12.4896 27.7397 12.3426 27.6056 12.1884C27.5203 12.0902 27.275 11.9608 27.1715 11.9594C27.1348 11.9589 27.172 11.9272 27.2723 11.8735C27.4853 11.7596 27.5509 11.6951 27.6398 11.5125C27.7029 11.383 27.7131 11.3285 27.7033 11.1723C27.6969 11.07 27.6685 10.94 27.6402 10.8833C27.5378 10.6779 27.3031 10.5055 27.0698 10.4642L26.9681 10.4463L27.0698 10.4026C27.2129 10.3412 27.3851 10.1683 27.4502 10.0207C27.5222 9.85772 27.5227 9.58662 27.4513 9.43458C27.3303 9.17685 27.1178 9.02535 26.8394 8.99843L26.6816 8.98317L26.8195 8.89878C26.9882 8.79555 27.1146 8.61685 27.1559 8.42331C27.2538 7.96515 26.8862 7.53109 26.3996 7.53036L26.296 7.53019L26.4343 7.3909C26.5783 7.2458 26.663 7.05028 26.663 6.86312C26.663 6.63707 26.4538 6.31539 26.2367 6.20764C26.113 6.14622 25.8929 6.11612 25.7675 6.14348C25.6283 6.17387 25.617 6.15604 25.7174 6.06443C25.9081 5.89044 25.9686 5.51131 25.8461 5.25815C25.7643 5.08927 25.5582 4.91669 25.3752 4.8639C25.1876 4.80982 25.0856 4.81182 24.9032 4.87307L24.7557 4.92259L24.8228 4.82649C25.0795 4.45913 24.9231 3.94635 24.4946 3.75075C24.4083 3.7114 24.3091 3.6932 24.1807 3.6932C23.989 3.6932 23.892 3.72034 23.7505 3.81364C23.6575 3.87495 23.6567 3.87334 23.7142 3.73986C23.8065 3.52536 23.7476 3.20429 23.5797 3.00649C23.4742 2.88221 23.2558 2.76775 23.0793 2.74425C22.9029 2.72077 22.6485 2.79788 22.5146 2.91536L22.4068 3.0099L22.4056 2.78025C22.4042 2.52949 22.3717 2.44276 22.2129 2.26716C22.0624 2.10065 21.9198 2.04377 21.6514 2.04321C21.4497 2.04278 21.4011 2.05297 21.2832 2.12029C21.2084 2.16294 21.1099 2.24183 21.0643 2.2956L20.9813 2.39336L20.9791 2.24524C20.9732 1.85003 20.639 1.52078 20.2437 1.52078C19.942 1.52078 19.7294 1.62653 19.5744 1.85376L19.487 1.98187V1.85562C19.487 1.70104 19.3731 1.46681 19.2485 1.36493C19.0823 1.22914 18.934 1.17404 18.7317 1.17292C18.4217 1.17117 18.1739 1.31991 18.0394 1.58855L17.9849 1.69731L17.9653 1.57825C17.9244 1.33015 17.7473 1.10512 17.5139 1.00485C17.3567 0.937364 17.0766 0.931552 16.9263 0.992662C16.7671 1.05744 16.5805 1.23558 16.5061 1.39383C16.4481 1.51737 16.4396 1.52513 16.4382 1.45637C16.4356 1.33858 16.3106 1.12117 16.179 1.0057C16.0626 0.903593 15.832 0.815455 15.6811 0.815455C15.4049 0.815455 15.0987 1.01405 14.9793 1.27053L14.9143 1.41022L14.8724 1.28255C14.7363 0.868496 14.2089 0.661609 13.7973 0.860822C13.6322 0.940722 13.4511 1.14109 13.4236 1.2742C13.3994 1.39171 13.3693 1.39033 13.3322 1.27003C13.2872 1.12405 13.0963 0.919957 12.9365 0.847054C12.8448 0.805186 12.7485 0.787242 12.6154 0.787242C12.4097 0.787242 12.2786 0.828461 12.1268 0.940834C12.0275 1.01441 11.8752 1.25251 11.8752 1.33415C11.8752 1.35921 11.8621 1.37972 11.8461 1.37972C11.8302 1.37972 11.8171 1.36017 11.8171 1.33627C11.8171 1.19495 11.5663 0.908361 11.375 0.830944C11.2234 0.769637 10.9031 0.774828 10.7567 0.840932C10.5881 0.916994 10.4238 1.09666 10.3627 1.27175C10.3212 1.39072 10.3062 1.41027 10.291 1.36561C10.1976 1.09096 10.0922 0.956267 9.89655 0.861584C9.6953 0.764192 9.41076 0.758126 9.21596 0.847054C9.04751 0.923935 8.86361 1.12738 8.81329 1.29251L8.77384 1.42204L8.74034 1.30332C8.62149 0.881897 8.07486 0.654866 7.66484 0.856646C7.48977 0.942781 7.33091 1.1192 7.28123 1.28261L7.24346 1.40677L7.19215 1.27335C7.07425 0.966819 6.80801 0.787242 6.47138 0.787242C6.13475 0.787242 5.86851 0.966819 5.75061 1.27335L5.6993 1.40677L5.66154 1.28261C5.53489 0.866041 4.99172 0.656925 4.57952 0.866041C4.40068 0.956775 4.25132 1.12998 4.20242 1.30332L4.16892 1.42204L4.12947 1.29251C4.10777 1.22127 4.03775 1.10537 3.97392 1.03493C3.81663 0.861414 3.64647 0.787242 3.40571 0.787242C3.19996 0.787242 3.06887 0.828461 2.91713 0.940834C2.8178 1.01441 2.66547 1.25251 2.66547 1.33415C2.66547 1.35921 2.6524 1.37972 2.63642 1.37972C2.62044 1.37972 2.60737 1.36017 2.60737 1.33627C2.60737 1.19495 2.35661 0.908361 2.16524 0.830944C2.01501 0.770173 1.6938 0.774885 1.54694 0.840029ZM30.0477 0.840847C29.9118 0.90207 29.7573 1.04398 29.6933 1.1664C29.6684 1.21391 29.6452 1.25609 29.6417 1.26018C29.6382 1.26427 29.588 1.24839 29.5301 1.22491C29.3687 1.15943 29.0876 1.17024 28.9144 1.24856C28.6389 1.37314 28.4876 1.61039 28.4877 1.91732C28.4878 2.2405 28.6987 2.53372 28.9928 2.61946L29.118 2.65594L28.9872 2.7056C28.6719 2.82533 28.4844 3.08836 28.4865 3.40844C28.4886 3.73478 28.6699 3.9915 28.9793 4.10624L29.108 4.15395L28.9698 4.2049C28.4716 4.38854 28.3246 4.99631 28.6793 5.40577C28.7462 5.4829 28.919 5.58323 29.0599 5.62665C29.1073 5.64126 29.0932 5.65379 28.9834 5.69464C28.7885 5.76726 28.659 5.87385 28.5674 6.03729C28.5 6.15753 28.4869 6.21503 28.4869 6.38936C28.4869 6.5675 28.4993 6.61927 28.5725 6.74654C28.6632 6.90439 28.8746 7.06958 29.0225 7.09833C29.1308 7.11935 29.1248 7.15306 29.009 7.17507C28.9571 7.18494 28.8558 7.23497 28.7839 7.28626C28.3087 7.62518 28.4162 8.3682 28.9699 8.57125C29.0888 8.61482 29.1065 8.62909 29.0599 8.64359C28.8133 8.72028 28.6082 8.8961 28.5236 9.10333C28.4705 9.23333 28.4774 9.52452 28.537 9.66756C28.5984 9.81515 28.823 10.0168 28.9832 10.0681L29.1018 10.1061L28.9627 10.1687C28.6452 10.3116 28.4855 10.5427 28.4855 10.8593C28.4855 11.1776 28.6942 11.4708 28.9877 11.5648L29.1081 11.6034L28.9823 11.6511C28.672 11.7687 28.4845 12.0339 28.4865 12.352C28.4886 12.6785 28.6699 12.9351 28.9798 13.05L29.1087 13.0978L28.9653 13.1498C28.668 13.2575 28.4844 13.5266 28.4866 13.8519C28.4877 14.0407 28.5223 14.1396 28.647 14.3118C28.7205 14.4132 28.9477 14.5553 29.0365 14.5553C29.1402 14.5553 29.1156 14.5992 28.9919 14.6352C28.8194 14.6854 28.6612 14.8132 28.57 14.9761C28.5 15.1011 28.4869 15.1573 28.4869 15.3311C28.4869 15.505 28.5 15.5612 28.57 15.6861C28.6626 15.8513 28.861 16.0108 29.009 16.0389C29.1311 16.0621 29.1294 16.096 29.005 16.1186C28.9509 16.1285 28.8493 16.1791 28.7793 16.231C28.3097 16.5792 28.4186 17.3126 28.9699 17.5148C29.0888 17.5584 29.1065 17.5727 29.0599 17.5872C28.8133 17.6639 28.6082 17.8397 28.5236 18.0469C28.4705 18.1769 28.4774 18.4681 28.537 18.6111C28.5988 18.7597 28.8234 18.9604 28.9861 19.0126L29.1075 19.0515L28.9384 19.1261C28.6416 19.2571 28.4893 19.486 28.4882 19.8029C28.4872 20.1152 28.638 20.3441 28.9347 20.4804L29.1006 20.5566L28.9839 20.594C28.8268 20.6443 28.6286 20.819 28.5503 20.9762C28.4758 21.1255 28.4629 21.4106 28.5239 21.5589C28.6124 21.7745 28.8088 21.9493 29.0263 22.0062L29.1435 22.0368L28.9927 22.0864C28.6673 22.1934 28.4843 22.4505 28.4866 22.7976C28.4875 22.951 28.5035 23.0156 28.5695 23.1333C28.6628 23.2999 28.8086 23.4278 28.9574 23.4739C29.1008 23.5183 29.1206 23.5449 29.0243 23.5636C28.8747 23.5927 28.6636 23.7571 28.5725 23.9157C28.4993 24.043 28.4869 24.0948 28.4869 24.2729C28.4869 24.4488 28.4999 24.5044 28.57 24.6297C28.6626 24.7949 28.861 24.9544 29.009 24.9825C29.1363 25.0066 29.1279 25.0324 28.98 25.0715C28.8159 25.1149 28.6694 25.2379 28.5695 25.4161C28.4652 25.6021 28.4542 25.8737 28.5429 26.0675C28.6701 26.345 29.0299 26.5467 29.327 26.5072L29.4545 26.4902L29.5078 26.6111C29.5743 26.7616 29.8152 26.9756 29.9682 27.0202C30.3644 27.1355 30.7846 26.9417 30.9237 26.5796L30.9791 26.4353L31.0313 26.5782C31.1672 26.9497 31.6098 27.1438 32.015 27.0097C32.1924 26.951 32.3954 26.7537 32.4613 26.5757L32.5129 26.4363L32.5788 26.5937C32.6593 26.7862 32.7593 26.8912 32.9498 26.9834C33.2407 27.1242 33.6168 27.0514 33.8399 26.8111C33.9323 26.7114 33.9583 26.6652 34.0289 26.4753C34.047 26.4266 34.0535 26.4317 34.0769 26.5137C34.2002 26.9469 34.713 27.1771 35.1319 26.9873C35.2913 26.9151 35.4638 26.748 35.5149 26.6162C35.533 26.5698 35.5573 26.5064 35.5691 26.4753C35.5879 26.4255 35.5927 26.4289 35.6105 26.5035C35.7148 26.9426 36.2584 27.1849 36.6804 26.9807C36.8649 26.8914 37.0235 26.7175 37.0763 26.5467C37.1085 26.4427 37.1196 26.4294 37.1362 26.4753C37.2019 26.6576 37.232 26.7114 37.3246 26.8111C37.6795 27.1935 38.3235 27.1122 38.5621 26.6549C38.7066 26.378 38.674 26.0762 38.4752 25.8507L38.3736 25.7354L38.4401 25.6747C38.6205 25.5102 38.6961 25.2076 38.6201 24.9541C38.555 24.7363 38.3303 24.5055 38.134 24.4546L37.9983 24.4194L38.163 24.3552C38.4457 24.2451 38.6618 23.9474 38.6618 23.6681C38.6618 23.5255 38.5752 23.3122 38.468 23.1905C38.3628 23.0712 38.1256 22.938 38.0081 22.9323C37.9762 22.9308 38.0125 22.9129 38.0889 22.8925C38.4039 22.8083 38.6618 22.4838 38.6618 22.1716C38.6618 21.8947 38.4233 21.5743 38.1462 21.4787L38.0004 21.4284L38.1447 21.3809C38.4193 21.2907 38.6618 20.9673 38.6618 20.6916C38.6618 20.4209 38.42 20.0753 38.178 20.0001C38.0432 19.9582 37.988 19.9159 38.0677 19.9155C38.0988 19.9153 38.1913 19.878 38.2731 19.8324C38.44 19.7394 38.5753 19.5649 38.6315 19.37C38.6672 19.2462 38.6694 19.2446 38.8385 19.2122C39.1165 19.1591 39.3207 18.9794 39.417 18.7032L39.4679 18.557L39.4886 18.6641C39.5185 18.8187 39.5701 18.9019 39.7178 19.0342C40.1316 19.4046 40.7716 19.2293 40.9595 18.6941C41.0039 18.5677 41.0113 18.5591 41.0133 18.6321C41.0171 18.7692 41.1753 19.0055 41.3253 19.0979C41.5994 19.2667 41.8838 19.2705 42.169 19.1092C42.2979 19.0363 42.4511 18.8474 42.4837 18.7212C42.5052 18.6379 42.5549 18.6467 42.5549 18.7339C42.5549 18.8758 42.7493 19.1165 42.9471 19.2195C43.0381 19.2669 43.1137 19.28 43.2957 19.2801C43.5477 19.2802 43.6369 19.2488 43.8146 19.0973L43.913 19.0134L43.9325 19.1319C43.9971 19.5243 44.2957 19.8029 44.6516 19.8029H44.8037L44.6978 19.9087C44.4166 20.1893 44.3984 20.5908 44.6522 20.9081C44.7369 21.0139 44.9882 21.156 45.0954 21.1586C45.1283 21.1594 45.0887 21.1849 45.0076 21.2152C44.3227 21.4711 44.3194 22.3713 45.0025 22.619L45.1403 22.669L45.0073 22.7036C44.912 22.7283 44.8312 22.78 44.7226 22.8857C44.4504 23.1506 44.4108 23.502 44.6174 23.8184C44.7091 23.9588 44.8573 24.0653 45.0382 24.1209L45.1537 24.1563L45.021 24.1939C44.948 24.2146 44.829 24.2822 44.7565 24.3442C44.3418 24.6987 44.4225 25.3178 44.9151 25.5619L45.0317 25.6196L44.9481 25.6693C44.7272 25.8007 44.5595 26.0799 44.5595 26.3162C44.5595 26.8333 45.1515 27.2071 45.6345 26.995C45.86 26.896 46.0703 26.6499 46.0703 26.4849C46.0703 26.3998 46.1124 26.448 46.1574 26.5848C46.207 26.7353 46.3757 26.9085 46.5496 26.9873C46.9685 27.1771 47.4813 26.9469 47.6047 26.5137C47.628 26.4317 47.6345 26.4266 47.6526 26.4753C47.7232 26.6652 47.7492 26.7114 47.8417 26.8111C48.2379 27.2379 49.0121 27.0625 49.1352 26.518L49.1572 26.4211L49.2135 26.5677C49.4588 27.2063 50.4081 27.2107 50.6525 26.5743L50.7059 26.4353L50.7581 26.5782C50.8685 26.88 51.1849 27.0732 51.5278 27.0481C51.8275 27.0261 52.07 26.8507 52.1918 26.5677C52.227 26.4859 52.2564 26.4415 52.2571 26.4692C52.2579 26.4969 52.2905 26.5809 52.3297 26.656C52.5582 27.0938 53.1633 27.1902 53.5321 26.8475C53.6342 26.7527 53.7402 26.578 53.7402 26.5047C53.7402 26.4706 53.7763 26.4612 53.9072 26.4611C54.1791 26.4608 54.2885 26.4176 54.468 26.2396C54.6534 26.0559 54.7139 25.9014 54.6932 25.6647C54.6683 25.3794 54.4743 25.1276 54.2039 25.0297L54.0621 24.9783L54.2081 24.928C54.2883 24.9003 54.4026 24.8305 54.4621 24.7728C54.8765 24.3703 54.7167 23.7019 54.1643 23.5275L54.051 23.4917L54.1585 23.4558C54.7177 23.2691 54.882 22.595 54.4618 22.2113C54.3558 22.1145 54.2046 22.0318 54.1338 22.0318C54.0467 22.0318 54.0902 21.9839 54.2087 21.9494C54.38 21.8996 54.59 21.6867 54.6548 21.4972C54.7177 21.3132 54.7025 21.0755 54.6175 20.9153C54.5173 20.7264 54.2675 20.5365 54.1193 20.5365C54.0865 20.5365 54.0598 20.5238 54.0598 20.5082C54.0598 20.4927 54.0799 20.48 54.1045 20.48C54.2651 20.48 54.5406 20.2365 54.6261 20.0188C54.6915 19.8527 54.6741 19.5819 54.5876 19.4172C54.5028 19.2559 54.31 19.1042 54.1224 19.0512L53.9656 19.007L54.078 18.9578C54.4148 18.8105 54.6 18.4015 54.4837 18.0615C54.3853 17.7738 54.1341 17.5804 53.8233 17.553L53.6552 17.5382L53.734 17.4796C53.9574 17.3133 54.0422 17.1452 54.0422 16.8687C54.0422 16.6283 53.9858 16.493 53.8226 16.3414C53.6173 16.1506 53.2672 16.0788 53.0239 16.1775C52.9665 16.2008 52.9154 16.2198 52.9103 16.2198C52.9051 16.2198 52.9279 16.1606 52.9609 16.0882C53.0093 15.9819 53.0183 15.9171 53.0074 15.7526C52.9911 15.5064 52.9017 15.3381 52.7171 15.2063C52.5585 15.093 52.4036 15.0535 52.1845 15.0704C51.9739 15.0866 51.858 15.1406 51.705 15.2937L51.5903 15.4085V15.2355C51.5903 15.1206 51.5705 15.0217 51.5315 14.941L51.4726 14.8195L51.5337 14.6855C51.5818 14.5799 51.5927 14.5077 51.5853 14.3455L51.5757 14.1395L51.6907 14.2352C51.8062 14.3313 52.0287 14.4142 52.1713 14.4142C52.4323 14.4142 52.7298 14.2292 52.8552 13.9888C52.9542 13.7992 52.9553 13.5195 52.858 13.3328C52.8203 13.2603 52.7935 13.201 52.7985 13.201C52.8035 13.201 52.8818 13.2198 52.9724 13.2427C53.2208 13.3055 53.4521 13.2469 53.6536 13.0702C53.8371 12.9092 53.8969 12.775 53.8969 12.5239C53.8969 12.2799 53.8424 12.1518 53.6655 11.9808L53.5562 11.875H53.7026C53.9737 11.875 54.2665 11.6876 54.3823 11.44C54.4579 11.2784 54.456 10.9817 54.3784 10.8213C54.3076 10.6751 54.1711 10.541 54.0207 10.47L53.9103 10.4178L54.0728 10.3825C54.2737 10.3389 54.4504 10.2123 54.5676 10.0283C54.6463 9.90461 54.6553 9.86697 54.6552 9.66248C54.6551 9.46423 54.6446 9.4172 54.5744 9.30104C54.4803 9.14539 54.346 9.03361 54.1752 8.96875L54.0536 8.92259L54.193 8.87091C54.5677 8.73193 54.7802 8.3223 54.6674 7.95655C54.5891 7.70277 54.2865 7.4471 54.061 7.44425C53.9596 7.44298 53.9607 7.44177 54.133 7.36427C54.4347 7.22862 54.5829 7.00224 54.5824 6.67787C54.5822 6.50162 54.5698 6.45126 54.4957 6.32585C54.3598 6.09569 54.1226 5.95025 53.8832 5.95025H53.7629L53.9041 5.85602C53.9817 5.80419 54.0845 5.70045 54.1324 5.62546C54.2054 5.51128 54.2212 5.45407 54.2297 5.27285C54.2384 5.086 54.2299 5.03764 54.167 4.91796C54.0494 4.69398 53.8801 4.56772 53.6223 4.51172C53.51 4.48731 53.4317 4.48531 53.3583 4.505L53.2539 4.53299L53.3736 4.36462C53.4924 4.19734 53.4932 4.19446 53.4932 3.93764C53.4932 3.69687 53.4872 3.67046 53.4058 3.5534C53.2132 3.27626 52.9114 3.1493 52.5964 3.21281C52.5106 3.23011 52.4158 3.26233 52.3858 3.28445C52.2981 3.34894 52.2838 3.33334 52.3307 3.22424C52.4006 3.06182 52.388 2.78572 52.3032 2.62333C52.1778 2.38295 51.8803 2.1979 51.6193 2.1979C51.4677 2.1979 51.249 2.28322 51.1217 2.39204L50.9933 2.50181L50.9913 2.30048C50.9881 1.97911 50.813 1.73379 50.5054 1.61973C50.314 1.54877 50.0174 1.57123 49.8606 1.66856C49.7388 1.74423 49.6146 1.86431 49.5613 1.95809C49.5331 2.00788 49.5292 2.00269 49.5284 1.91374C49.525 1.52885 49.1598 1.18223 48.7576 1.18223C48.4832 1.18223 48.1928 1.35435 48.0821 1.5826L48.0241 1.70245L48.0037 1.5857C47.9701 1.39216 47.8199 1.18087 47.6431 1.07826C47.244 0.846715 46.7584 0.983408 46.5522 1.38533C46.5095 1.46848 46.4769 1.50812 46.4767 1.47694C46.4762 1.37484 46.3415 1.1405 46.2246 1.03809C46.0554 0.890079 45.8796 0.832693 45.6501 0.850581C45.3457 0.874308 45.1034 1.05143 44.9909 1.33246L44.9477 1.44041L44.9101 1.31835C44.8414 1.09513 44.7253 0.968455 44.4869 0.856167C44.0771 0.663245 43.5761 0.889232 43.443 1.3271L43.4062 1.44808L43.3851 1.33923C43.3472 1.14276 43.1958 0.959907 42.9844 0.855151C42.8787 0.802787 42.8013 0.787242 42.6463 0.787242C42.2953 0.787242 42.0287 0.974041 41.9143 1.30016C41.8775 1.40514 41.8611 1.42892 41.8596 1.3793C41.857 1.28605 41.7578 1.10614 41.6466 0.992718C41.433 0.775026 41.0517 0.718797 40.7568 0.861527C40.5856 0.944361 40.4339 1.12129 40.374 1.3078L40.3374 1.42204L40.3179 1.3374C40.272 1.13751 40.0703 0.910026 39.8652 0.826825C39.7243 0.769665 39.3992 0.777001 39.2574 0.840565C39.1025 0.909997 38.9382 1.07581 38.8739 1.22771C38.8452 1.29567 38.8151 1.35131 38.8071 1.35131C38.7991 1.35131 38.7689 1.29533 38.7399 1.22697C38.674 1.07146 38.5139 0.909066 38.3591 0.840762C38.1901 0.766223 37.8873 0.769157 37.7167 0.847054C37.5484 0.92385 37.3641 1.12758 37.3151 1.29099L37.2766 1.41902L37.2296 1.28506C37.1192 0.970345 36.853 0.787242 36.5059 0.787242C36.2581 0.787242 36.089 0.859214 35.9333 1.03109C35.8713 1.09942 35.8037 1.21098 35.7831 1.279L35.7454 1.40268L35.68 1.24627C35.5998 1.05473 35.4996 0.949609 35.3094 0.857577C35.0214 0.718176 34.6304 0.781853 34.4146 1.00327C34.3285 1.09155 34.2195 1.30541 34.2154 1.39383C34.214 1.42534 34.1966 1.40043 34.1761 1.3374C34.0569 0.971361 33.8095 0.787242 33.4368 0.787242C33.273 0.787242 33.2067 0.801885 33.0803 0.866041C32.9014 0.956775 32.752 1.12998 32.7032 1.30332L32.6697 1.42204L32.6302 1.29251C32.5799 1.12738 32.396 0.923935 32.2275 0.847054C32.0328 0.758154 31.7482 0.764192 31.5471 0.861527C31.3759 0.944361 31.2241 1.12129 31.1643 1.3078L31.1277 1.42204L31.1082 1.3374C31.0623 1.13751 30.8606 0.910026 30.6555 0.826825C30.5142 0.769496 30.1894 0.777001 30.0477 0.840847ZM57.0377 0.840029C56.9314 0.887173 56.6751 1.12292 56.6741 1.17455C56.6725 1.25121 56.6242 1.26715 56.5208 1.22519C56.3749 1.166 56.0783 1.17091 55.9337 1.2349C55.6382 1.36572 55.4782 1.60483 55.4782 1.91577C55.4782 2.23974 55.6457 2.48071 55.956 2.60318L56.1171 2.66675L55.9897 2.70328C55.8234 2.75099 55.6228 2.92478 55.5423 3.09102C55.4562 3.26915 55.4539 3.55478 55.5375 3.71388C55.6337 3.89704 55.738 3.99717 55.9218 4.08285L56.0948 4.16348L55.9807 4.19669C55.826 4.24169 55.5887 4.45428 55.5276 4.60259C55.4983 4.67375 55.4782 4.79941 55.4782 4.91181C55.4782 5.06591 55.4934 5.12826 55.5597 5.24656C55.6593 5.42436 55.806 5.5474 55.97 5.59076C56.0379 5.6087 56.0934 5.63048 56.0934 5.63915C56.0934 5.64781 56.0306 5.67656 55.9538 5.70302C55.6589 5.80476 55.4789 6.07168 55.4799 6.40558C55.4805 6.57108 55.4945 6.62827 55.5643 6.74973C55.6532 6.90436 55.866 7.06986 56.0125 7.09833C56.1208 7.11935 56.1148 7.15306 55.999 7.17507C55.8515 7.20309 55.6525 7.36269 55.5607 7.52672C55.4563 7.71301 55.4456 7.99094 55.5353 8.18349C55.6149 8.35438 55.7975 8.51497 55.9805 8.57515L56.1335 8.62545L56.013 8.65697C55.8427 8.70149 55.6634 8.84554 55.5636 9.01801C55.4925 9.14105 55.4782 9.19764 55.4782 9.35685C55.4782 9.47089 55.4981 9.5963 55.5276 9.66782C55.5888 9.81641 55.8131 10.0168 55.9769 10.0693L56.0992 10.1085L55.9583 10.1691C55.6384 10.3068 55.4782 10.538 55.4782 10.862C55.4782 11.0193 55.493 11.0806 55.5598 11.1998C55.6503 11.3612 55.8173 11.5058 55.9865 11.5692L56.0975 11.6108L55.9774 11.6493C55.8147 11.7014 55.6203 11.8736 55.5423 12.0346C55.4562 12.2127 55.4539 12.4984 55.5375 12.6575C55.6337 12.8406 55.738 12.9407 55.9218 13.0264L56.0948 13.1071L55.9751 13.1419C55.8211 13.1867 55.6062 13.3785 55.5344 13.5352C55.4614 13.6943 55.4581 14.0019 55.5278 14.1357C55.6449 14.3604 55.8797 14.5553 56.0333 14.5553C56.1364 14.5553 56.0996 14.5963 55.9502 14.6479C55.402 14.8369 55.3035 15.6167 55.788 15.9326C55.867 15.9841 55.968 16.0333 56.0125 16.0419C56.1161 16.062 56.1161 16.0955 56.0125 16.1157C55.8651 16.1443 55.6532 16.3096 55.5631 16.4663C55.4921 16.5898 55.4782 16.646 55.4782 16.8093C55.4782 17.1412 55.6576 17.4018 55.9648 17.5162C56.0803 17.5592 56.0968 17.5729 56.0499 17.5873C55.6838 17.7002 55.4782 17.9588 55.4782 18.3064C55.4782 18.4422 55.4962 18.5323 55.5423 18.6277C55.62 18.7881 55.8146 18.9608 55.9759 19.0125L56.0947 19.0506L55.9217 19.1312C55.6285 19.2679 55.4782 19.4953 55.4782 19.8027C55.4782 20.1296 55.664 20.3868 55.9839 20.5029L56.1213 20.5527L55.9935 20.5894C55.5611 20.7133 55.3396 21.2569 55.5636 21.6443C55.6634 21.8167 55.8427 21.9608 56.013 22.0053L56.1335 22.0368L55.9805 22.0871C55.7975 22.1473 55.6149 22.3079 55.5353 22.4788C55.4456 22.6713 55.4563 22.9492 55.5607 23.1355C55.6526 23.2997 55.8515 23.4592 55.9993 23.4872C56.1129 23.5088 56.1533 23.5552 56.0588 23.5555C56.0219 23.5557 55.9243 23.5934 55.8419 23.6393C55.5961 23.7762 55.4797 23.9831 55.4797 24.2833C55.4797 24.5354 55.5858 24.7392 55.7871 24.8736C55.8663 24.9264 55.9676 24.9768 56.0122 24.9854C56.1247 25.0073 56.114 25.0306 55.9719 25.0737C55.801 25.1254 55.6538 25.2478 55.5592 25.4166C55.4569 25.5991 55.4463 25.8785 55.5344 26.0706C55.6616 26.3481 56.0195 26.5457 56.3239 26.5065C56.4586 26.4891 56.4595 26.4895 56.4974 26.5912C56.6379 26.9687 57.142 27.1609 57.5271 26.984C57.7221 26.8944 57.8237 26.7897 57.9057 26.5937L57.9716 26.4363L58.0236 26.5767C58.127 26.856 58.4228 27.0537 58.7372 27.0537C59.0502 27.0537 59.3475 26.8554 59.4553 26.5748L59.5089 26.4353L59.5611 26.5782C59.693 26.9388 60.1193 27.1357 60.5174 27.0198C60.6905 26.9695 60.9245 26.7481 60.9951 26.568L61.0535 26.4189L61.0758 26.5169C61.1996 27.0626 61.973 27.2384 62.3697 26.8111C62.4622 26.7114 62.4924 26.6576 62.558 26.4753C62.5746 26.4294 62.5857 26.4427 62.6179 26.5467C62.6707 26.7175 62.8293 26.8914 63.0138 26.9807C63.4123 27.1736 63.9139 26.9753 64.0558 26.5689C64.0972 26.4501 64.1121 26.4306 64.1273 26.4753C64.2161 26.7364 64.346 26.8893 64.5623 26.9873C65.1705 27.2629 65.8257 26.678 65.5955 26.0649C65.5544 25.9554 65.5409 25.8816 65.558 25.8601C65.6108 25.7936 65.6591 25.5558 65.6432 25.4407C65.6155 25.2399 65.4795 25.0199 65.3181 24.9146C65.2391 24.8631 65.1358 24.8135 65.0885 24.8043C65.003 24.7877 65.0033 24.7873 65.147 24.7257C65.5533 24.5516 65.742 24.1535 65.5961 23.7782C65.5023 23.5369 65.2265 23.3057 65.0272 23.3013C64.9952 23.3006 65.0475 23.2691 65.1434 23.2313C65.3651 23.1438 65.5462 22.9593 65.6078 22.7579C65.6634 22.576 65.663 22.5024 65.6055 22.312C65.5445 22.1103 65.3139 21.8837 65.1112 21.8263L64.973 21.7871L65.1121 21.7531C65.3854 21.6863 65.6518 21.3364 65.6518 21.0443C65.6518 20.9029 65.5656 20.6887 65.4607 20.5698C65.3494 20.4435 65.2464 20.3804 65.0562 20.322C64.9762 20.2974 64.9606 20.2857 65.0063 20.2844C65.3024 20.276 65.6518 19.8878 65.6518 19.5672C65.6518 19.2587 65.4273 18.9547 65.1272 18.8566C64.9696 18.8051 64.9694 18.8048 65.0611 18.786C65.3679 18.723 65.6518 18.3811 65.6518 18.0746C65.6518 17.7701 65.3927 17.4217 65.1216 17.3616C65.0129 17.3375 65.0212 17.3103 65.1506 17.266C65.3859 17.1855 65.5483 17.0071 65.6214 16.7487C65.6704 16.5758 65.6474 16.4185 65.5443 16.2222C65.4557 16.0534 65.2533 15.8928 65.089 15.8609C65.0057 15.8447 65.0076 15.8424 65.1703 15.7671C65.3733 15.6732 65.477 15.5801 65.5611 15.4165C65.7059 15.1351 65.6592 14.8233 65.4372 14.5885C65.3127 14.4568 65.137 14.3608 65.0126 14.3565C64.9551 14.3545 64.9641 14.3466 65.0562 14.3183C65.2464 14.2599 65.3494 14.1968 65.4607 14.0706C65.5656 13.9516 65.6518 13.7375 65.6518 13.596C65.6518 13.439 65.5608 13.2239 65.4407 13.0974C65.3042 12.9536 65.2197 12.9047 65.0552 12.8742L64.94 12.8528L65.0709 12.82C65.252 12.7746 65.3035 12.7439 65.4411 12.599C65.5608 12.4729 65.6518 12.2576 65.6518 12.1007C65.6518 11.9593 65.5656 11.7452 65.4607 11.6262C65.3494 11.5 65.2464 11.4368 65.0562 11.3784C64.9531 11.3468 64.9492 11.3425 65.0211 11.3409C65.2315 11.3359 65.5216 11.0845 65.6078 10.8323C65.7365 10.4561 65.5153 10.0399 65.1175 9.90988L64.9691 9.86133L65.0611 9.84243C65.3679 9.77943 65.6518 9.43754 65.6518 9.131C65.6518 8.82599 65.3936 8.47539 65.1272 8.41854C65.0802 8.40852 65.0417 8.38965 65.0417 8.37658C65.0417 8.36352 65.0802 8.34465 65.1272 8.33463C65.3936 8.27778 65.6518 7.92718 65.6518 7.62216C65.6518 7.31563 65.3679 6.97374 65.0611 6.91074L64.9691 6.89184L65.1175 6.84328C65.5153 6.71322 65.7365 6.29705 65.6078 5.92091C65.5206 5.66592 65.2302 5.41852 65.0126 5.41389C64.9627 5.41285 64.9885 5.39609 65.0955 5.36023C65.2852 5.29658 65.3768 5.23288 65.497 5.08072C65.8112 4.68331 65.5843 4.06172 65.0789 3.93513L64.94 3.90034L65.0562 3.87904C65.3704 3.82146 65.6518 3.48033 65.6518 3.15715C65.6518 2.87394 65.4365 2.58104 65.1434 2.46547C65.0475 2.42767 64.9952 2.39615 65.0272 2.39545C65.0591 2.39474 65.1376 2.37071 65.2015 2.34207C65.4783 2.21799 65.6716 1.89799 65.6422 1.61262C65.5759 0.969471 64.7745 0.697496 64.3183 1.1633L64.2195 1.26413L64.1628 1.15269C64.0464 0.924245 63.798 0.788822 63.4937 0.787863C63.1817 0.786875 62.9499 0.926925 62.8078 1.20226C62.7741 1.2676 62.7457 1.35012 62.7446 1.38564C62.7432 1.43039 62.7313 1.41555 62.7059 1.3374C62.5876 0.974211 62.3364 0.787242 61.9666 0.787242C61.6147 0.787242 61.3454 0.976327 61.2369 1.29956L61.1867 1.44909L61.1655 1.33974C61.1275 1.14276 60.9763 0.960019 60.7646 0.855151C60.6594 0.803013 60.5815 0.787242 60.429 0.787242C60.0743 0.787242 59.8166 0.966085 59.6986 1.29404C59.6503 1.4285 59.6422 1.43826 59.6402 1.36409C59.6356 1.19238 59.3996 0.917417 59.1805 0.828518C59.0334 0.768847 58.7199 0.776239 58.5775 0.842709C58.3887 0.930791 58.2092 1.12064 58.1698 1.27392C58.143 1.37825 58.1172 1.37159 58.0714 1.24847C58.02 1.11048 57.8202 0.903621 57.6768 0.840029C57.5197 0.770314 57.1948 0.770314 57.0377 0.840029ZM77.5707 7.99571C77.6364 8.11643 77.8211 8.28179 77.9474 8.33288C78.0977 8.39365 78.4189 8.38894 78.5657 8.3238C78.719 8.25583 78.9159 8.04423 78.9605 7.89972C78.9801 7.83613 79.0043 7.78411 79.0143 7.78411C79.0243 7.78411 79.0498 7.84113 79.0709 7.91078C79.1173 8.06322 79.2921 8.24725 79.4615 8.32196C79.6331 8.39763 79.9346 8.39521 80.1064 8.31677C80.2678 8.24314 80.4573 8.03938 80.5034 7.88991L80.5378 7.77813L80.6064 7.92924C80.7479 8.24085 80.971 8.38643 81.3112 8.38903C81.4998 8.39047 81.5498 8.37955 81.6831 8.30786C81.7678 8.26226 81.8757 8.17407 81.9228 8.11186C82.0029 8.00606 82.0085 8.00332 82.0085 8.06977C82.0085 8.19515 82.0958 8.39481 82.2046 8.51819C82.3415 8.67353 82.5553 8.77092 82.76 8.77129L82.916 8.77157L82.8432 8.86428C82.5639 9.2199 82.6577 9.71826 83.0494 9.95948C83.1223 10.0044 83.2113 10.0412 83.2472 10.0412C83.3443 10.0412 83.3563 10.0887 83.2648 10.1109C83.177 10.1321 83.0112 10.2427 82.929 10.3347C82.8205 10.4562 82.7651 10.615 82.7645 10.8065C82.7635 11.0966 82.8771 11.295 83.135 11.4539L83.2604 11.5311L83.1075 11.5804C82.758 11.6931 82.5146 12.084 82.5877 12.415C82.6049 12.4928 82.6329 12.5818 82.65 12.6128C82.678 12.6636 82.6753 12.6662 82.6227 12.6389C82.5906 12.6222 82.4715 12.6086 82.358 12.6086C81.9685 12.6086 81.6726 12.8394 81.605 13.1962L81.5872 13.2901L81.4855 13.1403C81.2483 12.791 80.8347 12.6873 80.4613 12.8836C80.3023 12.9672 80.1916 13.0959 80.1191 13.2814L80.0683 13.4114L80.0314 13.2919C79.9845 13.14 79.8337 12.9684 79.6603 12.8697C79.5446 12.8039 79.4932 12.7928 79.3068 12.7938C79.0927 12.7949 78.9532 12.8399 78.8115 12.9535C78.7359 13.0142 78.6202 13.1813 78.5754 13.2947L78.5328 13.4025L78.4931 13.2858C78.4426 13.1372 78.2592 12.9341 78.1046 12.8557C77.9366 12.7705 77.5978 12.7701 77.4307 12.8549C77.2738 12.9344 77.1189 13.1051 77.0543 13.2694L77.0018 13.4029L76.9493 13.2685C76.8909 13.1193 76.6988 12.912 76.5713 12.8607C76.5257 12.8424 76.489 12.8194 76.4896 12.8097C76.4902 12.7999 76.5479 12.7511 76.6177 12.7013C76.7947 12.5749 76.9098 12.3426 76.9084 12.1148C76.9061 11.7668 76.6661 11.4688 76.3287 11.3951L76.2415 11.3761L76.3605 11.3435C76.8171 11.2184 77.0482 10.6855 76.825 10.2725C76.728 10.093 76.4508 9.90311 76.2788 9.8982C76.2331 9.89691 76.2486 9.88523 76.3287 9.86063C76.6471 9.76284 76.8198 9.58755 76.8934 9.2875C76.9326 9.12793 76.9053 8.92685 76.8235 8.7734C76.7551 8.64483 76.5316 8.47237 76.3798 8.43104C76.257 8.3976 76.2497 8.3914 76.3142 8.37571C76.3541 8.366 76.5007 8.36395 76.6399 8.37117C76.8716 8.38319 76.9067 8.37777 77.0558 8.3069C77.237 8.22085 77.3874 8.04832 77.4491 7.85602L77.4857 7.74179L77.5052 7.82643C77.5159 7.87298 77.5454 7.94915 77.5707 7.99571ZM40.3388 8.15895C40.4903 8.312 40.6559 8.37672 40.894 8.37596C41.2514 8.37483 41.5273 8.17303 41.6259 7.8407L41.6469 7.77L41.6802 7.85464C41.7665 8.07377 41.9157 8.23862 42.1046 8.32326C42.2469 8.38708 42.5717 8.3941 42.7139 8.33641C42.8442 8.28354 43.0621 8.08652 43.1072 7.98089C43.1538 7.87154 43.1833 7.87476 43.2059 7.99164C43.2322 8.12777 43.379 8.32904 43.5164 8.41735C43.729 8.55399 44.0346 8.5778 44.2761 8.47654C44.3223 8.45719 44.3252 8.47073 44.3084 8.62661C44.2866 8.8294 44.3272 8.99262 44.439 9.15182C44.5352 9.28872 44.7543 9.42501 44.9177 9.44962L45.0389 9.46787L44.9284 9.51569C44.5625 9.67414 44.3848 10.1471 44.5584 10.5002C44.6218 10.6291 44.852 10.8586 44.9195 10.8601C44.9372 10.8605 44.8652 10.8894 44.7594 10.9245C44.3823 11.0493 44.2109 11.2691 44.2109 11.6278V11.821L44.0729 11.7422C43.9523 11.6733 43.9052 11.6635 43.6996 11.6638C43.489 11.6642 43.4493 11.6731 43.3229 11.749C43.1455 11.8555 42.9962 12.0429 42.9721 12.1893C42.9508 12.3187 42.9327 12.3076 42.8625 12.1224C42.7705 11.8794 42.451 11.6775 42.1585 11.6775C41.8283 11.6775 41.4286 12.0168 41.4199 12.3044C41.4185 12.3487 41.4065 12.3336 41.3812 12.2559C41.3213 12.072 41.2562 11.9713 41.1287 11.8653C40.9168 11.6891 40.6501 11.6359 40.4033 11.7204C40.157 11.8048 39.9619 12.0023 39.8963 12.2339C39.8753 12.3081 39.8569 12.3497 39.8554 12.3264C39.8399 12.088 39.6242 11.8276 39.3632 11.7323C39.1548 11.6561 38.9521 11.6686 38.7507 11.77L38.6037 11.8441L38.5625 11.7679C38.4758 11.6073 38.2444 11.4335 38.0662 11.395L37.9791 11.3761L38.0981 11.3435C38.2396 11.3048 38.4279 11.1778 38.5093 11.0664C38.5819 10.967 38.6618 10.7424 38.6618 10.6378C38.6618 10.5946 38.6411 10.4916 38.6158 10.4089C38.5541 10.207 38.3184 9.97274 38.1269 9.923L37.9938 9.88844L38.1444 9.83391C38.427 9.73155 38.6618 9.41672 38.6618 9.14023C38.6618 8.8489 38.4055 8.50902 38.1295 8.43428L37.9895 8.39633L38.1227 8.35119C38.2951 8.29273 38.4434 8.1759 38.5476 8.01633L38.631 7.88867L38.6596 7.96188C38.7054 8.07879 38.8849 8.25326 39.0255 8.31745C39.1174 8.3594 39.2126 8.37658 39.3531 8.37658C39.6913 8.37658 39.9463 8.20762 40.0733 7.8993L40.1233 7.77784L40.1762 7.91296C40.2052 7.98727 40.2784 8.09798 40.3388 8.15895ZM11.3833 8.55551C11.6214 8.81818 11.9695 8.8858 12.2928 8.73224C12.44 8.66227 12.6596 8.44805 12.6596 8.37435C12.6596 8.36208 12.6738 8.31629 12.6911 8.27262L12.7227 8.1932L12.7775 8.33223C12.8351 8.4786 12.9992 8.66473 13.1288 8.7308C13.5008 8.92053 13.9641 8.77834 14.159 8.41459L14.2493 8.24601L14.2837 8.37478C14.3702 8.69852 14.6609 8.91314 15.0113 8.91201C15.2507 8.91122 15.4206 8.83996 15.5803 8.67341L15.6985 8.55015V8.6397C15.6985 9.17028 16.2979 9.54819 16.7755 9.31874L16.891 9.26321L16.8381 9.39858C16.6544 9.86796 16.9723 10.3555 17.4919 10.4012L17.6654 10.4165L17.5912 10.4691C17.5503 10.4979 17.475 10.5851 17.4237 10.6628C17.3164 10.8251 17.2793 11.0758 17.3338 11.2711C17.4037 11.5219 17.6695 11.7532 17.9311 11.7909L18.0489 11.8079L17.9431 11.8528C17.6596 11.9733 17.4824 12.2359 17.4824 12.5354C17.4824 12.8534 17.6515 13.0993 17.9617 13.2324L18.107 13.2946L18.0185 13.3254C17.7729 13.4108 17.6011 13.5887 17.5239 13.8376C17.4713 14.0075 17.4718 14.0591 17.5279 14.2425C17.6015 14.483 17.8978 14.749 18.0986 14.7547C18.1447 14.7559 18.1294 14.7675 18.0489 14.7922C17.7202 14.8932 17.5189 15.1015 17.4691 15.3923C17.419 15.6853 17.5659 16.003 17.8196 16.1502L17.9676 16.2361L17.8049 16.2827C17.6122 16.3379 17.4197 16.4878 17.3293 16.6531C17.2789 16.7454 17.2655 16.8175 17.2655 16.9957C17.2655 17.2544 17.3238 17.3945 17.4908 17.5369L17.5899 17.6214L17.4522 17.6086C17.1498 17.5803 16.8241 17.775 16.6982 18.0593C16.6467 18.1756 16.6365 18.2416 16.6469 18.3901C16.6541 18.4922 16.6699 18.5979 16.6821 18.6251C16.7011 18.6676 16.6823 18.6647 16.5486 18.6043C16.0712 18.3884 15.5423 18.674 15.4625 19.1908L15.442 19.3239L15.3228 19.1923C15.0212 18.8596 14.5204 18.8437 14.2042 19.1568C14.0855 19.2743 14.0366 19.3619 14.0085 19.5075L13.9869 19.6191L13.9342 19.4986C13.8165 19.2295 13.5855 19.0548 13.3047 19.0225C13.0041 18.9879 12.6429 19.1783 12.5376 19.4268C12.5125 19.4863 12.4782 19.5666 12.4615 19.6054L12.4311 19.676L12.4289 19.6054C12.4252 19.4883 12.2635 19.2485 12.1266 19.157C11.8831 18.9943 11.596 18.9753 11.3299 19.1044C11.1717 19.1811 11.0141 19.3533 10.9694 19.4984C10.9297 19.6268 10.8986 19.6346 10.8732 19.5224C10.8455 19.3996 10.6988 19.2183 10.5562 19.1305L10.4307 19.0532L10.5148 18.9555C10.6017 18.8545 10.684 18.6353 10.684 18.5051C10.684 18.224 10.4681 17.9282 10.1814 17.8165L10.0128 17.7508L10.1465 17.7181C10.3489 17.6686 10.5767 17.4417 10.6408 17.2257C10.7005 17.0247 10.6825 16.875 10.5737 16.6666C10.4838 16.4947 10.307 16.351 10.1235 16.3008L10.0013 16.2674L10.0884 16.2483C10.3352 16.1944 10.5675 15.9739 10.6433 15.7212C10.7576 15.3408 10.5269 14.9402 10.1175 14.808L10.0013 14.7705L10.0933 14.7516C10.4731 14.6734 10.7467 14.2493 10.6555 13.8802C10.5983 13.6487 10.4675 13.4855 10.253 13.378L10.069 13.2857L10.1979 13.2321C10.5554 13.0832 10.7539 12.6891 10.6445 12.3453C10.5642 12.0929 10.4011 11.9257 10.1567 11.8454L10.0162 11.7992L10.1276 11.7668C10.3707 11.6961 10.5737 11.4899 10.6493 11.2369C10.6951 11.0837 10.6931 11.0122 10.638 10.8321C10.5767 10.6314 10.3405 10.3959 10.1513 10.3468L10.0205 10.3128L10.1852 10.2486C10.4679 10.1385 10.684 9.84085 10.684 9.56154C10.684 9.41895 10.5974 9.20557 10.4902 9.08389C10.385 8.96452 10.1476 8.8313 10.0303 8.82585C9.98949 8.82396 9.99815 8.81538 10.0594 8.79707C10.1151 8.78037 10.1941 8.78178 10.2786 8.80091C10.6237 8.87915 11.0344 8.6421 11.1521 8.29677L11.1874 8.1932L11.228 8.31102C11.2502 8.37579 11.3202 8.48583 11.3833 8.55551Z" fill="#0068FF"/>
</svg>
