<svg width="138" height="32" viewBox="0 0 138 32" fill="none" xmlns="http://www.w3.org/2000/svg">
<path d="M98.428 22H102.796C106.618 22 108.84 19.6517 108.84 15.7968C108.84 11.9419 106.609 9.61041 102.88 9.61041H98.428V22ZM100.717 20.0136V11.5968H102.763C105.33 11.5968 106.584 13.095 106.584 15.7968C106.584 18.4986 105.338 20.0136 102.695 20.0136H100.717ZM110.085 22H112.274V16.9331C112.274 15.6032 113.073 14.9299 114.058 14.9299C114.445 14.9299 114.883 14.9888 115.076 15.0561V13.0529C114.908 13.0108 114.656 12.9771 114.378 12.9771C113.317 12.9771 112.585 13.5747 112.257 14.6521H112.19V13.1118H110.085V22ZM116.061 22H118.258V13.1118H116.061V22ZM117.155 11.7483C117.862 11.7483 118.435 11.1928 118.435 10.511C118.435 9.82925 117.862 9.27374 117.155 9.27374C116.448 9.27374 115.876 9.82925 115.876 10.511C115.876 11.1928 116.448 11.7483 117.155 11.7483ZM119.824 25.5014H122.012V20.6365H122.054C122.542 21.5876 123.51 22.1263 124.697 22.1263C126.843 22.1263 128.384 20.4429 128.384 17.5475C128.384 14.61 126.793 12.9771 124.705 12.9771C123.51 12.9771 122.576 13.5411 122.054 14.5258H121.995V13.1118H119.824V25.5014ZM121.919 17.5475C121.919 15.8389 122.753 14.7615 124.066 14.7615C125.328 14.7615 126.161 15.7463 126.161 17.5475C126.161 19.3655 125.328 20.3335 124.066 20.3335C122.753 20.3335 121.919 19.2561 121.919 17.5475ZM136.75 15.9062C136.699 14.0798 135.235 12.9856 133.063 12.9856C130.9 12.9856 129.461 14.0293 129.461 15.6874C129.461 17.0172 130.319 17.8926 132.07 18.2545L133.56 18.5659C134.267 18.7174 134.747 18.9699 134.747 19.5086C134.747 20.1146 134.132 20.4766 133.181 20.4766C132.171 20.4766 131.531 20.0725 131.439 19.2224H129.259C129.402 21.1078 130.934 22.1431 133.19 22.1431C135.353 22.1431 136.96 21.091 136.96 19.3319C136.96 18.0104 136.051 17.2697 134.385 16.9162L132.802 16.588C132.028 16.4196 131.632 16.0998 131.632 15.6116C131.632 15.0309 132.238 14.6437 133.097 14.6437C134.023 14.6437 134.671 15.1319 134.688 15.9062H136.75Z" fill="#5555FF"/>
<path d="M39.7828 22H42.0301V17.4549H44.3194L46.7519 22H49.2601L46.5836 17.0846C48.0313 16.4954 48.7972 15.2497 48.7972 13.5747C48.7972 11.2012 47.2738 9.61041 44.4373 9.61041H39.7828V22ZM42.0301 15.6032V11.4874H44.0922C45.7671 11.4789 46.5162 12.2617 46.5078 13.5747C46.5162 14.8878 45.7671 15.6032 44.1006 15.6032H42.0301ZM53.0982 22.1347C54.5207 22.1347 55.3287 21.5539 55.7579 20.7459H55.7916V22H57.9042V15.9062C57.9042 14.1892 56.4649 12.9771 54.1587 12.9771C51.7852 12.9771 50.3796 14.2649 50.287 15.9062H52.4164C52.4922 15.1655 53.1571 14.6521 54.1419 14.6521C55.1267 14.6521 55.7158 15.1487 55.7158 15.8978V15.9399C55.7158 16.5459 55.1519 16.5796 53.5106 16.7563C51.6758 16.9499 50.0261 17.4633 50.0261 19.4834C50.0261 21.2509 51.3223 22.1347 53.0982 22.1347ZM53.6537 20.5271C52.7447 20.5271 52.1724 20.1315 52.1639 19.4497C52.1555 18.6669 52.9215 18.3303 53.8136 18.204C54.6722 18.0862 55.4633 17.9431 55.7327 17.7747V18.7174C55.7327 19.7359 54.992 20.5271 53.6537 20.5271ZM62.786 22.1347C63.9812 22.1347 64.9239 21.596 65.4457 20.6112H65.4794V22H67.6593V9.61041H65.4625V14.509H65.4289C64.9575 13.5495 63.9812 12.9771 62.7776 12.9771C60.6986 12.9771 59.1162 14.6016 59.1078 17.5475C59.1162 20.4345 60.6481 22.1347 62.786 22.1347ZM63.4173 20.3503C62.1631 20.3503 61.3215 19.3655 61.3215 17.5475C61.3215 15.7379 62.1631 14.7699 63.4173 14.7699C64.7303 14.7699 65.5635 15.8389 65.5635 17.5475C65.5635 19.2561 64.7387 20.3503 63.4173 20.3503ZM69.2165 22H71.4133V13.1118H69.2165V22ZM70.3106 11.7483C71.0177 11.7483 71.59 11.1928 71.59 10.511C71.59 9.82925 71.0177 9.27374 70.3106 9.27374C69.6036 9.27374 69.0313 9.82925 69.0313 10.511C69.0313 11.1928 69.6036 11.7483 70.3106 11.7483ZM76.8926 22.1347C79.3167 22.1347 80.7054 20.5944 80.7896 18.7343H78.677C78.6097 19.7022 77.8521 20.3503 76.901 20.3503C75.6722 20.3503 74.8473 19.2729 74.8473 17.5643C74.8473 15.8389 75.6469 14.7447 76.8926 14.7447C77.9531 14.7447 78.5676 15.4685 78.7191 16.3607H80.7896C80.7307 14.6353 79.3167 12.9771 76.8758 12.9771C74.3002 12.9771 72.6253 14.8625 72.6253 17.5643C72.6253 20.2577 74.3171 22.1347 76.8926 22.1347ZM81.9259 9.61041V19.6938C81.9259 21.3182 82.7676 22.1094 84.5267 22.0589C85.099 22.0505 85.4694 21.9579 85.7303 21.8822L85.36 20.2156C85.2421 20.2577 85.1159 20.2914 84.8213 20.2998C84.291 20.3082 84.1227 20.0305 84.1143 19.3319V9.61041H81.9259ZM90.4353 22.1347C92.5648 22.1347 94.1051 20.99 94.4249 19.2309H92.4049C92.1692 19.9884 91.378 20.4597 90.4606 20.4681C89.097 20.4597 88.289 19.416 88.2974 18.1198V18.0862H94.5175V17.5559C94.5175 14.812 92.9435 12.9771 90.3932 12.9771C87.8093 12.9771 86.1427 14.8541 86.1427 17.5643C86.1427 20.325 87.8093 22.1347 90.4353 22.1347ZM88.3059 16.6637C88.3732 15.5864 89.1728 14.6437 90.3932 14.6437C91.5463 14.6437 92.4301 15.4685 92.4722 16.6637H88.3059Z" fill="#546474"/>
<rect width="32" height="32" rx="16" fill="#5555FF"/>
<path d="M19.2256 22.6479C21.8383 22.6479 23.9563 19.6827 23.9563 16.0249C23.9563 12.3672 21.8383 9.40195 19.2256 9.40195" stroke="white" stroke-width="1.89228" stroke-linecap="round"/>
<ellipse cx="14.4949" cy="16.0249" rx="4.7307" ry="6.62298" stroke="white" stroke-width="1.89228"/>
<path d="M23.0101 12.2404L21.1178 12.2404" stroke="white" stroke-width="1.89228" stroke-linecap="round"/>
<path d="M13.5487 14.1326L7.87189 14.1326" stroke="white" stroke-width="1.89228" stroke-linecap="round"/>
<path d="M13.5487 19.8095L7.87189 19.8095" stroke="white" stroke-width="1.89228" stroke-linecap="round"/>
<path d="M11.6564 16.9711L5.9796 16.9711" stroke="white" stroke-width="1.89228" stroke-linecap="round"/>
<path d="M23.0101 15.0788L22.064 15.0788" stroke="white" stroke-width="1.89228" stroke-linecap="round"/>
<path d="M23.0101 17.9172L22.064 17.9172" stroke="white" stroke-width="1.89228" stroke-linecap="round"/>
<path d="M22.064 20.7556L21.1178 20.7556" stroke="white" stroke-width="1.89228" stroke-linecap="round"/>
</svg>
