<svg width="176" height="301" viewBox="0 0 176 301" fill="none" xmlns="http://www.w3.org/2000/svg">
<mask id="path-1-inside-1_220_1456" fill="white">
<path fill-rule="evenodd" clip-rule="evenodd" d="M150.327 275.971H21.2178V287.137H21.2184C21.218 287.151 21.2178 287.165 21.2178 287.178C21.2178 292.416 50.1199 296.661 85.7725 296.661C121.425 296.661 150.327 292.416 150.327 287.178C150.327 287.165 150.327 287.151 150.327 287.137H150.327V275.971Z"/>
</mask>
<path fill-rule="evenodd" clip-rule="evenodd" d="M150.327 275.971H21.2178V287.137H21.2184C21.218 287.151 21.2178 287.165 21.2178 287.178C21.2178 292.416 50.1199 296.661 85.7725 296.661C121.425 296.661 150.327 292.416 150.327 287.178C150.327 287.165 150.327 287.151 150.327 287.137H150.327V275.971Z" fill="#0068FF"/>
<path d="M21.2178 275.971V274.971H20.2178V275.971H21.2178ZM150.327 275.971H151.327V274.971H150.327V275.971ZM21.2178 287.137H20.2178V288.137H21.2178V287.137ZM21.2184 287.137L22.2179 287.166L22.2476 286.137H21.2184V287.137ZM150.327 287.137V286.137H149.297L149.327 287.166L150.327 287.137ZM150.327 287.137V288.137H151.327V287.137H150.327ZM21.2178 276.971H150.327V274.971H21.2178V276.971ZM22.2178 287.137V275.971H20.2178V287.137H22.2178ZM21.2184 286.137H21.2178V288.137H21.2184V286.137ZM22.2178 287.178C22.2178 287.174 22.2178 287.17 22.2179 287.166L20.2188 287.108C20.2181 287.132 20.2178 287.155 20.2178 287.178H22.2178ZM85.7725 295.661C67.9792 295.661 51.8914 294.601 40.2708 292.894C34.4528 292.04 29.7978 291.029 26.6189 289.925C25.0231 289.371 23.8587 288.813 23.1125 288.277C22.3352 287.719 22.2178 287.34 22.2178 287.178H20.2178C20.2178 288.325 21.0036 289.225 21.9461 289.902C22.9198 290.601 24.2919 291.234 25.9627 291.814C29.3171 292.979 34.116 294.012 39.9801 294.873C51.7236 296.598 67.9132 297.661 85.7725 297.661V295.661ZM149.327 287.178C149.327 287.34 149.21 287.719 148.433 288.277C147.686 288.813 146.522 289.371 144.926 289.925C141.747 291.029 137.092 292.04 131.274 292.894C119.654 294.601 103.566 295.661 85.7725 295.661V297.661C103.632 297.661 119.821 296.598 131.565 294.873C137.429 294.012 142.228 292.979 145.582 291.814C147.253 291.234 148.625 290.601 149.599 289.902C150.541 289.225 151.327 288.325 151.327 287.178H149.327ZM149.327 287.166C149.327 287.17 149.327 287.174 149.327 287.178H151.327C151.327 287.155 151.327 287.132 151.326 287.108L149.327 287.166ZM150.327 286.137H150.327V288.137H150.327V286.137ZM149.327 275.971V287.137H151.327V275.971H149.327Z" fill="black" mask="url(#path-1-inside-1_220_1456)"/>
<path d="M149.827 275.684C149.827 276.092 149.543 276.601 148.724 277.189C147.921 277.765 146.705 278.342 145.09 278.902C141.867 280.022 137.176 281.038 131.347 281.894C119.696 283.606 103.582 284.667 85.7725 284.667C67.9627 284.667 51.8495 283.606 40.1981 281.894C34.3686 281.038 29.6776 280.022 26.4548 278.902C24.8403 278.342 23.624 277.765 22.8209 277.189C22.0023 276.601 21.7178 276.092 21.7178 275.684C21.7178 275.275 22.0023 274.766 22.8209 274.179C23.624 273.602 24.8403 273.025 26.4548 272.465C29.6776 271.345 34.3686 270.329 40.1981 269.473C51.8495 267.761 67.9627 266.7 85.7725 266.7C103.582 266.7 119.696 267.761 131.347 269.473C137.176 270.329 141.867 271.345 145.09 272.465C146.705 273.025 147.921 273.602 148.724 274.179C149.543 274.766 149.827 275.275 149.827 275.684Z" fill="white" stroke="black"/>
<line x1="43.5778" y1="281.522" x2="43.5778" y2="293.193" stroke="black"/>
<line x1="65.2524" y1="284.023" x2="65.2524" y2="295.694" stroke="black"/>
<line x1="86.927" y1="284.023" x2="86.927" y2="295.694" stroke="black"/>
<line x1="108.602" y1="284.023" x2="108.602" y2="295.694" stroke="black"/>
<line x1="130.276" y1="281.522" x2="130.276" y2="293.193" stroke="black"/>
<path d="M42.9507 130.307C62.9587 154.819 100.567 157.308 126.964 135.76C153.361 114.213 158.455 76.8683 138.447 52.3568L133.343 46.1048L85.5954 85.0801L37.8474 124.055L42.9507 130.307Z" fill="#0068FF" stroke="black"/>
<path d="M49.0136 40.2644C22.6166 61.8115 17.5232 99.1566 37.5312 123.668C57.5392 148.18 95.1477 150.668 121.545 129.121C147.942 107.574 153.035 70.2289 133.027 45.7174C113.019 21.206 75.4107 18.7173 49.0136 40.2644Z" fill="white" stroke="black"/>
<path d="M56.4656 49.3935C35.5703 66.4497 31.5967 96.0677 47.4903 115.539C63.3839 135.01 93.1977 137.048 114.093 119.992C134.988 102.936 138.962 73.3177 123.068 53.8467C107.175 34.3757 77.3608 32.3373 56.4656 49.3935Z" fill="white" stroke="black"/>
<line y1="-0.5" x2="8.57043" y2="-0.5" transform="matrix(-0.632351 -0.774682 -0.774682 0.632351 148.656 97.9563)" stroke="black"/>
<line y1="-0.5" x2="8.57043" y2="-0.5" transform="matrix(-0.632351 -0.774682 -0.774682 0.632351 140.339 119.957)" stroke="black"/>
<line y1="-0.5" x2="8.57042" y2="-0.5" transform="matrix(-0.632351 -0.774682 -0.774682 0.632351 126.603 135.318)" stroke="black"/>
<line y1="-0.5" x2="8.57043" y2="-0.5" transform="matrix(-0.632351 -0.774682 -0.774682 0.632351 108.802 145.699)" stroke="black"/>
<line y1="-0.5" x2="8.57043" y2="-0.5" transform="matrix(-0.632351 -0.774682 -0.774682 0.632351 86.2594 150.272)" stroke="black"/>
<ellipse cx="87.6775" cy="275.687" rx="51.2688" ry="5.00185" fill="#003E99" fill-opacity="0.89"/>
<path d="M121.479 265.506C96.1542 284.474 59.0543 277.826 38.6276 250.553C18.2009 223.28 22.2569 185.808 47.582 166.84L54.0416 162.002L90.9902 211.335L127.939 260.668L121.479 265.506Z" fill="#0068FF" stroke="black"/>
<path d="M137.294 176.655C157.72 203.929 153.664 241.401 128.339 260.368C103.014 279.336 65.9141 272.688 45.4874 245.415C25.0607 218.142 29.1167 180.67 54.4418 161.702C79.7669 142.735 116.867 149.382 137.294 176.655Z" fill="white" stroke="black"/>
<path d="M127.861 183.72C144.031 205.309 140.75 235.011 120.632 250.078C100.515 265.146 71.0888 259.939 54.9195 238.351C38.7501 216.762 42.0309 187.059 62.1483 171.992C82.2656 156.925 111.692 162.131 127.861 183.72Z" fill="white" stroke="black"/>
<line x1="26.3856" y1="208.235" x2="33.2453" y2="203.098" stroke="black"/>
<line x1="29.1556" y1="231.592" x2="36.0153" y2="226.454" stroke="black"/>
<line x1="38.7852" y1="249.81" x2="45.645" y2="244.672" stroke="black"/>
<line x1="53.5596" y1="264.175" x2="60.4194" y2="259.038" stroke="black"/>
<line x1="74.3364" y1="274.045" x2="81.1961" y2="268.907" stroke="black"/>
<g style="mix-blend-mode:multiply">
<path fill-rule="evenodd" clip-rule="evenodd" d="M128.43 166.792C126.881 168.27 125.23 169.67 123.478 170.982C101.29 187.6 70.1931 184.726 48.9132 165.734C50.4624 164.256 52.1137 162.856 53.866 161.544C76.0537 144.926 107.151 147.8 128.43 166.792Z" fill="#0848A5"/>
</g>
</svg>
