<svg width="274" height="273" viewBox="0 0 274 273" fill="none" xmlns="http://www.w3.org/2000/svg">
<path fill-rule="evenodd" clip-rule="evenodd" d="M229.277 0.585678C229.277 14.057 218.348 24.9777 204.866 24.9777L204.866 26.5546C218.347 26.5546 229.277 37.4753 229.277 50.9466L230.855 50.9466C230.855 37.4753 241.784 26.5546 255.266 26.5546V24.9778C241.784 24.9778 230.855 14.0571 230.855 0.585678H229.277Z" fill="white"/>
<path fill-rule="evenodd" clip-rule="evenodd" d="M34.8012 70.5517C27.505 70.5517 21.5903 64.6415 21.5903 57.351H20.0122C20.0122 64.6415 14.0974 70.5517 6.8012 70.5517L6.80115 72.1285C14.0974 72.1285 20.0121 78.0387 20.0121 85.3292H21.5902C21.5902 78.0387 27.505 72.1285 34.8012 72.1285V70.5517Z" fill="#0068FF"/>
<path d="M137.696 41.7648L272.089 117.306L1.88895 117.306L137.696 41.7648Z" stroke="black" stroke-linejoin="round"/>
<path d="M0.989014 116.407H272.989V272.086H0.989014V116.407Z" fill="white" stroke="black"/>
<path opacity="0.98" d="M136.989 194.246L1.88904 117.306L272.089 117.306L136.989 194.246Z" fill="#0068FF"/>
<path d="M1.88904 117.306L272.089 271.187M1.88904 271.187L272.089 117.306" stroke="black"/>
<path d="M127.889 169.965C86.4452 169.965 52.7891 133.896 52.7891 89.3279C52.7891 44.7594 86.4452 8.6908 127.889 8.6908H138.589V89.3279V169.965H127.889Z" fill="#0068FF" stroke="black"/>
<path d="M214.189 89.3279C214.189 133.896 180.533 169.965 139.089 169.965C97.6451 169.965 63.989 133.896 63.989 89.3279C63.989 44.7594 97.6451 8.6908 139.089 8.6908C180.533 8.6908 214.189 44.7594 214.189 89.3279Z" fill="white" stroke="black"/>
<path d="M198.789 89.3279C198.789 124.623 172.03 153.178 139.089 153.178C106.149 153.178 79.3892 124.623 79.3892 89.3279C79.3892 54.0325 106.149 25.4778 139.089 25.4778C172.03 25.4778 198.789 54.0325 198.789 89.3279Z" fill="white" stroke="black"/>
<line x1="72.2896" y1="35.564" x2="83.4896" y2="35.564" stroke="black"/>
<line x1="57.2982" y1="62.3698" x2="68.3445" y2="62.3698" stroke="black"/>
<line x1="53.3531" y1="88.3872" x2="64.3994" y2="88.3872" stroke="black"/>
<line x1="57.2982" y1="115.193" x2="68.3445" y2="115.193" stroke="black"/>
<line x1="71.5006" y1="141.999" x2="82.5469" y2="141.999" stroke="black"/>
<path d="M204.844 25.7661V25.7661C218.751 25.7661 230.044 37.0398 230.044 50.9466V50.9466" stroke="black" stroke-linejoin="round"/>
<path d="M255.245 25.7661V25.7661C241.338 25.7661 230.044 14.4924 230.044 0.585647V0.585647" stroke="black" stroke-linejoin="round"/>
<path d="M230.045 50.9467V50.9467C230.045 37.0399 241.338 25.7662 255.245 25.7662V25.7662" stroke="black" stroke-linejoin="round"/>
<path d="M230.045 0.585693V0.585693C230.045 14.4925 218.751 25.7662 204.845 25.7662V25.7662" stroke="black" stroke-linejoin="round"/>
<path d="M6.80115 71.3401V71.3401C14.5271 71.3401 20.8011 77.6032 20.8011 85.3292V85.3292" stroke="black" stroke-linejoin="round"/>
<path d="M34.8013 71.3401V71.3401C27.0753 71.3401 20.8013 65.0769 20.8013 57.3509V57.3509" stroke="black" stroke-linejoin="round"/>
<path d="M20.8011 85.3292V85.3292C20.8011 77.6032 27.0752 71.3401 34.8011 71.3401V71.3401" stroke="black" stroke-linejoin="round"/>
<path d="M20.8011 57.351V57.351C20.8011 65.0769 14.5271 71.3401 6.80115 71.3401V71.3401" stroke="black" stroke-linejoin="round"/>
</svg>
