<svg width="815" height="248" viewBox="0 0 815 248" fill="none" xmlns="http://www.w3.org/2000/svg">
<path d="M0 207.401H85.8736C162.563 207.401 179.264 162.533 179.264 123.148C179.264 81.7488 158.643 40.9091 85.8736 40.9091H0V207.401ZM57.4319 89.0216H77.1821C116.038 89.0216 119.617 111.623 119.617 123.484C119.617 135.344 116.209 159.288 77.1821 159.288H57.4319V89.0216Z" fill="#5555FF"/>
<path d="M251.699 84.0985H288.541C298.085 84.0985 301.493 89.3573 301.493 96.2944C301.493 103.232 298.085 108.49 288.541 108.49H251.699V84.0985ZM251.699 152.351H278.316C296.892 152.351 303.368 162.869 303.368 180.771V207.401C303.368 207.401 352.878 207.401 361.141 207.401V164.211C361.141 142.729 350.915 128.183 333.021 123.484C343.587 119.903 360.63 109.386 360.63 84.3223C360.63 53.8883 341.031 40.9091 309.162 40.9091H194.267V207.401H251.699V152.351Z" fill="#5555FF"/>
<path d="M437.423 40.9091H380.162V207.401H437.423V40.9091Z" fill="#5555FF"/>
<path d="M564.287 159.064C611.835 159.064 625.639 129.973 625.639 99.3155C625.639 68.2102 612.176 40.9091 564.287 40.9091H457.081V207.401H514.513V159.064H564.287ZM514.513 86.5601H552.869C562.924 86.5601 566.332 92.1545 566.332 99.5392C566.332 106.7 562.924 112.518 552.869 112.518H514.513V86.5601Z" fill="#5555FF"/>
<path d="M721.519 210.534C791.051 210.534 814.143 180.547 814.143 151.68C814.143 117.665 796.078 101.106 747.168 99.3155L722.968 98.6441C701.495 97.9728 697.064 93.721 697.064 87.2314V87.0076C697.064 80.9656 700.217 76.49 719.985 76.49C741.458 76.49 744.27 85.8887 744.782 91.9308H809.542V90.3643C809.542 62.8395 785.001 38 719.219 38C659.06 38 632.815 60.266 632.815 89.5811C632.815 115.763 644.574 140.491 695.53 142.281L720.752 143.176C744.782 144.295 747.168 149.666 747.168 156.603V157.05C747.168 163.988 742.737 170.477 722.286 170.477C699.961 170.477 697.064 157.946 696.553 150.113H630.77V152.127C630.77 173.61 647.727 210.534 721.519 210.534Z" fill="#5555FF"/>
</svg>
